<svg xmlns="http://www.w3.org/2000/svg" xmlns:xlink="http://www.w3.org/1999/xlink" viewBox="0 0 300 250"><defs><style>.cls-1,.cls-18,.cls-22,.cls-26,.cls-28{fill:none;}.cls-2{isolation:isolate;}.cls-3{clip-path:url(#clip-path);}.cls-4{clip-path:url(#clip-path-3);}.cls-5{fill:url(#linear-gradient);}.cls-6{clip-path:url(#clip-path-4);}.cls-7{mix-blend-mode:soft-light;}.cls-8{clip-path:url(#clip-path-5);}.cls-9{clip-path:url(#clip-path-6);}.cls-10{fill:url(#radial-gradient);}.cls-11{clip-path:url(#clip-path-7);}.cls-12{clip-path:url(#clip-path-8);}.cls-13{fill:#e1251b;}.cls-14{clip-path:url(#clip-path-9);}.cls-15,.cls-20,.cls-34{fill:#fff;}.cls-16,.cls-35{fill:#010101;}.cls-16,.cls-17,.cls-19,.cls-20,.cls-21,.cls-23,.cls-24,.cls-25,.cls-27,.cls-29,.cls-30,.cls-31,.cls-32{fill-rule:evenodd;}.cls-17{fill:#ea0029;}.cls-18,.cls-22{stroke:#010101;}.cls-18,.cls-22,.cls-26,.cls-28{stroke-miterlimit:2.61;}.cls-18,.cls-26,.cls-28{stroke-width:0.03px;}.cls-19{fill:#e9e24c;}.cls-21{fill:#c18d68;}.cls-22{stroke-width:0.04px;}.cls-23{fill:#75c0e4;}.cls-24{fill:#ecc23e;}.cls-25{fill:#bc7443;}.cls-26{stroke:#7d7365;}.cls-27{fill:#398a53;}.cls-28{stroke:#2d944a;}.cls-29{fill:#7d7474;}.cls-30{fill:#99634f;}.cls-31{fill:#7d7365;}.cls-32{fill:#2d944a;}.cls-33{fill:#595a5c;}.cls-34{font-size:16.41px;font-family:Calibri;}</style><clipPath id="clip-path"><rect class="cls-1" x="302.81" y="-50.86" width="290.38" height="94.92"/></clipPath><clipPath id="clip-path-3"><path class="cls-1" d="M324.7-37.47q0,16.63,0,33.26c0,8,0,17.36,7.63,27.46,6.21,8.16,17.3,15.75,20,15.74s16.93-7.85,23.46-18.38c5.92-9.85,5.64-19.64,5.65-24.82V-37.46a130.25,130.25,0,0,0-56.72,0"/></clipPath><linearGradient id="linear-gradient" x1="-350.51" y1="-81.61" x2="-350.1" y2="-81.61" gradientTransform="matrix(0, -226.8, 226.8, 0, 18862.67, -79454.97)" gradientUnits="userSpaceOnUse"><stop offset="0" stop-color="#d18d29"/><stop offset="0.13" stop-color="#d18d29"/><stop offset="0.22" stop-color="#dfa326"/><stop offset="0.37" stop-color="#f0be21"/><stop offset="0.5" stop-color="#facf1f"/><stop offset="0.6" stop-color="#fed51e"/><stop offset="0.95" stop-color="#fdf6b0"/><stop offset="1" stop-color="#fdf6b0"/></linearGradient><clipPath id="clip-path-4"><rect class="cls-1" x="315.33" y="-48.67" width="276.09" height="92.73"/></clipPath><clipPath id="clip-path-5"><rect class="cls-1" x="290.06" y="-66.1" width="126.22" height="129.58"/></clipPath><clipPath id="clip-path-6"><path class="cls-1" d="M352.77-40.59a129.69,129.69,0,0,0-28.07,3.12q0,16.63,0,33.26c0,8,0,17.36,7.63,27.46,6.2,8.15,17.27,15.74,20,15.74h0c2.7,0,16.93-7.88,23.44-18.38,5.44-9,5.65-18.06,5.65-23.48V-37.46a129.7,129.7,0,0,0-28.13-3.13Z"/></clipPath><radialGradient id="radial-gradient" cx="-351.17" cy="-81" r="0.4" gradientTransform="matrix(0, -167.35, 167.35, 0, 13910.7, -58735.13)" gradientUnits="userSpaceOnUse"><stop offset="0" stop-color="#d18d29"/><stop offset="0.13" stop-color="#d18d29"/><stop offset="0.22" stop-color="#dfa326"/><stop offset="0.37" stop-color="#f0be21"/><stop offset="0.5" stop-color="#facf1f"/><stop offset="0.6" stop-color="#fed51e"/><stop offset="0.65" stop-color="#fed82b"/><stop offset="0.74" stop-color="#fedf4f"/><stop offset="0.86" stop-color="#feea89"/><stop offset="1" stop-color="#fefad7"/></radialGradient><clipPath id="clip-path-7"><rect class="cls-1" x="6.29" y="69.06" width="289.66" height="64.4"/></clipPath><clipPath id="clip-path-8"><rect class="cls-1" x="-5.41" y="71.61" width="298.82" height="59.97"/></clipPath><clipPath id="clip-path-9"><rect class="cls-1" x="-0.16" y="74.05" width="291.53" height="55.04"/></clipPath></defs><title>Artboard 6</title><g class="cls-2"><g id="Layer_1" data-name="Layer 1"><g class="cls-3"><g class="cls-3"><g class="cls-4"><rect class="cls-5" x="308.78" y="-49.47" width="88.77" height="97.36" transform="translate(45.83 173.19) rotate(-29.39)"/></g><g class="cls-6"><g class="cls-7"><g class="cls-8"><g class="cls-9"><rect class="cls-10" x="308.72" y="-49.42" width="88.62" height="97.23" transform="translate(46.25 173.88) rotate(-29.53)"/></g></g></g></g></g></g><g class="cls-11"><g class="cls-12"><rect class="cls-13" x="54.87" y="74.06" width="55.05" height="55.02"/><g class="cls-14"><path class="cls-15" d="M70.26,98.88a4.49,4.49,0,0,1-.32,1.76A3.75,3.75,0,0,1,69,102a4.13,4.13,0,0,1-1.46.85,6.37,6.37,0,0,1-2.07.3H64v4.66a.22.22,0,0,1-.05.14.32.32,0,0,1-.14.1l-.26.06a2.43,2.43,0,0,1-.41,0,2.56,2.56,0,0,1-.42,0l-.26-.06a.32.32,0,0,1-.14-.1.21.21,0,0,1,0-.14v-12a.68.68,0,0,1,.21-.57.75.75,0,0,1,.47-.17h2.77a7.09,7.09,0,0,1,.81,0,6.81,6.81,0,0,1,.91.15,3.64,3.64,0,0,1,1.07.43,3.46,3.46,0,0,1,.92.77,3.59,3.59,0,0,1,.59,1.07,4.31,4.31,0,0,1,.2,1.33M68.45,99a2.8,2.8,0,0,0-.29-1.32,2.16,2.16,0,0,0-.73-.79,2.56,2.56,0,0,0-.91-.33,7,7,0,0,0-.9-.07H64v5.2h1.55a3.74,3.74,0,0,0,1.3-.2,2.47,2.47,0,0,0,.86-.56,2.4,2.4,0,0,0,.53-.85A3.14,3.14,0,0,0,68.45,99"/><path class="cls-15" d="M79.68,107.33a1.57,1.57,0,0,1,0,.32.48.48,0,0,1-.07.22.29.29,0,0,1-.11.13.26.26,0,0,1-.15,0H73.12a.7.7,0,0,1-.43-.15.65.65,0,0,1-.21-.55V95.79a.62.62,0,0,1,.21-.54.66.66,0,0,1,.43-.16h6.14a.33.33,0,0,1,.15,0,.27.27,0,0,1,.1.13,1,1,0,0,1,.07.23,2.92,2.92,0,0,1,0,.33,2.88,2.88,0,0,1,0,.32,1,1,0,0,1-.07.22.26.26,0,0,1-.25.16H74.2v4.07h4.34a.26.26,0,0,1,.15,0,.36.36,0,0,1,.11.13.53.53,0,0,1,.06.22,1.62,1.62,0,0,1,0,.33,1.47,1.47,0,0,1,0,.31.58.58,0,0,1-.06.21.29.29,0,0,1-.11.11.26.26,0,0,1-.15,0H74.2v4.63h5.13a.37.37,0,0,1,.15,0,.43.43,0,0,1,.11.12.52.52,0,0,1,.07.23,1.62,1.62,0,0,1,0,.33"/><path class="cls-15" d="M90.71,107.78a.29.29,0,0,1,0,.14.22.22,0,0,1-.14.1.77.77,0,0,1-.27.06,3.33,3.33,0,0,1-.49,0,2.56,2.56,0,0,1-.42,0,.77.77,0,0,1-.26-.06.34.34,0,0,1-.16-.13.75.75,0,0,1-.1-.2l-1.18-3c-.15-.35-.29-.67-.44-1a3,3,0,0,0-.54-.75,2.34,2.34,0,0,0-.73-.49,2.7,2.7,0,0,0-1-.17H83.79v5.51a.21.21,0,0,1,0,.14.39.39,0,0,1-.14.1l-.26.06a2.56,2.56,0,0,1-.42,0,2.49,2.49,0,0,1-.41,0l-.27-.06a.39.39,0,0,1-.14-.1.29.29,0,0,1,0-.14v-12a.62.62,0,0,1,.21-.54.66.66,0,0,1,.43-.16h2.75c.33,0,.6,0,.82,0l.58,0a5.33,5.33,0,0,1,1.33.41,3.33,3.33,0,0,1,1,.71,2.9,2.9,0,0,1,.58,1,3.67,3.67,0,0,1,.19,1.22,3.52,3.52,0,0,1-.17,1.17,2.71,2.71,0,0,1-.51.91,3.12,3.12,0,0,1-.79.69,5.46,5.46,0,0,1-1,.49,2,2,0,0,1,.58.36,2.65,2.65,0,0,1,.49.51,4.51,4.51,0,0,1,.42.69,8.17,8.17,0,0,1,.4.88l1.16,2.85c.1.24.16.41.19.51a1.31,1.31,0,0,1,0,.22m-2.6-9.1a2.29,2.29,0,0,0-.34-1.28,1.88,1.88,0,0,0-1.13-.76,4.19,4.19,0,0,0-.57-.1c-.21,0-.48,0-.83,0H83.79v4.37h1.68a3.72,3.72,0,0,0,1.18-.17,2.25,2.25,0,0,0,.82-.46,1.75,1.75,0,0,0,.49-.69,2.5,2.5,0,0,0,.15-.88"/><path class="cls-15" d="M102.52,103.26a6,6,0,0,1-.35,2.11,4.37,4.37,0,0,1-1,1.56,4.16,4.16,0,0,1-1.56,1,6.19,6.19,0,0,1-2.09.33,5.7,5.7,0,0,1-2-.31,4,4,0,0,1-1.51-.91,4,4,0,0,1-1-1.52,5.89,5.89,0,0,1-.35-2.1v-8a.24.24,0,0,1,0-.14.21.21,0,0,1,.14-.09.77.77,0,0,1,.26-.06,2.26,2.26,0,0,1,.42,0,2.54,2.54,0,0,1,.41,0,.77.77,0,0,1,.26.06.28.28,0,0,1,.14.09.33.33,0,0,1,0,.14v7.83a5,5,0,0,0,.22,1.57,2.85,2.85,0,0,0,.63,1.12,2.75,2.75,0,0,0,1,.67,4.1,4.1,0,0,0,2.65,0,2.5,2.5,0,0,0,1-.66,2.91,2.91,0,0,0,.62-1.09,4.64,4.64,0,0,0,.22-1.52V95.35a.23.23,0,0,1,0-.14.21.21,0,0,1,.14-.09.77.77,0,0,1,.26-.06,2.42,2.42,0,0,1,.42,0,2.25,2.25,0,0,1,.4,0,.77.77,0,0,1,.26.06.24.24,0,0,1,.14.09.24.24,0,0,1,0,.14ZM98.68,91.52a.77.77,0,0,1,.21-.2.88.88,0,0,1,.24-.11,1.22,1.22,0,0,1,.31-.06h.43a2,2,0,0,1,.47,0,.54.54,0,0,1,.24.12.16.16,0,0,1,0,.16.42.42,0,0,1-.11.19l-2.27,2.12a1.24,1.24,0,0,1-.19.16l-.19.09-.26,0h-.35a1.6,1.6,0,0,1-.36,0,.3.3,0,0,1-.18-.07.12.12,0,0,1,0-.14.38.38,0,0,1,.11-.19Z"/><rect class="cls-15" x="-0.17" y="74.05" width="55.03" height="55.04"/><path class="cls-16" d="M27.31,120.22,17.38,97.47,9.2,90.84l.29,22.69c.07,5,5.5,12.51,17.82,6.69"/><path class="cls-17" d="M28,119.84,17.84,97.46,9.49,90.92l.3,22.34c.08,4.92,5.61,12.3,18.18,6.58"/><path class="cls-16" d="M13.21,94l-4-3,.05-.18s2.3,1.79,4.16,3.06c.08.05-.12,0-.17.17"/><path class="cls-18" d="M13.21,94l-4-3,.05-.18s2.3,1.79,4.16,3.06C13.46,93.87,13.26,93.82,13.21,94Z"/><path class="cls-16" d="M9.17,90.24l-.81-.39v.86a0,0,0,0,0,0,0v0l.87.27Z"/><path class="cls-18" d="M9.17,90.24l-.81-.39v.86a0,0,0,0,0,0,0v0l.87.27Z"/><path class="cls-19" d="M9.21,91l-.09-.76-.72-.38,0,.82c0,.08.78.22.79.32"/><path class="cls-18" d="M9.21,91l-.09-.76-.72-.38,0,.82C8.42,90.76,9.2,90.9,9.21,91Z"/><path class="cls-19" d="M9.21,91,8.4,89.92l0,.79c0,.09.74.21.79.29"/><path class="cls-18" d="M9.21,91,8.4,89.92l0,.79C8.42,90.8,9.16,90.92,9.21,91Z"/><path class="cls-16" d="M9.22,90.7a.22.22,0,0,1,.24.23.24.24,0,0,1-.24.24A.25.25,0,0,1,9,90.93a.24.24,0,0,1,.25-.23"/><path class="cls-18" d="M9.22,90.7a.22.22,0,0,1,.24.23.24.24,0,0,1-.24.24A.25.25,0,0,1,9,90.93.24.24,0,0,1,9.22,90.7Z"/><path class="cls-19" d="M9.22,90.76a.16.16,0,0,1,.17.17.17.17,0,0,1-.34,0,.16.16,0,0,1,.17-.17"/><path class="cls-18" d="M9.22,90.76a.16.16,0,0,1,.17.17.17.17,0,0,1-.34,0A.16.16,0,0,1,9.22,90.76Z"/><path class="cls-20" d="M9.65,104.61c.55.47,1.58.19,1.7,1.06.06.47.74.46.94.84.51,1,1.39.59,1.65.92a2.1,2.1,0,0,0,1.77.9c.69-.14,1.39.55,2.05,1,1.16.74,2.27.43,2.27,3a6.62,6.62,0,0,1-.28,2.79c-.68.93-1.94.8-3.24,1.09-.25.06-1.37-1-2.43-.73-.46.12-1-.2-1.51-.09a1.44,1.44,0,0,1-1.68-.57c-.35-.75-1.1-.8-1.1-1.1,0-2-.13-7.22-.14-9.13"/><path class="cls-18" d="M9.65,104.61c.55.47,1.58.19,1.7,1.06.06.47.74.46.94.84.51,1,1.39.59,1.65.92a2.1,2.1,0,0,0,1.77.9c.69-.14,1.39.55,2.05,1,1.16.74,2.27.43,2.27,3a6.62,6.62,0,0,1-.28,2.79c-.68.93-1.94.8-3.24,1.09-.25.06-1.37-1-2.43-.73-.46.12-1-.2-1.51-.09a1.44,1.44,0,0,1-1.68-.57c-.35-.75-1.1-.8-1.1-1.1C9.79,111.69,9.66,106.52,9.65,104.61Z"/><path class="cls-16" d="M17.17,106.22c-1.13-.86-5.71-2.67-6.36-4s.48-3.06.17-2.1c-.38,1.18,3.78,2.9,4.93,3.38.44.2,1.88.69,1.88,1.29,0,.09-.14.54-.14.67,0,.41-.48.64-.48.73"/><path class="cls-18" d="M17.17,106.22c-1.13-.86-5.71-2.67-6.36-4s.48-3.06.17-2.1c-.38,1.18,3.78,2.9,4.93,3.38.44.2,1.88.69,1.88,1.29,0,.09-.14.54-.14.67C17.65,105.9,17.17,106.13,17.17,106.22Z"/><path class="cls-19" d="M17.46,106c-1.16-.94-5.83-2.88-6.49-4.27s.48-3.3.17-2.27c-.38,1.28,3.87,3.13,5,3.66.45.2,1.92.74,1.92,1.37,0,.1-.15.59-.15.73,0,.44-.49.68-.49.78"/><path class="cls-18" d="M17.46,106c-1.16-.94-5.83-2.88-6.49-4.27s.48-3.3.17-2.27c-.38,1.28,3.87,3.13,5,3.66.45.2,1.92.74,1.92,1.37,0,.1-.15.59-.15.73C18,105.7,17.46,105.94,17.46,106Z"/><path class="cls-17" d="M19.33,106.13c.07-4.75,1-9.88.39-11.87a46.44,46.44,0,0,1-5.81-4.36c-.2-.17-2.28,8-2.94,9.84.78,2.32,4.57,3.1,8.36,6.39"/><path class="cls-18" d="M19.33,106.13c.07-4.75,1-9.88.39-11.87a46.44,46.44,0,0,1-5.81-4.36c-.2-.17-2.28,8-2.94,9.84C11.75,102.06,15.54,102.84,19.33,106.13Z"/><path class="cls-20" d="M17.38,96.6c-.33-.14-1.12-.89-1.49-1.07-.83-.38-2.54-1.89-2.92-1.53a4.37,4.37,0,0,0-1,2.58c-.06.42.32.42.65.57.58.27.84.59,1.47.66,1.57.19,2.43,1.41,3.25,1,.33-.15.18-1.28.56-1.47.58-.28-.24-.47-.48-.79"/><path class="cls-18" d="M17.38,96.6c-.33-.14-1.12-.89-1.49-1.07-.83-.38-2.54-1.89-2.92-1.53a4.37,4.37,0,0,0-1,2.58c-.06.42.32.42.65.57.58.27.84.59,1.47.66,1.57.19,2.43,1.41,3.25,1,.33-.15.18-1.28.56-1.47C18.44,97.11,17.62,96.92,17.38,96.6Z"/><path class="cls-21" d="M19.57,100.25c0,.08-.06.25-.18.46a.38.38,0,0,0,.24-.14,1,1,0,0,1-.21.36s.11,0,.19-.13v.09c0,.08-.06.19-.08.25s-.09.19-.14.3a.88.88,0,0,1-.07-.78c-.1-.08,0-.25.1-.38s-.1.08-.12.08a.85.85,0,0,1,.21-.53.19.19,0,0,1,.31.08c0,.08,0,.12-.16.2s-.17.15-.09.14"/><path class="cls-16" d="M13.84,90c.92,2.62,1,7.2,1.69,10.05,0,.16.15.81.2.88a3.38,3.38,0,0,0-.55-.58c-.61-.38-2.19-1.48-3.62-.77a2.06,2.06,0,0,0-.31.23c-.12.11-.19.19-.19.19-.08-.2-.1-.29.08-.46.19-.82.39-1.71.59-2.6.1-.42.21-.85.3-1.27.64-2.61,1.29-5,1.81-5.67"/><path class="cls-18" d="M13.84,90c.92,2.62,1,7.2,1.69,10.05,0,.16.15.81.2.88a3.38,3.38,0,0,0-.55-.58c-.61-.38-2.19-1.48-3.62-.77a2.06,2.06,0,0,0-.31.23c-.12.11-.19.19-.19.19-.08-.2-.1-.29.08-.46.19-.82.39-1.71.59-2.6.1-.42.21-.85.3-1.27C12.67,93,13.32,90.61,13.84,90Z"/><path class="cls-16" d="M19.44,94.26l-5.78-4.32.07-.26c0-.05,3.29,2.53,5.93,4.34.11.08-.15,0-.22.24"/><path class="cls-18" d="M19.44,94.26l-5.78-4.32.07-.26c0-.05,3.28,2.53,5.93,4.34C19.77,94.1,19.51,94,19.44,94.26ZM16,104.13v.32a.61.61,0,0,1,0,.14s0,.06,0,.11,0,.12,0,.19v.1c0,.06,0,.17.05,0m.53-.56v.31c0,.06,0,.12,0,.15s-.05.06-.05.1a1.09,1.09,0,0,0,0,.19v.11c0,.07,0,.17,0,0m.61-.52c0,.08,0,.23,0,.32s0,.12,0,.14-.06.07-.05.11,0,.12,0,.19v.1c0,.07,0,.17.05,0m-1.64-1.88s-.09.08-.09.13V104l0,0v.62h0v.14m-.34-1.32a.93.93,0,0,0-.08.55c0,.08,0,.21,0,.23a1.34,1.34,0,0,0-.11.21h0c-.07.08.07,0-.29,0m-.36-1.5s0,.1,0,.14v.09l0,0v0h0V104h0c0,.08,0,.14,0,0m-.41-1.24c0,.06,0,.11,0,.16v.07l0,0v.11h0v.21s0,.07,0,.1v.3c0,.07,0,.12,0,0m-2.4-2.83a.53.53,0,0,0-.09.11h0v0l0,0v0l0,0v0l0,0v.06h0v0s0,.1,0,.15,0,.05,0,.08v.25c0,.08,0,.08,0,0m.78-.28s-.09,0-.09.06l0,0v0l0,0v.07h0v.12l0,.06v0s0,.07,0,.1,0,0,0,0v.23s0,0,0,.07m2.9.89a.8.8,0,0,0-.07.55c0,.08,0,.2,0,.22a1.39,1.39,0,0,0-.11.21l0,0c-.07.07.07,0-.29,0m-1.64-2.63a3,3,0,0,0-.08.63v.45c0,.07-.05.14,0,0m.59-.67a2.22,2.22,0,0,0-.11.69V103c0,.08,0,.23,0,.23m4.15,1.27a.73.73,0,0,0,.05.12V105l0,.06v0l0,0v0s-.07,0-.07.08-.05.07-.05.1,0,0,0,.07l0,0v.15m-.82-1.67s0,.1,0,.13v0l0,0h0l0,0v.1l0,0v.15s0,0,0,.1v.27s0,.08,0,.05M11.31,101l-.09.1,0,0v0l0,0h0l0,0v0l0,0v0l0,0v0c0,.06,0,.11,0,.16s0,0,0,.07V102c0,.07,0,.07,0,0m.79-.21v.3l0,.06v0l0,0v0a.31.31,0,0,0,0,.1v.1a.2.2,0,0,0,0,.07v.08h0v.06c0,.07,0,.07,0,0m.57-.69c0,.06,0,.1,0,.16v.07l0,.06V103c0,.07,0,.13,0-.05m.89-.19,0,.09v0l0,0V103h0v.08h0v.08c0,.06,0,.1,0,.15v.3s0,.08,0,.08M13,102.4s0,.1,0,.13v0h0v.14l0,0v.17a2.11,2.11,0,0,0,0,.23v.4m4.46,1.25s0,.1,0,.12,0,0,0,.09h0l0,0v0h0v0l0,0h0l0,0v.09l0,0v.52M15,103.55s0,.13,0,.18V104h0v.13s0,.08,0,.11v.07s0,0,0,0v0l0,0v0h0s-.08.12,0,0m-.79-1.29v.15l0,0v0l0,0v.11s0,.07,0,.12V104m-.28-1.13c-.11,0-.08,0-.08.15v1m.91-.59-.07.13v.1l0,0v.69m.91-.47s-.09.08-.09.12v.08l0,0v.64a.45.45,0,0,1,0,.11m.9-.69v.32a1.3,1.3,0,0,1,0,.15s-.06.06-.06.1,0,.12,0,.18v.11c0,.07,0,.17.05,0m-4.67-3.89a.36.36,0,0,0-.1.11l0,0v0l0,0v0l0,0h0l0,.06v0l0,0v0s0,.1,0,.15,0,0,0,.08v.25c0,.08,0,.08.06,0"/><path class="cls-16" d="M10.65,101c0,.11.2-.84.29-1.17s.86-1.14,1.24-1.14c.19,0,.53,0,.77,0a2.63,2.63,0,0,1,2.05,1c.09.1.37.29.38.43a5.37,5.37,0,0,1,.39.88c-1.61-1.19-4.73-1.39-5.12,0"/><path class="cls-18" d="M10.65,101c0,.11.2-.84.29-1.17s.86-1.14,1.24-1.14c.19,0,.53,0,.77,0a2.63,2.63,0,0,1,2.05,1c.09.1.37.29.38.43a5.37,5.37,0,0,1,.39.88C14.16,99.81,11,99.61,10.65,101Z"/><path class="cls-19" d="M10.65,100.82c0,.1.2-.78.29-1.07s.86-1.06,1.24-1.06c.19,0,.53,0,.77,0a2.65,2.65,0,0,1,2.05,1c.09.08.34.26.38.39a7.75,7.75,0,0,1,.24.77c-1.61-1.11-4.58-1.23-5,0"/><path class="cls-18" d="M10.65,100.82c0,.1.2-.78.29-1.07s.86-1.06,1.24-1.06c.19,0,.53,0,.77,0a2.65,2.65,0,0,1,2.05,1c.09.08.34.26.38.39a7.75,7.75,0,0,1,.24.77C14,99.67,11,99.55,10.65,100.82Z"/><path class="cls-17" d="M13.71,89.82c.93,2.71.92,7.44,1.73,10.19a4,4,0,0,0-3.95-.74,1.88,1.88,0,0,0-.55.46c1.53-5.35,2-8,2.77-9.91"/><path class="cls-18" d="M13.71,89.82c.93,2.71.92,7.44,1.73,10.19a4,4,0,0,0-3.95-.74,1.88,1.88,0,0,0-.55.46C12.47,94.38,12.89,91.7,13.71,89.82Z"/><path class="cls-20" d="M14.6,94.2c.05.53.12,1.36.16,1.94,0,.11-2.2-.48-3.06.83.32-1.1.38-1.72.59-2.33,0,0,.05-.12.08-.18.48-.44,2.2-.48,2.23-.26"/><path class="cls-18" d="M14.6,94.2c.05.53.12,1.36.16,1.94,0,.11-2.2-.48-3.06.83.32-1.1.38-1.72.59-2.33,0,0,.05-.12.08-.18C12.85,94,14.57,94,14.6,94.2Z"/><polygon class="cls-16" points="13.67 88.94 12.51 88.39 12.51 89.6 12.51 89.62 12.51 89.66 13.76 90.04 13.67 88.94"/><polygon class="cls-18" points="13.67 88.94 12.51 88.39 12.51 89.6 12.51 89.62 12.51 89.66 13.76 90.04 13.67 88.94"/><path class="cls-19" d="M13.72,90l-.12-1.07-1-.54,0,1.15c0,.12,1.12.32,1.14.46"/><path class="cls-18" d="M13.72,90l-.12-1.07-1-.54,0,1.15C12.59,89.67,13.7,89.87,13.72,90Z"/><path class="cls-19" d="M13.72,90l-1.14-1.54,0,1.13c0,.12,1,.31,1.12.41"/><path class="cls-18" d="M13.72,90l-1.14-1.54,0,1.13C12.6,89.72,13.64,89.91,13.72,90Z"/><path class="cls-16" d="M13.73,89.57a.35.35,0,0,1,.35.35.34.34,0,0,1-.35.33.35.35,0,0,1-.34-.33.35.35,0,0,1,.34-.35"/><path class="cls-18" d="M13.73,89.57a.35.35,0,0,1,.35.35.34.34,0,0,1-.35.33.35.35,0,0,1-.34-.33A.35.35,0,0,1,13.73,89.57Z"/><path class="cls-19" d="M13.73,89.68a.24.24,0,0,1,.25.24.24.24,0,0,1-.25.23.23.23,0,0,1-.23-.23.23.23,0,0,1,.23-.24"/><path class="cls-18" d="M13.73,89.68a.24.24,0,0,1,.25.24.24.24,0,0,1-.25.23.23.23,0,0,1-.23-.23A.23.23,0,0,1,13.73,89.68Z"/><path class="cls-22" d="M15.36,106.69a4.41,4.41,0,0,0,.17,1.44,2.36,2.36,0,0,1,0,.53l.05.13s-.06.52-.06.52l0,.09c0,.21.09.52-.13.59m-1.06-4c.06.5.13,1.07.18,1.57s0,.93,0,1.39c0,.19.16.93-.19.82M12.63,105a15.29,15.29,0,0,0,0,2.14c0,.27-.19.69-.19,1v.62m.9-3.67a4.8,4.8,0,0,1,.16,2.87,3.13,3.13,0,0,0-.11.75v.79m-1.59-4.62c-.72.83-.48,3.49-.48,4.68m-.72-5.66a7.41,7.41,0,0,0-.19,2.74c0,.92,0,1.85,0,2.74m5-9.32s0,0,0,.08v.19s0,0,0,.07v.12s0,0,0,.09m-.24-.7c0,.12,0,.28,0,.42v.16h0m-.27-.72v.61m-.32-.75v.7m-.27-.78a6,6,0,0,1,0,.62m-.29-.71a3.38,3.38,0,0,0,0,.45v.2s0,.11,0,0m-.2-.67v.37c0,.1,0,.17,0,.28m-.23-.69v.19c0,.07,0,.15,0,.22V100m-.18-.65v.64h0m-.18-.7c0,.12,0,.26,0,.37v.3s0,0,0,0m-.22-.71v.62s0,.06,0,.07m-.19-.6c0-.12,0,0,0,0v.36s0,.11,0,.13v.09h0m-.65-.45v.1a1,1,0,0,0-.07.24s0,.11,0,.15,0,.19,0,.07m.57-.68c0-.12,0,0,0,0,0,.17,0,.39,0,.58M12,99.38a.52.52,0,0,0-.05.33v.15s0,.09-.07.11m-.22-.47c0,.1-.08.19-.08.3a1.06,1.06,0,0,0,0,.14s0,.07,0,.13m-.13-.42c0-.12,0,0,0,0a.16.16,0,0,1,0,.06s0,.12,0,.13,0,.12,0,.18,0,.07,0,.09a.35.35,0,0,0,0,.06s0,0,0,0m-.11-.43c-.07.06-.07.19-.07.28s0,.2,0,.28"/><path class="cls-18" d="M10.65,112.57a12.53,12.53,0,0,0,.19,2.64,3.88,3.88,0,0,1,.39,1.21,2.49,2.49,0,0,0,.19.46c0,.05.09.11.14.11s.2.12.2-.06m-.09-4c.26,1,.41,2.14.58,3.16a3.29,3.29,0,0,0,.48,1.1c.07.1.45.62.55.6m.26-4.82a11.3,11.3,0,0,0,.48,2.3c.09.25.16.68.24.92a4.34,4.34,0,0,1,.3.8,2.83,2.83,0,0,0,.17.74c0,.06.27.35.28.47s.15.23.12.05m-.55-4.18c.1.28.22.71.31,1s.48.71.59,1.07.48.7.6,1.06.33.83.44,1.18m-4-4.79a23.42,23.42,0,0,1,.58,2.41,2,2,0,0,0,.48.82c.07.09.46.49.54.48"/><path class="cls-16" d="M27.6,120.3l9.93-22.75,8.18-6.63-.29,22.69c-.07,5-5.49,12.51-17.82,6.69"/><path class="cls-17" d="M26.94,119.92,37.07,97.53,45.42,91l-.3,22.32c-.07,4.93-5.62,12.31-18.18,6.59"/><path class="cls-16" d="M41.7,94.07l4.06-3-.06-.18s-2.3,1.78-4.16,3c-.08.05.11,0,.16.19"/><path class="cls-18" d="M41.7,94.07l4.06-3-.06-.18s-2.3,1.78-4.16,3C41.46,93.93,41.65,93.9,41.7,94.07Z"/><path class="cls-16" d="M45.74,90.33l.82-.39v.88h0l-.87.27Z"/><path class="cls-18" d="M45.74,90.33l.82-.39v.88h0l-.87.27Z"/><path class="cls-19" d="M45.71,91.07l.08-.74.72-.39v.81c0,.08-.79.22-.8.32"/><path class="cls-18" d="M45.71,91.07l.08-.74.72-.39v.81C46.5,90.83,45.72,91,45.71,91.07Z"/><path class="cls-19" d="M45.71,91.07l.8-1.08v.81c0,.08-.74.21-.79.27"/><path class="cls-18" d="M45.71,91.07l.8-1.08v.81C46.5,90.88,45.76,91,45.71,91.07Z"/><path class="cls-16" d="M45.7,90.77a.24.24,0,1,0,0,.47.24.24,0,1,0,0-.47"/><path class="cls-18" d="M45.7,90.77a.24.24,0,1,0,0,.47.24.24,0,1,0,0-.47Z"/><path class="cls-19" d="M45.7,90.84a.16.16,0,0,0-.17.16.16.16,0,0,0,.17.17.17.17,0,0,0,.16-.17.17.17,0,0,0-.16-.16"/><path class="cls-18" d="M45.7,90.84a.16.16,0,0,0-.17.16.16.16,0,0,0,.17.17.17.17,0,0,0,.16-.17A.17.17,0,0,0,45.7,90.84Z"/><path class="cls-20" d="M45.26,104.69c-.55.47-1.58.2-1.69,1-.07.49-.75.46-.94.85-.51,1-1.39.59-1.65.92a2.14,2.14,0,0,1-1.78.9c-.68-.15-1.39.55-2,1-1.16.75-2.27.43-2.27,3,0,1-.07,2.32.28,2.8.68.93,1.94.81,3.24,1.09.24,0,1.37-1,2.42-.74.46.13,1-.2,1.52-.09a1.43,1.43,0,0,0,1.67-.56c.36-.74,1.1-.8,1.1-1.11,0-2,.12-7.21.14-9.12"/><path class="cls-18" d="M45.26,104.69c-.55.47-1.58.2-1.69,1-.07.49-.75.46-.94.85-.51,1-1.39.59-1.65.92a2.14,2.14,0,0,1-1.78.9c-.68-.15-1.39.55-2,1-1.16.75-2.27.43-2.27,3,0,1-.07,2.32.28,2.8.68.93,1.94.81,3.24,1.09.24,0,1.37-1,2.42-.74.46.13,1-.2,1.52-.09a1.43,1.43,0,0,0,1.67-.56c.36-.74,1.1-.8,1.1-1.11C45.12,111.77,45.24,106.6,45.26,104.69Z"/><path class="cls-16" d="M37.74,106.29c1.14-.87,5.72-2.66,6.37-4s-.47-3.07-.18-2.11c.39,1.18-3.78,2.9-4.92,3.39-.45.19-1.89.68-1.89,1.28,0,.09.14.54.14.67,0,.41.48.64.48.72"/><path class="cls-18" d="M37.74,106.29c1.14-.87,5.72-2.66,6.37-4s-.47-3.07-.18-2.11c.39,1.18-3.78,2.9-4.92,3.39-.45.19-1.89.68-1.89,1.28,0,.09.14.54.14.67C37.26,106,37.74,106.21,37.74,106.29Z"/><path class="cls-19" d="M37.45,106.12c1.16-.93,5.83-2.87,6.49-4.27s-.48-3.32-.17-2.28c.39,1.29-3.86,3.13-5,3.66-.45.21-1.92.73-1.92,1.37,0,.11.16.59.16.75,0,.43.48.67.48.77"/><path class="cls-18" d="M37.45,106.12c1.16-.93,5.83-2.87,6.49-4.27s-.48-3.32-.17-2.28c.39,1.29-3.86,3.13-5,3.66-.45.21-1.92.73-1.92,1.37,0,.11.16.59.16.75C37,105.78,37.45,106,37.45,106.12Z"/><path class="cls-17" d="M35.58,106.2c-.06-4.74-1-9.88-.38-11.86A46.44,46.44,0,0,0,41,90c.19-.18,2.27,8,2.94,9.83-.79,2.32-4.57,3.1-8.37,6.39"/><path class="cls-18" d="M35.58,106.2c-.06-4.74-1-9.88-.38-11.86A46.44,46.44,0,0,0,41,90c.19-.18,2.27,8,2.94,9.83C43.16,102.13,39.38,102.91,35.58,106.2Z"/><path class="cls-20" d="M37.53,96.68c.34-.14,1.12-.9,1.49-1.07.83-.37,2.55-1.89,2.93-1.53a4.43,4.43,0,0,1,1,2.58c.07.42-.31.43-.64.58a4.55,4.55,0,0,1-1.46.66c-1.58.2-2.45,1.4-3.27,1-.32-.15-.17-1.29-.56-1.48-.57-.28.24-.46.48-.78"/><path class="cls-18" d="M37.53,96.68c.34-.14,1.12-.9,1.49-1.07.83-.37,2.55-1.89,2.93-1.53a4.43,4.43,0,0,1,1,2.58c.07.42-.31.43-.64.58a4.55,4.55,0,0,1-1.46.66c-1.58.2-2.45,1.4-3.27,1-.32-.15-.17-1.29-.56-1.48C36.48,97.18,37.29,97,37.53,96.68Z"/><path class="cls-21" d="M35.35,100.33c0,.08,0,.25.18.45a.38.38,0,0,1-.25-.13.79.79,0,0,0,.23.35c-.06,0-.13,0-.21-.12V101c0,.07.06.18.09.26s.09.17.14.29a1,1,0,0,0,.07-.78c.09-.08,0-.24-.09-.37s.08.06.11.07a.93.93,0,0,0-.22-.54c-.12-.08-.22-.08-.3.07s0,.13.15.22.17.14.1.14"/><path class="cls-16" d="M41.08,90c-.92,2.62-1,7.2-1.7,10a6.06,6.06,0,0,1-.2.88,5.18,5.18,0,0,1,.55-.58c.62-.38,2.19-1.49,3.63-.77a1.5,1.5,0,0,1,.3.23l.2.18c.09-.19.1-.28-.09-.46-.18-.81-.39-1.69-.59-2.59l-.3-1.28c-.63-2.6-1.29-5-1.8-5.66"/><path class="cls-18" d="M41.08,90c-.92,2.62-1,7.2-1.7,10a6.06,6.06,0,0,1-.2.88,5.18,5.18,0,0,1,.55-.58c.62-.38,2.19-1.49,3.63-.77a1.5,1.5,0,0,1,.3.23l.2.18c.09-.19.1-.28-.09-.46-.18-.81-.39-1.69-.59-2.59l-.3-1.28C42.25,93.1,41.59,90.7,41.08,90Z"/><path class="cls-16" d="M35.48,94.34,41.26,90l-.08-.24c0-.05-3.28,2.53-5.93,4.34-.1.07.17,0,.23.24"/><path class="cls-18" d="M35.48,94.34,41.26,90l-.08-.24c0-.05-3.28,2.53-5.93,4.34C35.15,94.17,35.42,94.1,35.48,94.34ZM39,104.21v.31a.59.59,0,0,0,0,.15s0,.07,0,.11,0,.13,0,.18v.11c0,.07,0,.17-.05,0m-.53-.56v.31a.49.49,0,0,0,0,.14s.06.08.06.11,0,.13,0,.19,0,.09,0,.11,0,.16,0,0m-.61-.52c0,.08,0,.23,0,.31a.42.42,0,0,0,0,.14s0,.07,0,.11a.57.57,0,0,1,0,.19v.1c0,.07,0,.17,0,0m1.63-1.87s.1.07.09.13V104l0,0v.59h0v.15m.35-1.31a.85.85,0,0,1,.08.56.62.62,0,0,0,0,.22.83.83,0,0,1,.12.21l0,0c.07.08-.07,0,.29.06M41,103s0,.11,0,.16v0h0l0,.06v.33a.38.38,0,0,0,0,.1v.3c0,.08,0,.13-.05,0m.41-1.23s0,.09,0,.14V103l0,0v.74c0,.06,0,.12,0-.06m2.4-2.83a.32.32,0,0,0,.1.1l0,0v0l0,0v.08l0,0v0l0,0v0c0,.05,0,.1,0,.14s0,.06,0,.08v.25c0,.08,0,.08-.05,0m-.79-.27s.1,0,.1,0v.08l0,0v.09h0v.11l0,0v0s0,.07,0,.1,0,0,0,0v.24s0,0,0,.07m-2.92.89a.89.89,0,0,1,.08.56.82.82,0,0,0,0,.23.57.57,0,0,1,.12.19l0,0c.06.07-.08,0,.28.05m1.65-2.63a3.85,3.85,0,0,1,.09.62,2.91,2.91,0,0,1,0,.3v.15c0,.08,0,.15,0,0m-.6-.66a2,2,0,0,1,.12.68v.25c0,.07,0,.22,0,.22m-4.15,1.28s-.06.11-.06.13v.35l0,0v0l0,0v0s.07,0,.07.07,0,.09,0,.11,0,0,0,.07l0,0v.15m.82-1.67s.05.11.05.13v.1l0,0v0l0,0v0l0,0v.15a.18.18,0,0,1,0,.11v.28s0,.08,0,0m4.33-3.84a.76.76,0,0,1,.08.11l0,0v0l0,0v0l0,0v0l0,0v0l0,0v0s0,.1,0,.15,0,.06,0,.09V102c0,.08,0,.08,0,0m-.79-.2V102h0v.1h0l0,.06v0l0,.06v0s0,.05,0,.09v.1a.41.41,0,0,1,0,.09v.13h0c0,.08,0,.08-.06,0m-.56-.68s0,.11,0,.14v.09l0,0v0h0v.46s0,.07,0,.1v.13c0,.07,0,.12-.05-.06m-.88-.19,0,.09v.13h0v.08l0,0v.08s0,.1,0,.15v.26h0v0s0,.08,0,.08m.28-1.29s0,.1,0,.13v.17l0,0v.08h0V103a1.86,1.86,0,0,1,0,.22v.4m-4.47,1.24s0,.1,0,.14,0,.05,0,.06l0,0,0,0v0h0v0l0,0v0h0v0l0,0h0v0h0v.41a.49.49,0,0,1,0,.12m2.18-2.25c0,.05,0,.12,0,.18V104h0v.3c0,.06,0,0,0,.06v0l0,0v0h0s.07.13,0,0m.79-1.28v.14l0,0v.15c0,.05,0,.08,0,.12v.14s0,0,0,.07v.17m.28-1.12c.12,0,.1,0,.09.14,0,.33,0,.74,0,1.06m-.9-.58.07.12v.1l0,0V104s0,.07,0,.1v.35m-.91-.46s.1.08.1.12v.08l0,0v.08h0V105m-.91-.69v.31a1.16,1.16,0,0,0,0,.16s.06.06.06.11,0,.11,0,.18v.1c0,.07,0,.17,0,0m4.67-3.89.09.1,0,0v0l0,0v.06l0,0v0l0,0v0s0,.1,0,.15,0,.06,0,.08v.25c0,.07,0,.08,0,0"/><path class="cls-16" d="M44.26,101.08c0,.11-.19-.84-.28-1.17s-.86-1.14-1.25-1.14c-.2,0-.52,0-.76,0a2.58,2.58,0,0,0-2,1.06c-.1.08-.37.28-.39.43a5.4,5.4,0,0,0-.39.88c1.61-1.19,4.74-1.4,5.12,0"/><path class="cls-18" d="M44.26,101.08c0,.11-.19-.84-.28-1.17s-.86-1.14-1.25-1.14c-.2,0-.52,0-.76,0a2.58,2.58,0,0,0-2,1.06c-.1.08-.37.28-.39.43a5.4,5.4,0,0,0-.39.88C40.75,99.9,43.88,99.69,44.26,101.08Z"/><path class="cls-19" d="M44.26,100.9c0,.1-.19-.77-.28-1.07s-.86-1.06-1.25-1.06c-.2,0-.52,0-.76,0a2.68,2.68,0,0,0-2,1c-.1.09-.35.27-.39.39a7.64,7.64,0,0,0-.23.77c1.61-1.11,4.58-1.22,5,.05"/><path class="cls-18" d="M44.26,100.9c0,.1-.19-.77-.28-1.07s-.86-1.06-1.25-1.06c-.2,0-.52,0-.76,0a2.68,2.68,0,0,0-2,1c-.1.09-.35.27-.39.39a7.64,7.64,0,0,0-.23.77C40.91,99.74,43.88,99.63,44.26,100.9Z"/><path class="cls-17" d="M41.2,89.91c-.93,2.7-.92,7.43-1.72,10.16a4,4,0,0,1,4-.71,1.89,1.89,0,0,1,.55.45c-1.54-5.37-1.95-8-2.78-9.9"/><path class="cls-18" d="M41.2,89.91c-.93,2.7-.92,7.43-1.72,10.16a4,4,0,0,1,4-.71,1.89,1.89,0,0,1,.55.45C42.44,94.44,42,91.78,41.2,89.91Z"/><path class="cls-20" d="M40.32,94.27c-.07.53-.13,1.36-.17,2,0,.1,2.2-.48,3.07.84-.33-1.11-.39-1.74-.61-2.33a.36.36,0,0,0-.07-.18c-.48-.45-2.19-.51-2.22-.28"/><path class="cls-18" d="M40.32,94.27c-.07.53-.13,1.36-.17,2,0,.1,2.2-.48,3.07.84-.33-1.11-.39-1.74-.61-2.33a.36.36,0,0,0-.07-.18C42.06,94.1,40.35,94,40.32,94.27Z"/><polygon class="cls-16" points="41.25 89.02 42.4 88.47 42.41 89.68 42.4 89.69 42.4 89.75 41.15 90.13 41.25 89.02"/><polygon class="cls-18" points="41.25 89.02 42.4 88.47 42.41 89.68 42.4 89.69 42.4 89.75 41.15 90.13 41.25 89.02"/><path class="cls-19" d="M41.2,90.09,41.32,89l1-.54,0,1.14c0,.13-1.13.32-1.13.47"/><path class="cls-18" d="M41.2,90.09,41.32,89l1-.54,0,1.14C42.33,89.75,41.2,89.94,41.2,90.09Z"/><path class="cls-19" d="M41.2,90.09l1.13-1.55,0,1.14c0,.12-1,.3-1.11.41"/><path class="cls-18" d="M41.2,90.09l1.13-1.55,0,1.14C42.31,89.8,41.28,90,41.2,90.09Z"/><path class="cls-16" d="M41.18,89.66a.34.34,0,0,0-.35.33.34.34,0,0,0,.35.33.34.34,0,0,0,.34-.33.33.33,0,0,0-.34-.33"/><path class="cls-18" d="M41.18,89.66a.34.34,0,0,0-.35.33.34.34,0,0,0,.35.33.34.34,0,0,0,.34-.33A.33.33,0,0,0,41.18,89.66Z"/><path class="cls-19" d="M41.18,89.76a.24.24,0,1,0,.24.23.23.23,0,0,0-.24-.23"/><path class="cls-18" d="M41.18,89.76a.24.24,0,1,0,.24.23A.23.23,0,0,0,41.18,89.76ZM39.6,100.07c0,.06,0,.06,0,.1v.18s0,.05,0,.08v.12s0,0,0,.08m.23-.69a2.83,2.83,0,0,1,0,.41v.17h0m.27-.72v.61m.32-.75v.69m.26-.78c0,.19,0,.49,0,.64m.28-.72a3.38,3.38,0,0,1,0,.45v.2s0,.1,0,0m.22-.69v.37c0,.09,0,.16,0,.26m.23-.67v.19c0,.07,0,.15,0,.22V100m.2-.67V100h0m.19-.69c0,.12,0,.25,0,.37v.3s0,.05,0,0m.23-.7v.63s0,0,0,.06m.2-.6c0-.12,0,0,0,0v.35s0,.12,0,.14,0,0,0,0,0,0,0,0v0m.64-.46v.1a1.26,1.26,0,0,1,.07.25s0,.11,0,.16,0,.18,0,.06m-.58-.69c0-.11,0,0,0,0,0,.18,0,.39,0,.57m.23-.55a.59.59,0,0,1,.06.33v.15s0,.1,0,.12m.22-.49c0,.11.09.2.09.31a1.3,1.3,0,0,1,0,.13s0,.08,0,.14m.12-.42c0-.11,0,0,0,0l0,.06s0,.12,0,.14,0,.11,0,.17a.22.22,0,0,0,0,.09v0s0,.06,0,0m.12-.43c.07.06.07.18.07.28s0,.19,0,.28m.46,3.53a7.43,7.43,0,0,1,.18,2.74c0,.93.05,1.86.05,2.75m-5-2.63a5,5,0,0,1-.17,1.42,2.44,2.44,0,0,0,0,.54l0,.14a3.58,3.58,0,0,0,.06.51l0,.1c0,.2-.09.51.14.57m1.06-4c-.06.5-.13,1-.2,1.56s0,1,0,1.4c0,.19-.18.93.18.81m1.71-4.81a13.88,13.88,0,0,1,.06,2.14c0,.27.18.7.18,1v.61m-.9-3.68a4.94,4.94,0,0,0-.15,2.89,2.94,2.94,0,0,1,.1.74v.79m1.59-4.63c.72.84.49,3.49.49,4.69m.62,3a10.85,10.85,0,0,1-.2,2.65,4.22,4.22,0,0,0-.37,1.21,3.35,3.35,0,0,1-.19.45c0,.07-.1.11-.15.11s-.19.13-.19,0m.09-4c-.27,1-.42,2.16-.59,3.18a3.09,3.09,0,0,1-.48,1.08c-.06.1-.44.62-.54.62m-.27-4.83a10.67,10.67,0,0,1-.48,2.3c-.09.24-.15.69-.25.93a4.36,4.36,0,0,0-.28.79,3.46,3.46,0,0,1-.18.74c0,.06-.26.34-.28.47s-.15.23-.11,0m.54-4.17c-.08.29-.22.71-.31,1s-.48.71-.59,1.07-.48.69-.59,1-.32.84-.44,1.19m4-4.78a22.28,22.28,0,0,0-.59,2.41,2.33,2.33,0,0,1-.47.82c-.07.08-.45.48-.55.47"/><path class="cls-16" d="M27.5,121.6c.27-.33.66-.81-.13-1-.54.21-.1.68.13,1m1-3.34a28.63,28.63,0,0,0,1.3,2.83c.06.14.14.29.06.41-.53.72.45,1.1.37,1.24s.16.16.2.3c.1.34-.31.29-.64.28s.55,1.28.43,1.25c-1.08-.27-2.6-.06-2.63-1,0-.43.58-.66.51-1,0,0-.29,0-.51,0a.35.35,0,0,1-.15-.07l-.05,0c-.23.06-.51,0-.53,0-.06.34.51.57.51,1,0,1-1.54.77-2.63,1-.11,0,.8-1.26.44-1.25s-.73.07-.63-.27c0-.14.27-.16.19-.31s.89-.52.37-1.23c-.09-.13,0-.28.06-.42a27.58,27.58,0,0,0,1.3-2.83c.22,0,.45-.34.49-.38.28-.35.2-.32.19,0a2.8,2.8,0,0,0,.35,1.12,2.78,2.78,0,0,0,.33-1.06c0-.29-.1-.31.18,0,0,0,.27.42.49.39"/><path class="cls-18" d="M27.5,121.6c.27-.33.66-.81-.13-1C26.83,120.84,27.27,121.31,27.5,121.6Zm1-3.34a28.63,28.63,0,0,0,1.3,2.83c.06.14.14.29.06.41-.53.72.45,1.1.37,1.24s.16.16.2.3c.1.34-.31.29-.64.28s.55,1.28.43,1.25c-1.08-.27-2.6-.06-2.63-1,0-.43.58-.66.51-1,0,0-.29,0-.51,0a.35.35,0,0,1-.15-.07l-.05,0c-.23.06-.51,0-.53,0-.06.34.51.57.51,1,0,1-1.54.77-2.63,1-.11,0,.8-1.26.44-1.25s-.73.07-.63-.27c0-.14.27-.16.19-.31s.89-.52.37-1.23c-.09-.13,0-.28.06-.42a27.58,27.58,0,0,0,1.3-2.83c.22,0,.45-.34.49-.38.28-.35.2-.32.19,0a2.8,2.8,0,0,0,.35,1.12,2.78,2.78,0,0,0,.33-1.06c0-.29-.1-.31.18,0C28,117.92,28.27,118.29,28.49,118.26Z"/><path class="cls-17" d="M26.53,118.41a28.26,28.26,0,0,1-1.23,2.74c-.05.13-.14.28-.05.4.5.69-.42,1.06-.36,1.19s-.14.16-.17.3c-.09.33.29.27.6.27s-.52,1.24-.41,1.2c1-.26,2.44-.05,2.47-1,0-.42-.55-.63-.48-1,0-.06.27,0,.49,0a.33.33,0,0,0,.24-.35,1.14,1.14,0,0,0,0-.27c-.05-.27-1.1-1.06.11-1.22.1,0,.44.16.44.07-.05-.76-1-2-1-2.74,0-.28.08-.29-.17,0,0,0-.25.42-.46.38"/><path class="cls-18" d="M26.53,118.41a28.26,28.26,0,0,1-1.23,2.74c-.05.13-.14.28-.05.4.5.69-.42,1.06-.36,1.19s-.14.16-.17.3c-.09.33.29.27.6.27s-.52,1.24-.41,1.2c1-.25,2.44-.06,2.47-1,0-.42-.55-.63-.48-1,0-.06.27,0,.49,0a.33.33,0,0,0,.24-.35,1.14,1.14,0,0,0,0-.27c-.05-.27-1.1-1.06.11-1.22.1,0,.44.16.44.07-.05-.76-1-2-1-2.74,0-.28.08-.29-.17,0C27,118.07,26.74,118.45,26.53,118.41Zm-1.62,6.1c1.24-.14,2.24-.29,2.41-.65.46-1-2.61-.38-2.63-.61,0-1.37,2.86-.33,2.94-.9.16-1.11-2.4-.44-2.38-.8.08-1.4,3.07-.82,2.75-.76"/><path class="cls-17" d="M28.43,118.46a28.26,28.26,0,0,0,1.23,2.74c.05.13.13.29.05.4-.5.7.42,1.06.36,1.19s.14.17.17.31c.09.33-.28.26-.59.26s.51,1.24.4,1.21c-1-.26-2.44-.06-2.47-1,0-.42.54-.65.48-1,0,0-.27,0-.48,0a.33.33,0,0,1-.25-.35,1.23,1.23,0,0,1,0-.27c0-.26,1.11-1.06-.11-1.21-.09,0-.44.14-.44.07.05-.77,1-2,1-2.75,0-.28-.08-.29.17,0,0,0,.26.4.46.36"/><path class="cls-18" d="M28.43,118.46a28.26,28.26,0,0,0,1.23,2.74c.05.13.13.29.05.4-.5.7.42,1.06.36,1.19s.14.17.17.31c.09.33-.28.26-.59.26s.51,1.24.4,1.21c-1-.26-2.44-.06-2.47-1,0-.42.54-.65.48-1,0,0-.27,0-.48,0a.33.33,0,0,1-.25-.35,1.23,1.23,0,0,1,0-.27c0-.26,1.11-1.06-.11-1.21-.09,0-.44.14-.44.07.05-.77,1-2,1-2.75,0-.28-.08-.29.17,0C28,118.14,28.23,118.5,28.43,118.46ZM30,124.57c-1.24-.14-2.24-.3-2.4-.66-.46-1,2.61-.38,2.62-.6,0-1.36-2.85-.34-2.93-.91-.16-1.11,2.4-.44,2.38-.8-.08-1.41-3.07-.81-2.76-.76"/><path class="cls-16" d="M27.49,120.24a3,3,0,0,0-1.95-1.12c-2.06-.29-4.07,0-6-.79-1.25-.54-4.27-2.41-3.94-5.85.38-4,2.07-5.25,2.25-9.69a7.16,7.16,0,0,0-2-4.42c1.19-1.28,2.6-3,3.78-4.3,2.4,1.9,5.55,1.3,7.83,0,2.29,1.31,5.43,1.89,7.82,0,1.2,1.27,2.6,3,3.79,4.31a7.15,7.15,0,0,0-2,4.41c.18,4.44,1.86,5.65,2.25,9.69.33,3.45-2.7,5.32-3.94,5.86-1.93.82-4,.5-6,.78a3.08,3.08,0,0,0-2,1.12"/><path class="cls-18" d="M27.49,120.24a3,3,0,0,0-1.95-1.12c-2.06-.29-4.07,0-6-.79-1.25-.54-4.27-2.41-3.94-5.85.38-4,2.07-5.25,2.25-9.69a7.16,7.16,0,0,0-2-4.42c1.19-1.28,2.6-3,3.78-4.3,2.4,1.9,5.55,1.3,7.83,0,2.29,1.31,5.43,1.89,7.82,0,1.2,1.27,2.6,3,3.79,4.31a7.15,7.15,0,0,0-2,4.41c.18,4.44,1.86,5.65,2.25,9.69.33,3.45-2.7,5.32-3.94,5.86-1.93.82-4,.5-6,.78A3.08,3.08,0,0,0,27.49,120.24Z"/><path class="cls-20" d="M28,106.7V95.43c2.23.95,4.51,1.33,7,0,1.12,1.2,1.81,1.86,2.92,3.07a7.08,7.08,0,0,0-1.58,4.66A12.84,12.84,0,0,0,37,106.7Z"/><path class="cls-23" d="M18.2,106.7a10.22,10.22,0,0,0,.62-3.6c0-1.39-.5-3.79-1.67-4.8,1.1-1.21,1.64-1.86,2.75-3,2.06,1.64,5,1.1,7.14,0V106.7Z"/><path class="cls-19" d="M37.38,107.3H17.77a15.87,15.87,0,0,0-1.47,4.86c-.31,3.25,2.54,5,3.71,5.5,1.82.78,3.72.47,5.64.75a2.75,2.75,0,0,1,1.84,1,2.84,2.84,0,0,1,1.83-1c1.95-.27,3.84,0,5.64-.74,1.19-.51,4-2.26,3.72-5.5a18.16,18.16,0,0,0-1.3-4.87m-9.6-.43h9.46a10.13,10.13,0,0,1-.68-3.82c0-1.4.44-3.56,1.62-4.58-1.11-1.21-2.06-2.19-3.17-3.41-2.25,1.54-5.1,1.08-7.23,0Zm-9.85,0h9.31V95c-2.14,1.13-5.23,1.71-7.38,0l-3.08,3.34A7.09,7.09,0,0,1,18.59,103a10.81,10.81,0,0,1-.66,3.83M27.49,120a3,3,0,0,0-1.93-1c-2-.28-4,.06-5.93-.77-1.23-.53-4.23-2.39-3.89-5.78.37-4,2-5.19,2.22-9.58-.19-1.46-.6-3.4-1.84-4.49,1.18-1.28,2.41-2.78,3.6-4.06,2.35,1.88,5.51,1.23,7.77-.06,2.27,1.29,5.45,2,7.81.1,1.18,1.26,2.44,2.76,3.61,4A7.27,7.27,0,0,0,37,102.84c.18,4.39,1.85,5.59,2.23,9.59.32,3.39-2.66,5.24-3.9,5.78-1.9.82-3.89.49-5.92.77a2.94,2.94,0,0,0-1.94,1"/><path class="cls-17" d="M27.49,119.25a2.72,2.72,0,0,0-1.81-1c-1.91-.26-3.79,0-5.58-.74-1.15-.49-3.9-2.24-3.59-5.43a14.73,14.73,0,0,1,1.4-4.67l19.33,0a17.82,17.82,0,0,1,1.23,4.65c.3,3.2-2.43,5-3.6,5.44-1.78.77-3.65.47-5.55.74a2.71,2.71,0,0,0-1.83,1"/><path class="cls-16" d="M29,108.85c.49.16,1,.36,1,.79a1.08,1.08,0,0,1,.94.87c.38.18.58.25.62.53a.66.66,0,0,1,.55.43.86.86,0,0,1,.8.43.6.6,0,0,1,.61.13c.22-.06.44-.17.7,0l.3,0a.71.71,0,0,1,.57-.3.3.3,0,0,1,.16-.35c-.1-.18-.18-.36,0-.56-.11-.11-.12-.26,0-.45a.35.35,0,0,1-.12-.38.44.44,0,0,1-.31-.31c-.28,0-.42-.14-.48-.25a.35.35,0,0,1-.28,0c-.1.13-.22.12-.35.13a.74.74,0,0,1-.37.35,1,1,0,0,0,0,.25c.23-.09.48.28.33.52s-.57.33-.65,0a.62.62,0,0,1-.43-.34c-.09-.22-.15-.3,0-.46-.15-.26,0-.49.21-.67s.3-.4.53-.37c.14-.18.19-.35.58-.31a.72.72,0,0,1,.82,0,.58.58,0,0,1,.62.26c.2.09.43.15.48.45.23.14.51.22.42.6a1,1,0,0,1,.36.79,1.06,1.06,0,0,1,0,.7.93.93,0,0,1,0,.75.9.9,0,0,1-.36.88,1,1,0,0,1-.73.81c-.31.56-.67.69-1.06.59a1,1,0,0,1-1,.3c-.43.21-.85.4-1.1.18a1.32,1.32,0,0,1-1.39,0,1.07,1.07,0,0,1-1.26-.43.91.91,0,0,1-1-.33c-.6.25-1.1.29-1.43-.06a.43.43,0,0,1-.33.1,1,1,0,0,1,.1,1.12,1,1,0,0,1,.89.24.87.87,0,0,1,1.34.27c.92-.35,1.26-.08,1.45.61a.6.6,0,0,1,.62-.12c.37-.62.94-.42,1.21.09s-.32,1.15-1,1a.81.81,0,0,1-.87.15,1.31,1.31,0,0,1-1.14-.12,1,1,0,0,1-1.1.23c-.55,1-1.08.62-1.63.31-.41.21-.74,0-1.08-.22a.74.74,0,0,1-.7.36.64.64,0,0,1-.56-.22,1.06,1.06,0,0,1-1.33-.1.78.78,0,0,1-1-.51.62.62,0,0,1-.45,0,.84.84,0,0,1-1.49-.6c-.34,0-.68,0-.9-.64-.06-.17,0-.29.08-.46-.39-.24-.53-.44-.33-1-.41-.2-.59-.59-.25-1.2a1.24,1.24,0,0,1,.26-1.72,2.4,2.4,0,0,1,1.16-.71c0-.47.22-.84,1-1a1.15,1.15,0,0,1,1.22-1,1.31,1.31,0,0,1,1.46-.52c.2-.34.64-.48,1.65-.15a1.32,1.32,0,0,1,1.64.18c.25-.3,1.24,0,1.56.46"/><path class="cls-24" d="M19.2,113.2l.23,0c-.2-.45.1-.85.7-.87a3.28,3.28,0,0,1,2,.93,6.19,6.19,0,0,0,2,1.07,20,20,0,0,1,2.31.49c.34.17.29.39.21.81a.73.73,0,0,0,.47-.6c-.05-.62-.47-1.13-1.51-1.48a3.61,3.61,0,0,1-2.62-.86,3.22,3.22,0,0,0-1.7-1.41,1.82,1.82,0,0,0-1.49.15c-.7.36-.77.75-.76,1.12s.1.45.16.67m4.74-.23c-.68-.65-.37-1-1-2s-2.11-1.33-2.3-.07c1.92.14,1.83,1,2.8,1.72.21,0,.56.26.53.33m1.11.28c-.75-.66-.75-2.27-1.32-3.24s-1.6-1.27-2.11,0c2.17.48,1.49,2.12,2.72,3a2.77,2.77,0,0,0,.71.23m.5,0c-.48-.79-.24-2.49-.57-3.58-.21-.73-1.44-1.65-2.24-.58,2.08.49,1.15,2.55,2.53,4.15.21.07.32,0,.28,0m.57.15c-.44-.92.09-2.59.15-3.7,0-.74-1-2-2-1.2,1.91,1,.68,2.85,1.59,4.83.2.13.33,0,.28.07m.42.2c-.29-.94.79-2.51,1-3.73A1.19,1.19,0,0,0,26,108.42c1.22,1.26-.31,3.72.24,5,.14.13.36.11.29.16m.36.11c.13-.87,1.51-2.51,1.87-3.72.23-.77.05-1.48-1.16-1.34.9,1.49-1.17,3.58-.94,4.94-.06.12.31,0,.23.12m.2,0c.74,1,4.15-4,2-4.63a4,4,0,0,1-.74,2.44c-.54.91-1.26,1.49-1.26,2.19m.64.16c1.44.84,4.21-3.43,2.25-4,.29,1.21-1.65,4-2.25,4m1.26,0c1.07.83,2.15-.31,2.33-1.68A1.51,1.51,0,0,0,31,110.8a4.71,4.71,0,0,1-2,3.09m1.23.45c1,.83,1.82-.41,1.9-1.54,0-.75-.11-1.41-.57-1.47.16,1.17-.53,2.79-1.33,3m1.12.32c1.08.67,1.64-.66,1.63-1.6,0-.74-.6-1.27-.76-1.2.38,1-.24,2.73-.87,2.8m1.35-.06c1,.38,1.55-1.15,1-2-.29-.43-.52-.45-.68-.39a2.33,2.33,0,0,1-.32,2.35m1.13-.09c.82.12,1-1.09.64-1.71-.29-.45-.53-.47-.69-.39a2,2,0,0,1,0,2.1m.91-.37c.81.12.83-.88.43-1.52-.29-.44-.52-.46-.69-.38a2.45,2.45,0,0,1,.26,1.9m.9-.52a.9.9,0,0,0,.08-1.53c-.45-.34-.71-.3-.93,0a1.49,1.49,0,0,1,.85,1.56m.63-.81a.72.72,0,0,0,0-1.13.67.67,0,0,0-1,0c.44,0,1.15.75,1,1.13m.34-1a.49.49,0,0,0-.43-.67c-.45-.06-.56.06-.59.25a1,1,0,0,1,1,.42m-2.71-3.1c-.14,0-.48.12-.36.49a.3.3,0,0,0,.52.14.57.57,0,0,1-.16-.63m.7-.08c-.13,0-.47-.11-.55.28a.3.3,0,0,0,.38.39.6.6,0,0,1,.17-.67m.69.22a.46.46,0,0,0-.71.1.33.33,0,0,0,.27.54.76.76,0,0,1,.44-.64m.49.39a.4.4,0,0,0-.65,0,.31.31,0,0,0,.11.5c0-.2.24-.49.54-.53m.41.65a.37.37,0,0,0-.6-.31c-.39.21-.26.56-.14.56,0-.21.41-.35.74-.25m.28.61c0-.22-.19-.49-.64-.33s-.47.52-.35.53c0-.21.66-.3,1-.2m.12.58a.56.56,0,0,0-.76-.45c-.42.16-.44.33-.37.52a.94.94,0,0,1,1.13-.07m-3.38-.93a.54.54,0,0,1-.47-.06c0,.18.15.47.38.4s.19-.23.09-.34m.06-.36c-.18,0-.32-.12-.38-.31-.07.17-.19.36,0,.48s.32.11.38-.17m0-.76a.31.31,0,0,0-.23.42c.09.25.31.24.49.1a.59.59,0,0,1-.26-.52m.11,1.31c0,.09-.13.24-.24.25a.25.25,0,0,0,.43.11c.14-.24,0-.4-.19-.36"/><path class="cls-24" d="M27.58,116.54a.62.62,0,0,1-.6.42.57.57,0,0,1-.67-.42h0a.57.57,0,0,0,.35-.45h0a.83.83,0,0,0,.88.45Zm-.47,1.14,0,0a.72.72,0,0,1-.87,0,.44.44,0,0,1,.06-.67.85.85,0,0,0,.82.08.57.57,0,0,0-.05.41.87.87,0,0,0,.07.17m-2.44-.54a.61.61,0,0,1-.48.66.51.51,0,0,1-.65-.39.55.55,0,0,1,0-.22.72.72,0,0,0,.43-.25.91.91,0,0,0,.54.1l.11,0a.53.53,0,0,1,0,.12m1.23.37a.75.75,0,0,1-.84.27.4.4,0,0,1-.17-.55.84.84,0,0,0,.68.17.63.63,0,0,0,.45-.26.49.49,0,0,1-.12.37m-1-1.24a.58.58,0,0,1,0,.47c-.16.24-.5.24-.78,0a.82.82,0,0,1-.27-.62.39.39,0,0,0,.14-.3l0,0a.69.69,0,0,0,.76.53.31.31,0,0,0,.17,0m1.08.64a.75.75,0,0,1-.84.28.43.43,0,0,1-.09-.69.67.67,0,0,1,.22-.19.86.86,0,0,0,.78.28h.06a.59.59,0,0,1-.13.32m6.59-.41a.46.46,0,0,1-.4.58.31.31,0,0,1-.23,0,.51.51,0,0,0,0-.3.73.73,0,0,0-.37-.44.46.46,0,0,1,.34-.23.6.6,0,0,1,.66.41m-.82.26a.46.46,0,0,1-.38.59.59.59,0,0,1-.37-.07.57.57,0,0,0,.15-.57.63.63,0,0,0-.19-.32l.14,0a.59.59,0,0,1,.65.41m-.81,0a.47.47,0,0,1-.39.6.6.6,0,0,1-.68-.43s0,0,0-.06a.86.86,0,0,0,.36,0,.62.62,0,0,0,.54-.42.57.57,0,0,1,.19.29m-1.24.13a.43.43,0,0,1-.38.52.48.48,0,0,1-.47-.16.57.57,0,0,0,.15-.56.84.84,0,0,0-.06-.14.33.33,0,0,1,.14,0,.61.61,0,0,1,.27,0,.78.78,0,0,0,.3.24l.05.12m-1.3.57a.5.5,0,0,1-.47.52.71.71,0,0,1-.76-.42.46.46,0,0,1,.39-.56.9.9,0,0,0,.84.46m.41-.72a.46.46,0,0,1-.39.58.6.6,0,0,1-.68-.42.48.48,0,0,1,.29-.57.76.76,0,0,0,.78.41m-.89-.45a.54.54,0,0,1-.34.2.66.66,0,0,1-.73-.45.51.51,0,0,1,.43-.65.7.7,0,0,1,.63.26.52.52,0,0,0-.09.44.62.62,0,0,0,.1.2m-4.18-.71a.45.45,0,0,1-.43.55.68.68,0,0,1-.73-.4.24.24,0,0,1,0-.22l.12.09a.77.77,0,0,0,.92,0,.53.53,0,0,0,.06-.1l0,.08m.11,1.23a.48.48,0,0,1-.31.26.58.58,0,0,1-.68-.32.42.42,0,0,1,0-.38.71.71,0,0,0,.36,0,.56.56,0,0,0,.28-.22.4.4,0,0,0,0,.34.58.58,0,0,0,.33.3m-.43.33a.35.35,0,0,1-.06.24.53.53,0,0,1-.81-.6.33.33,0,0,1,.22-.11.33.33,0,0,0,0,.22.44.44,0,0,0,.5.32.38.38,0,0,0,.17-.07m7.15-1a.47.47,0,0,1-.39.58.57.57,0,0,1-.64-.41.45.45,0,0,1,.39-.57.57.57,0,0,1,.64.4m-1.41-.2a.45.45,0,0,1-.39.58.59.59,0,0,1-.65-.41.46.46,0,0,1,.39-.58.59.59,0,0,1,.65.41m-7.87-.84a.4.4,0,0,1,0,.4.56.56,0,0,1-.75,0,.5.5,0,0,1-.19-.69.41.41,0,0,1,.37-.15.72.72,0,0,0,.6.45Zm-.84-1.79a.56.56,0,0,1,.5.46.41.41,0,0,0-.24.36.3.3,0,0,0,0,.13.54.54,0,0,1-.28.08.61.61,0,0,1-.55-.57.51.51,0,0,1,.55-.46m-.81,0a.57.57,0,0,1,.29.08.46.46,0,0,0-.22.37.65.65,0,0,0,.3.5.57.57,0,0,1-.37.13.65.65,0,0,1-.57-.61.53.53,0,0,1,.57-.47m1.67,2.27a.58.58,0,0,1,.21.31.53.53,0,0,1-.36.67.73.73,0,0,1-.77-.45.45.45,0,0,1,0-.34h0a.71.71,0,0,0,.86-.2m.76-.94a.55.55,0,0,1,.28.09.55.55,0,0,0,.19.72.57.57,0,0,1-.47.26.64.64,0,0,1-.59-.59h0a.53.53,0,0,0,.53-.48Zm-.31,2.45a.63.63,0,0,1-.5.25.74.74,0,0,1-.66-.67.2.2,0,0,1,0-.09.64.64,0,0,0,.46.23.84.84,0,0,0,.3-.08.78.78,0,0,0,.38.36m-.1-.78s0,0,0,0a.51.51,0,0,1-.22.32.58.58,0,0,0,.2-.35m-1.35-1.79a.49.49,0,0,0-.25.42.76.76,0,0,0,.22.5l-.16,0a.77.77,0,0,1-.67-.7.46.46,0,0,1,.06-.23.39.39,0,0,0,.15,0,.61.61,0,0,0,.4-.14.71.71,0,0,0,.25.11m.15,1.18a.47.47,0,0,0-.23.41.53.53,0,0,0,.11.3h-.05a.68.68,0,0,1-.6-.59.38.38,0,0,1,.14-.31.56.56,0,0,0,.32.09h.14a.45.45,0,0,0,.17.11m1.54.22a.56.56,0,0,1,.55.54A.52.52,0,0,1,22,117a.63.63,0,0,1-.52-.34.47.47,0,0,0,.28-.43.36.36,0,0,0,0-.2.92.92,0,0,1,.28,0m-.55-2.19a.66.66,0,0,1,.6.66.59.59,0,0,1-.6.58.76.76,0,0,1-.68-.69.64.64,0,0,1,.68-.55m4.71,1.82a.55.55,0,0,1,.22.74.62.62,0,0,1-.81,0,.55.55,0,0,1-.21-.74.58.58,0,0,1,.8,0m-1.36-.35A.57.57,0,0,1,25,116c-.13.2-.45.2-.71,0a.59.59,0,0,1-.19-.74.5.5,0,0,1,.72,0m-1.44-.73a.64.64,0,0,1,.24.86.69.69,0,0,1-.92,0,.64.64,0,0,1-.25-.86.71.71,0,0,1,.93,0"/><path class="cls-18" d="M27.58,116.54a.62.62,0,0,1-.6.42.57.57,0,0,1-.67-.42h0a.57.57,0,0,0,.35-.45h0a.83.83,0,0,0,.88.45Zm-.47,1.14,0,0a.72.72,0,0,1-.87,0,.44.44,0,0,1,.06-.67.85.85,0,0,0,.82.08.57.57,0,0,0-.05.41A.87.87,0,0,0,27.11,117.68Zm-2.44-.54a.61.61,0,0,1-.48.66.51.51,0,0,1-.65-.39.55.55,0,0,1,0-.22.72.72,0,0,0,.43-.25.91.91,0,0,0,.54.1l.11,0A.53.53,0,0,1,24.67,117.14Zm1.23.37a.75.75,0,0,1-.84.27.4.4,0,0,1-.17-.55.84.84,0,0,0,.68.17.63.63,0,0,0,.45-.26A.49.49,0,0,1,25.9,117.51Zm-1-1.24a.58.58,0,0,1,0,.47c-.16.24-.5.24-.78,0a.82.82,0,0,1-.27-.62.39.39,0,0,0,.14-.3l0,0a.69.69,0,0,0,.76.53A.31.31,0,0,0,24.9,116.27Zm1.08.64a.75.75,0,0,1-.84.28.43.43,0,0,1-.09-.69.67.67,0,0,1,.22-.19.86.86,0,0,0,.78.28h.06A.59.59,0,0,1,26,116.91Zm6.59-.41a.46.46,0,0,1-.4.58.31.31,0,0,1-.23,0,.51.51,0,0,0,0-.3.73.73,0,0,0-.37-.44.46.46,0,0,1,.34-.23A.6.6,0,0,1,32.57,116.5Zm-.82.26a.46.46,0,0,1-.38.59.59.59,0,0,1-.37-.07.57.57,0,0,0,.15-.57.63.63,0,0,0-.19-.32l.14,0A.59.59,0,0,1,31.75,116.76Zm-.81,0a.47.47,0,0,1-.39.6.6.6,0,0,1-.68-.43s0,0,0-.06a.86.86,0,0,0,.36,0,.62.62,0,0,0,.54-.42A.57.57,0,0,1,30.94,116.75Zm-1.24.13a.43.43,0,0,1-.38.52.48.48,0,0,1-.47-.16.57.57,0,0,0,.15-.56.84.84,0,0,0-.06-.14.33.33,0,0,1,.14,0,.61.61,0,0,1,.27,0,.78.78,0,0,0,.3.24Zm-1.3.57a.5.5,0,0,1-.47.52.71.71,0,0,1-.76-.42.46.46,0,0,1,.39-.56A.9.9,0,0,0,28.4,117.45Zm.41-.72a.46.46,0,0,1-.39.58.6.6,0,0,1-.68-.42.48.48,0,0,1,.29-.57A.76.76,0,0,0,28.81,116.73Zm-.89-.45a.54.54,0,0,1-.34.2.66.66,0,0,1-.73-.45.51.51,0,0,1,.43-.65.7.7,0,0,1,.63.26.52.52,0,0,0-.09.44A.62.62,0,0,0,27.92,116.28Zm-4.18-.71a.45.45,0,0,1-.43.55.68.68,0,0,1-.73-.4.24.24,0,0,1,0-.22l.12.09a.77.77,0,0,0,.92,0,.53.53,0,0,0,.06-.1Zm.11,1.23a.48.48,0,0,1-.31.26.58.58,0,0,1-.68-.32.42.42,0,0,1,0-.38.71.71,0,0,0,.36,0,.56.56,0,0,0,.28-.22.4.4,0,0,0,0,.34A.58.58,0,0,0,23.85,116.8Zm-.43.33a.35.35,0,0,1-.06.24.53.53,0,0,1-.81-.6.33.33,0,0,1,.22-.11.33.33,0,0,0,0,.22.44.44,0,0,0,.5.32A.38.38,0,0,0,23.42,117.13Zm7.15-1a.47.47,0,0,1-.39.58.57.57,0,0,1-.64-.41.45.45,0,0,1,.39-.57A.57.57,0,0,1,30.57,116.1Zm-1.41-.2a.45.45,0,0,1-.39.58.59.59,0,0,1-.65-.41.46.46,0,0,1,.39-.58A.59.59,0,0,1,29.16,115.9Zm-7.87-.84a.4.4,0,0,1,0,.4.56.56,0,0,1-.75,0,.5.5,0,0,1-.19-.69.41.41,0,0,1,.37-.15.72.72,0,0,0,.6.45Zm-.84-1.79a.56.56,0,0,1,.5.46.41.41,0,0,0-.24.36.3.3,0,0,0,0,.13.54.54,0,0,1-.28.08.61.61,0,0,1-.55-.57A.51.51,0,0,1,20.45,113.27Zm-.81,0a.57.57,0,0,1,.29.08.46.46,0,0,0-.22.37.65.65,0,0,0,.3.5.57.57,0,0,1-.37.13.65.65,0,0,1-.57-.61A.53.53,0,0,1,19.64,113.32Zm1.67,2.27a.58.58,0,0,1,.21.31.53.53,0,0,1-.36.67.73.73,0,0,1-.77-.45.45.45,0,0,1,0-.34h0A.71.71,0,0,0,21.31,115.59Zm.76-.94a.55.55,0,0,1,.28.09.55.55,0,0,0,.19.72.57.57,0,0,1-.47.26.64.64,0,0,1-.59-.59h0a.53.53,0,0,0,.53-.48Zm-.31,2.45a.63.63,0,0,1-.5.25.74.74,0,0,1-.66-.67.2.2,0,0,1,0-.09.64.64,0,0,0,.46.23.84.84,0,0,0,.3-.08A.78.78,0,0,0,21.76,117.1Zm-.1-.78s0,0,0,0a.51.51,0,0,1-.22.32A.58.58,0,0,0,21.66,116.32Zm-1.35-1.79a.49.49,0,0,0-.25.42.76.76,0,0,0,.22.5l-.16,0a.77.77,0,0,1-.67-.7.46.46,0,0,1,.06-.23.39.39,0,0,0,.15,0,.61.61,0,0,0,.4-.14A.71.71,0,0,0,20.31,114.53Zm.15,1.18a.47.47,0,0,0-.23.41.53.53,0,0,0,.11.3h-.05a.68.68,0,0,1-.6-.59.38.38,0,0,1,.14-.31.56.56,0,0,0,.32.09h.14A.45.45,0,0,0,20.46,115.71Zm1.54.22a.56.56,0,0,1,.55.54A.52.52,0,0,1,22,117a.63.63,0,0,1-.52-.34.47.47,0,0,0,.28-.43.36.36,0,0,0,0-.2A.92.92,0,0,1,22,115.93Zm-.55-2.19a.66.66,0,0,1,.6.66.59.59,0,0,1-.6.58.76.76,0,0,1-.68-.69A.64.64,0,0,1,21.45,113.74Zm4.71,1.82a.55.55,0,0,1,.22.74.62.62,0,0,1-.81,0,.55.55,0,0,1-.21-.74A.58.58,0,0,1,26.16,115.56Zm-1.36-.35A.57.57,0,0,1,25,116c-.13.2-.45.2-.71,0a.59.59,0,0,1-.19-.74A.5.5,0,0,1,24.8,115.21Zm-1.44-.73a.64.64,0,0,1,.24.86.69.69,0,0,1-.92,0,.64.64,0,0,1-.25-.86A.71.71,0,0,1,23.36,114.48Z"/><path class="cls-25" d="M32.19,101.17a7.54,7.54,0,0,0-1-2.5c-.29-.3-.6-.57-.89-.88l1.1.81a7.23,7.23,0,0,1,.89,2.1c.13-.11.19,0,.33-.15a10.31,10.31,0,0,0,2-1.88c-.09.2-.46.8-.55,1-1.19,1.16-1.66,1.25-1.64,1.68l-.1.41,1.13-1.1c-.22.32-.91,1.09-.94,1.41-.23.26-.11.52-.06.78a11,11,0,0,0,2.83-1.68c-1,1.17-1.86,1.2-2.79,2.28,0,.44-.1.86-.14,1.28s.09.73.12,1.11a.81.81,0,0,1,.51.38,15.27,15.27,0,0,1,3,.49H28.38a9.11,9.11,0,0,1,2.69-.37,1.32,1.32,0,0,1,.73-.59l.12-1.82a1,1,0,0,0-.39-.82,7.73,7.73,0,0,1-1.87-2,15.65,15.65,0,0,0,2.35,2c0-.12.07-.23.09-.33V102a7,7,0,0,1-1.61-1.6s-.61-.72-.59-.75a16.44,16.44,0,0,0,2.26,2,1.36,1.36,0,0,0,0-.2l-.19-.25.24,0"/><path class="cls-26" d="M32.19,101.17a7.54,7.54,0,0,0-1-2.5c-.29-.3-.6-.57-.89-.88l1.1.81a7.23,7.23,0,0,1,.89,2.1c.13-.11.19,0,.33-.15a10.31,10.31,0,0,0,2-1.88c-.09.2-.46.8-.55,1-1.19,1.16-1.66,1.25-1.64,1.68l-.1.41,1.13-1.1c-.22.32-.91,1.09-.94,1.41-.23.26-.11.52-.06.78a11,11,0,0,0,2.83-1.68c-1,1.17-1.86,1.2-2.79,2.28,0,.44-.1.86-.14,1.28s.09.73.12,1.11a.81.81,0,0,1,.51.38,15.27,15.27,0,0,1,3,.49H28.38a9.11,9.11,0,0,1,2.69-.37,1.32,1.32,0,0,1,.73-.59l.12-1.82a1,1,0,0,0-.39-.82,7.73,7.73,0,0,1-1.87-2,15.65,15.65,0,0,0,2.35,2c0-.12.07-.23.09-.33V102a7,7,0,0,1-1.61-1.6s-.61-.72-.59-.75a16.44,16.44,0,0,0,2.26,2,1.36,1.36,0,0,0,0-.2l-.19-.25Z"/><path class="cls-27" d="M35.2,101.09c.33-.93.6-.9,1.16-1.19-.38.86-.71,1.19-1.16,1.19"/><path class="cls-28" d="M35.2,101.09c.33-.93.6-.9,1.16-1.19C36,100.76,35.65,101.09,35.2,101.09Z"/><path class="cls-27" d="M32.66,103.38c1-.56,1.25.21,1.75.2-.61.46-1.38-.2-1.75-.2"/><path class="cls-28" d="M32.66,103.38c1-.56,1.25.21,1.75.2C33.8,104,33,103.38,32.66,103.38Z"/><path class="cls-27" d="M33.41,98.25c-.55-1.27.45-1.31.5-1.85.48.79-.46,1.42-.5,1.85"/><path class="cls-28" d="M33.41,98.25c-.55-1.27.45-1.31.5-1.85C34.39,97.19,33.45,97.82,33.41,98.25Z"/><path class="cls-27" d="M31.61,102.84c-.47-.64-.25-.78-.07-1.22.37.62.37,1,.07,1.22"/><path class="cls-28" d="M31.61,102.84c-.47-.64-.25-.78-.07-1.22C31.91,102.24,31.91,102.58,31.61,102.84Z"/><path class="cls-27" d="M30.38,101.79c-.93-.7-.08-1.13-.25-1.53.71.37.13,1.22.25,1.53"/><path class="cls-28" d="M30.38,101.79c-.93-.7-.08-1.13-.25-1.53C30.84,100.63,30.26,101.48,30.38,101.79Z"/><path class="cls-27" d="M31.15,102.43c-.91-.7-.26-1.23-.46-1.65.67.36.31,1.31.46,1.65"/><path class="cls-28" d="M31.15,102.43c-.91-.7-.26-1.23-.46-1.65C31.36,101.14,31,102.09,31.15,102.43Z"/><path class="cls-27" d="M34.67,98.64c-.09-1.3.61-1.48,1.12-2,0,1.2-.61,1.86-1.12,2"/><path class="cls-28" d="M34.67,98.64c-.09-1.3.61-1.48,1.12-2C35.78,97.86,35.18,98.52,34.67,98.64Z"/><path class="cls-27" d="M33.21,102.89c1-.59,1.27.17,1.75.14-.58.48-1.37-.16-1.75-.14"/><path class="cls-28" d="M33.21,102.89c1-.59,1.27.17,1.75.14C34.38,103.51,33.59,102.87,33.21,102.89Z"/><path class="cls-27" d="M34,102.41c1.08-.46,1.24.34,1.74.37-.66.4-1.35-.33-1.74-.37"/><path class="cls-28" d="M34,102.41c1.08-.46,1.24.34,1.74.37C35.05,103.18,34.36,102.45,34,102.41Z"/><path class="cls-27" d="M34.57,102.09c.67-.79,1.11-.12,1.49-.27-.35.61-1.18.17-1.49.27"/><path class="cls-28" d="M34.57,102.09c.67-.79,1.11-.12,1.49-.27C35.71,102.43,34.88,102,34.57,102.09Z"/><path class="cls-27" d="M35.08,101.59c.37-.81.84-.2,1.1-.36-.15.6-.88.23-1.1.36"/><path class="cls-28" d="M35.08,101.59c.37-.81.84-.2,1.1-.36C36,101.83,35.3,101.46,35.08,101.59Z"/><path class="cls-27" d="M32,103.38c-1-.56-1.27.21-1.76.2.61.46,1.38-.2,1.76-.2"/><path class="cls-28" d="M32,103.38c-1-.56-1.27.21-1.76.2C30.85,104,31.62,103.38,32,103.38Z"/><path class="cls-27" d="M31.44,102.89c-1-.59-1.28.17-1.76.14.59.48,1.38-.16,1.76-.14"/><path class="cls-28" d="M31.44,102.89c-1-.59-1.28.17-1.76.14C30.27,103.51,31.06,102.87,31.44,102.89Z"/><path class="cls-27" d="M30.68,102.41c-1.07-.46-1.25.34-1.73.37.65.4,1.33-.33,1.73-.37"/><path class="cls-28" d="M30.68,102.41c-1.07-.46-1.25.34-1.73.37C29.6,103.18,30.28,102.45,30.68,102.41Z"/><path class="cls-27" d="M30.09,102.09c-.69-.79-1.12-.12-1.51-.27.37.61,1.19.17,1.51.27"/><path class="cls-28" d="M30.09,102.09c-.69-.79-1.12-.12-1.51-.27C29,102.43,29.77,102,30.09,102.09Z"/><path class="cls-27" d="M29.57,101.59c-.36-.81-.83-.2-1.11-.36.17.6.88.23,1.11.36"/><path class="cls-28" d="M29.57,101.59c-.36-.81-.83-.2-1.11-.36C28.63,101.83,29.34,101.46,29.57,101.59Z"/><path class="cls-27" d="M29.61,101c-.32-1-.59-.9-1.15-1.19.37.86.72,1.18,1.15,1.19"/><path class="cls-28" d="M29.61,101c-.32-1-.59-.9-1.15-1.19C28.83,100.7,29.18,101,29.61,101Z"/><path class="cls-27" d="M33,102.61a1.45,1.45,0,0,0,.34-1.29,1.09,1.09,0,0,0-.34,1.29"/><path class="cls-28" d="M33,102.61a1.45,1.45,0,0,0,.34-1.29A1.09,1.09,0,0,0,33,102.61Z"/><path class="cls-27" d="M34.47,101.53c1.07-.45.39-1.12.59-1.82a4.49,4.49,0,0,0-.59,1.82"/><path class="cls-28" d="M34.47,101.53c1.07-.45.39-1.12.59-1.82A4.49,4.49,0,0,0,34.47,101.53Z"/><path class="cls-27" d="M33.57,102.18c1.07-.46.53-1.3.83-1.67-.63.35-.59,1.38-.83,1.67"/><path class="cls-28" d="M33.57,102.18c1.07-.46.53-1.3.83-1.67C33.77,100.86,33.81,101.89,33.57,102.18Z"/><path class="cls-27" d="M30.31,100.16a1.63,1.63,0,0,0-1.48-.8c.62.71,1.05.92,1.48.8"/><path class="cls-28" d="M30.31,100.16a1.63,1.63,0,0,0-1.48-.8C29.45,100.07,29.88,100.28,30.31,100.16Z"/><path class="cls-27" d="M30.11,99.8c.07-1.15-.24-1.22-.73-1.76,0,1.08.26,1.56.73,1.76"/><path class="cls-28" d="M30.11,99.8c.07-1.15-.24-1.22-.73-1.76C29.42,99.12,29.64,99.6,30.11,99.8Z"/><path class="cls-27" d="M30.63,98c.61-.87.31-1,0-1.47-.48.81-.45,1.22,0,1.47"/><path class="cls-28" d="M30.63,98c.61-.87.31-1,0-1.47C30.18,97.32,30.21,97.73,30.63,98Z"/><path class="cls-27" d="M30.78,100.65c-.92-.69-.09-1.14-.24-1.54.7.38.12,1.22.24,1.54"/><path class="cls-28" d="M30.78,100.65c-.92-.69-.09-1.14-.24-1.54C31.24,99.49,30.66,100.33,30.78,100.65Z"/><path class="cls-27" d="M31.61,101.22c-.47-.64-.25-.77-.07-1.21.37.61.37,1,.07,1.21"/><path class="cls-28" d="M31.61,101.22c-.47-.64-.25-.77-.07-1.21C31.91,100.62,31.91,101,31.61,101.22Z"/><path class="cls-27" d="M31.15,100.89a1.49,1.49,0,0,0,0-1.32,1.07,1.07,0,0,0,0,1.32"/><path class="cls-28" d="M31.15,100.89a1.49,1.49,0,0,0,0-1.32A1.07,1.07,0,0,0,31.15,100.89Z"/><path class="cls-27" d="M31.39,98.48c-.93-.69-.09-1.14-.25-1.54.71.38.14,1.22.25,1.54"/><path class="cls-28" d="M31.39,98.48c-.93-.69-.09-1.14-.25-1.54C31.85,97.32,31.28,98.16,31.39,98.48Z"/><path class="cls-27" d="M33.33,98c-1.11-.34-.5-1-.8-1.36.8.11.57,1.1.8,1.36"/><path class="cls-28" d="M33.33,98c-1.11-.34-.5-1-.8-1.36C33.33,96.79,33.1,97.78,33.33,98Z"/><path class="cls-27" d="M32.63,100.62a1.81,1.81,0,0,0,0-1.65,1.39,1.39,0,0,0,0,1.65"/><path class="cls-28" d="M32.63,100.62a1.81,1.81,0,0,0,0-1.65A1.39,1.39,0,0,0,32.63,100.62Z"/><path class="cls-27" d="M34.19,99c.9-.72.07-1.17.07-1.9a4.32,4.32,0,0,0-.07,1.9"/><path class="cls-28" d="M34.19,99c.9-.72.07-1.17.07-1.9A4.32,4.32,0,0,0,34.19,99Z"/><path class="cls-27" d="M33.23,100.21c.86-.95-.2-1.39-.09-1.86-.47.63.17,1.49.09,1.86"/><path class="cls-28" d="M33.23,100.21c.86-.95-.2-1.39-.09-1.86C32.67,99,33.31,99.84,33.23,100.21Z"/><path class="cls-27" d="M36.44,98.55c-.86.79-1.17.56-2,.49.88-.67,1.45-.77,2-.49"/><path class="cls-28" d="M36.44,98.55c-.86.79-1.17.56-2,.49C35.33,98.37,35.9,98.27,36.44,98.55Z"/><path class="cls-27" d="M33.86,99.78c1-.67,1.23-.42,2-.24-1,.55-1.53.58-2,.24"/><path class="cls-28" d="M33.86,99.78c1-.67,1.23-.42,2-.24C34.94,100.09,34.37,100.12,33.86,99.78Z"/><path class="cls-27" d="M33.94,99.52A1.8,1.8,0,0,0,33.59,98a1.3,1.3,0,0,0,.35,1.56"/><path class="cls-28" d="M33.94,99.52A1.8,1.8,0,0,0,33.59,98,1.3,1.3,0,0,0,33.94,99.52Z"/><path class="cls-27" d="M32.05,99.71c-.32-.73-.07-.81.21-1.21.22.7.13,1-.21,1.21"/><path class="cls-28" d="M32.05,99.71c-.32-.73-.07-.81.21-1.21C32.48,99.2,32.39,99.52,32.05,99.71Z"/><path class="cls-27" d="M31.6,98.93a1.57,1.57,0,0,0,.45-1.27,1.12,1.12,0,0,0-.45,1.27"/><path class="cls-28" d="M31.6,98.93a1.57,1.57,0,0,0,.45-1.27A1.12,1.12,0,0,0,31.6,98.93Z"/><path class="cls-27" d="M31.12,98.57a1.57,1.57,0,0,0-1.35-.3,1.23,1.23,0,0,0,1.35.3"/><path class="cls-28" d="M31.12,98.57a1.57,1.57,0,0,0-1.35-.3A1.23,1.23,0,0,0,31.12,98.57Z"/><path class="cls-27" d="M31.69,99.71a1.61,1.61,0,0,0-1.33-.3,1.17,1.17,0,0,0,1.33.3"/><path class="cls-28" d="M31.69,99.71a1.61,1.61,0,0,0-1.33-.3A1.17,1.17,0,0,0,31.69,99.71Z"/><path class="cls-27" d="M31.61,99.24a1.56,1.56,0,0,0-1.34-.3,1.2,1.2,0,0,0,1.34.3"/><path class="cls-28" d="M31.61,99.24a1.56,1.56,0,0,0-1.34-.3A1.2,1.2,0,0,0,31.61,99.24Z"/><path class="cls-27" d="M32.66,100.86c1,.59,1.27-.17,1.77-.14-.6-.48-1.38.16-1.77.14"/><path class="cls-28" d="M32.66,100.86c1,.59,1.27-.17,1.77-.14C33.83,100.24,33.05,100.88,32.66,100.86Z"/><path class="cls-27" d="M33.43,100.25a1.62,1.62,0,0,1,1.68-.13c-.87.4-1.36.42-1.68.13"/><path class="cls-28" d="M33.43,100.25a1.62,1.62,0,0,1,1.68-.13C34.24,100.52,33.75,100.54,33.43,100.25Z"/><path class="cls-27" d="M30.47,98.06c-.84.07-1-.35-1.31-.67.79,0,1.22.36,1.31.67"/><path class="cls-28" d="M30.47,98.06c-.84.07-1-.35-1.31-.67C30,97.38,30.38,97.75,30.47,98.06Z"/><path class="cls-29" d="M27,106.16l-.34,0c-.27,0-1.07-.24-1.24-.21-.48.17-1.25-.34-1.52-.16a7.1,7.1,0,0,1-1.57.06,4.07,4.07,0,0,0-1.93.13c-.32.15-.77-.33-.92-.17a1.63,1.63,0,0,1-1.17.41l-.18.53H27Z"/><path class="cls-18" d="M27,106.16l-.34,0c-.27,0-1.07-.24-1.24-.21-.48.17-1.25-.34-1.52-.16a7.1,7.1,0,0,1-1.57.06,4.07,4.07,0,0,0-1.93.13c-.32.15-.77-.33-.92-.17a1.63,1.63,0,0,1-1.17.41l-.18.53H27Z"/><path class="cls-16" d="M25.38,102.54c-.44.18-.74,1.38-.92,1.74-.1.19-.33.64-.12.93.1.13.25.18.27.29.3,0,.47.18.45.41s-.58.16-.8,0a.17.17,0,0,0-.09-.16.84.84,0,0,1-.05-.17c-.65-.31-.21-.73-.28-1.62,0,.16-.08.33-.13.49a5.94,5.94,0,0,0-.06,1.1.82.82,0,0,0,.35.34c.14.06.14.11.29.31,0,0,.09.19,0,.22s-.09.19-.62,0a1.23,1.23,0,0,0,0-.2c-.06,0-.11,0-.13-.08a.57.57,0,0,0-.2-.29c0-.14-.19-.15-.24-.34a2.64,2.64,0,0,1,.08-.85,5.78,5.78,0,0,0,.16-1.3,1.23,1.23,0,0,1-.23-.92c-.4.17-1-.16-1.22-.29s-.11.87-.81,1.27a.86.86,0,0,0-.29.45c-.24.26.16,1.08.41,1.35s.32.38.43.53.46.24.45.46a1.33,1.33,0,0,1-.86,0c0-.1-.16-.25,0-.35a.53.53,0,0,1-.39-.16,14.33,14.33,0,0,0-.77-1.51c-.09,0-.13-.26-.13-.36s.05,0,.24-.54c-.14.27-.53.51-.51.85s.3.87.34,1.13.11.26.47.4c.16.14.43.38.43.54a1.22,1.22,0,0,1-.89,0c-.05-.11-.06-.28-.12-.41s0-.11-.12-.13-.31,0-.39-.09c-.13-.58-.28-1.54-.43-2.11a.63.63,0,0,1,.17-.52c.28-.16.44-.5.64-.71s.14-.81-.15-1.12c-.11.17,0,.22-.09.25s-.34-.33-.28-.54,0-.44,0-.77c.11-.55.42-.65.73-.37a1.8,1.8,0,0,1,1.45-.52,2.86,2.86,0,0,1,1.94.16,2.32,2.32,0,0,1,1.12.6c.14.11.32,0,.44-.13a6.16,6.16,0,0,0-.44-2.58c-.38.22-.67,0-1.07-.26-.09-.06-.09-.11,0-.16s.25-.09.37-.09c-.2-.15-.15-.21,0-.24.32.07.61-.15.89,0,.18-.28.5-.27.81-.29a1,1,0,0,1,.7.33c.09.15.47.18.54.27s0,.28,0,.42a.39.39,0,0,1-.31.19,2.06,2.06,0,0,1-.26,0c0,.07-.14.15-.24.2a6.63,6.63,0,0,1,.33,2.59,1.89,1.89,0,0,1-.57,1.57c-.21.17-.08.41-.2.6"/><path class="cls-25" d="M24.65,97.07c-.07.08-.32.3-.5.27s-.22-.18-.46-.23-.1-.08,0-.12c.28-.09.65-.27.92,0-.22,0-.26,0-.51.07a.89.89,0,0,0,.53,0"/><path class="cls-30" d="M23.85,96.78c-.11-.06-.16-.06,0-.11.34.07.59-.15.81,0-.07,0-.05.07-.14.07s-.48,0-.63,0"/><path class="cls-25" d="M24.76,96.69a.83.83,0,0,1,1.08-.07,1.37,1.37,0,0,0,.65.32.17.17,0,0,0,.14.14.88.88,0,0,1-.05.15c-.07.08-.28.06-.49.06a1.05,1.05,0,0,0,.45,0c0,.08-.16.23-.5.16-.09.17-.26.32-.62.19a1.21,1.21,0,0,1-.36-.1.9.9,0,0,0,.56.32,7.49,7.49,0,0,1,.42,2.32,3.32,3.32,0,0,1-.29,1.31c-.08.2-.23.23-.31.34-.2.28-.14.53-.22.66-.58.08-.63,1.71-.95,1.64s-.34-.89,0-1.06c1-.57.63-2,.68-1.84-.22.74-.06,1.46-.56,1.42s-.59,1-.59,1.17-.07.31-.11.52a9.31,9.31,0,0,0-.11,1,1.12,1.12,0,0,0,0,.32,1,1,0,0,0,.43.39c.21.08.3.33.25.4a.37.37,0,0,1-.48,0,.52.52,0,0,1-.05-.21c-.16,0-.16-.21-.32-.35,0-.14-.26-.18-.26-.43a12.23,12.23,0,0,1,.24-1.3,2,2,0,0,0,.14-.65c-.08-.19.16-.19,0-.34-.32-.29-.28-.79.16-1.27-.09,0-.14-.2-.2-.29V102l-.34.42a1.67,1.67,0,0,1-1.33-.46.66.66,0,0,1-.31-.61s-.21,0-.17,0-.06.18,0,.32.29.19.28.29l-.07.58a2,2,0,0,1-.7,1.09l-.27.59a3,3,0,0,0,.74,1.33c.09.08.17.25.27.34a.91.91,0,0,1,.43.34,1.17,1.17,0,0,1-.7,0,.29.29,0,0,1,0-.32.74.74,0,0,1-.43-.18,14.63,14.63,0,0,0-.82-1.56.38.38,0,0,1,.09-.48,1.9,1.9,0,0,0,.21-1.53c-.26-.09-.5-.57-.56-1a1.56,1.56,0,0,1,.32-1.33,1.64,1.64,0,0,1,1.29-.37,3.77,3.77,0,0,1,2.39.3c.43.06.53.52.86.48a.43.43,0,0,0,.4-.42,7.57,7.57,0,0,0-.43-2.49.35.35,0,0,1,.23-.23c-.09-.07-.16-.15-.14-.22a1.52,1.52,0,0,1,.06-.2"/><path class="cls-16" d="M26,97c-.24-.07-.24-.17-.49-.1a.43.43,0,0,0-.23.2c.1,0,.13-.07.19,0s.29,0,.33,0,.11,0,.2,0"/><path class="cls-25" d="M24.38,102.84a.52.52,0,0,1-.07.52.57.57,0,0,1-.09.74c.21.34-.06.52,0,1,.1.28.32.28.32.46.27,0,.45.11.47.3s-.06-.07-.14,0c.08.06.11.11.08.12a.73.73,0,0,1-.38.06c-.07,0-.15,0-.19-.14a1.16,1.16,0,0,0,0-.18.41.41,0,0,1-.37-.45c0,.1-.08.16-.08.22a.46.46,0,0,1-.12-.35A2.66,2.66,0,0,0,23.9,104c0-.83.23-1,.48-1.11"/><path class="cls-21" d="M19.57,100.3c0,.07-.05.25-.17.44a.32.32,0,0,0,.23-.13.78.78,0,0,1-.21.36c.06,0,.12,0,.21-.13v.09a2.6,2.6,0,0,0-.1.25c-.07,0-.08.19-.13.3a.88.88,0,0,1-.08-.78c-.09-.08,0-.24.1-.37s-.1.06-.12.06a.92.92,0,0,1,.21-.53c.13-.07.23-.08.32.08s0,.13-.16.22-.16.14-.1.14"/><path class="cls-31" d="M20.49,101.72c0,.45.11.73.1,1.1a3.08,3.08,0,0,1-.38,1.13c.07-.07.15-.19.21-.17a1.82,1.82,0,0,1,.26-.6.82.82,0,0,0,.07-.65,2.21,2.21,0,0,1-.26-.81"/><path class="cls-25" d="M19.47,104c0,.09,0,.18,0,.26a3.28,3.28,0,0,0,.38,1.17.77.77,0,0,1,.22.22l.18.17a1.19,1.19,0,0,1,.49.41.82.82,0,0,1-.67,0,2.78,2.78,0,0,0-.16-.4l-.11-.1c-.11,0-.4-.15-.42-.27a9.72,9.72,0,0,0-.32-1.73.52.52,0,0,1,.08-.57,2.1,2.1,0,0,0,.56-.55A.89.89,0,0,0,20,102a.92.92,0,0,1,.21.53,1.21,1.21,0,0,1-.08.81c-.21.24-.42.47-.64.7"/><path class="cls-31" d="M19.92,102.39c-.05.55-.71.89-.73,1.46a1.16,1.16,0,0,1,.1-.69,2.66,2.66,0,0,0,.63-.77"/><path class="cls-31" d="M19.3,102.86a1.06,1.06,0,0,0-.23.48c0-.12-.06-.22,0-.33a.3.3,0,0,1,.2-.15"/><path class="cls-16" d="M27.7,93.47a1.65,1.65,0,0,1,1.61-.67A1.57,1.57,0,0,1,31,92a1.68,1.68,0,0,1,.43-1,2.7,2.7,0,0,1-1.06-1.53,2.45,2.45,0,0,1-1.47-.67c-.34.07-.65.23-1-.12-.24.35-.47.23-.9,0-.36,0-.84.22-1.21.25a1.21,1.21,0,0,1-1.28.46A1.9,1.9,0,0,1,24,90.91c.28.4.15.32.28.71s.92.63,1.07,1.06a1.29,1.29,0,0,0,1,.2,2.28,2.28,0,0,1,1.29.59m1.17,1.18c1.13.15,1.78,0,1.92-.51.08.32,2.33-.36,2-.93A1.56,1.56,0,0,0,33.91,92c0-.09-.42.14-.51.06a1.6,1.6,0,0,0,.2-2c0-1.1-.35-1.82-1-2,0,.07.09,1.26,0,.7a2.94,2.94,0,0,0-1.52-1.56,2.2,2.2,0,0,0-2.21-.75,1.46,1.46,0,0,0-.92.13c-.42-.15-1.22-.25-1.49,0-.45-.24-.56-.15-1.05,0-.82-.06-.88.15-1.51.68a1.79,1.79,0,0,0-1.27,1.11c-.43.4-1,.73-1,1.47-.61.58-.19,1.64-.08,1.93-.15,1.62.35,1.4.92,1.59,0,.91,1.25.54,1.87,1,.72.7,1.12.61,3.35.08a4.23,4.23,0,0,0,1.14.23"/><path class="cls-18" d="M27.7,93.47a1.65,1.65,0,0,1,1.61-.67A1.57,1.57,0,0,1,31,92a1.68,1.68,0,0,1,.43-1,2.7,2.7,0,0,1-1.06-1.53,2.45,2.45,0,0,1-1.47-.67c-.34.07-.65.23-1-.12-.24.35-.47.23-.9,0-.36,0-.84.22-1.21.25a1.21,1.21,0,0,1-1.28.46A1.9,1.9,0,0,1,24,90.91c.28.4.15.32.28.71s.92.63,1.07,1.06a1.29,1.29,0,0,0,1,.2A2.28,2.28,0,0,1,27.7,93.47Zm1.17,1.18c1.13.15,1.78,0,1.92-.51.08.32,2.33-.36,2-.93A1.56,1.56,0,0,0,33.91,92c0-.09-.42.14-.51.06a1.6,1.6,0,0,0,.2-2c0-1.1-.35-1.82-1-2,0,.07.09,1.26,0,.7a2.94,2.94,0,0,0-1.52-1.56,2.2,2.2,0,0,0-2.21-.75,1.46,1.46,0,0,0-.92.13c-.42-.15-1.22-.25-1.49,0-.45-.24-.56-.15-1.05,0-.82-.06-.88.15-1.51.68a1.79,1.79,0,0,0-1.27,1.11c-.43.4-1,.73-1,1.47-.61.58-.19,1.64-.08,1.93-.15,1.62.35,1.4.92,1.59,0,.91,1.25.54,1.87,1,.72.7,1.12.61,3.35.08A4.23,4.23,0,0,0,28.87,94.65Z"/><path class="cls-32" d="M31.15,88.71c-.06,1,.76,1.12,1.68,1.69a2.58,2.58,0,0,0-1.68-1.69"/><path class="cls-18" d="M31.15,88.71c-.06,1,.76,1.12,1.68,1.69A2.58,2.58,0,0,0,31.15,88.71Z"/><path class="cls-32" d="M32.91,88.36c.87,1.65-.25,1.87-.19,2.61-.72-1,.22-2,.19-2.61"/><path class="cls-18" d="M32.91,88.36c.87,1.65-.25,1.87-.19,2.61C32,90,32.94,89,32.91,88.36Z"/><path class="cls-32" d="M30.83,89.69c.47,1.39.73.93,1.61,1.35-.55-.92-.72-1.12-1.61-1.35"/><path class="cls-18" d="M30.83,89.69c.47,1.39.73.93,1.61,1.35C31.89,90.12,31.72,89.92,30.83,89.69Z"/><path class="cls-32" d="M32.85,92.79c-.72-1.75.64-1.82.71-2.54.65,1.09-.64,2-.71,2.54"/><path class="cls-18" d="M32.85,92.79c-.72-1.75.64-1.82.71-2.54C34.21,91.34,32.92,92.21,32.85,92.79Z"/><path class="cls-32" d="M31.48,93.1c1.38-1.12.15-1.59.37-2.18-1,.63-.2,1.72-.37,2.18"/><path class="cls-18" d="M31.48,93.1c1.38-1.12.15-1.59.37-2.18C30.81,91.55,31.65,92.64,31.48,93.1Z"/><path class="cls-32" d="M32.64,90.59c-.95,1.14-.42,1.1-.31,2,.52-.93.59-1.19.31-2"/><path class="cls-18" d="M32.64,90.59c-.95,1.14-.42,1.1-.31,2C32.85,91.69,32.92,91.43,32.64,90.59Z"/><path class="cls-32" d="M31.53,93.43c.67-1.55,1.68-.86,2.22-1.32-.26,1.08-1.78,1-2.22,1.32"/><path class="cls-18" d="M31.53,93.43c.67-1.55,1.68-.86,2.22-1.32C33.49,93.19,32,93.08,31.53,93.43Z"/><path class="cls-32" d="M30.5,93.42c.62-1,.94-.77,1.68-.81-.67.86-1.15,1-1.68.81"/><path class="cls-18" d="M30.5,93.42c.62-1,.94-.77,1.68-.81C31.51,93.47,31,93.66,30.5,93.42Z"/><path class="cls-32" d="M30,93.69c1.27-1.14,1.91-.11,2.6-.31-.72.87-2,.17-2.6.31"/><path class="cls-18" d="M30,93.69c1.27-1.14,1.91-.11,2.6-.31C31.86,94.25,30.53,93.55,30,93.69Z"/><path class="cls-32" d="M29.45,93.33c.5-1.77,1.7-.84,2.23-1.32-.14,1.25-1.79,1-2.23,1.32"/><path class="cls-18" d="M29.45,93.33c.5-1.77,1.7-.84,2.23-1.32C31.54,93.26,29.89,93,29.45,93.33Z"/><path class="cls-32" d="M29,93.86c.86-.81,1.11-.53,1.83-.39-.85.68-1.38.75-1.83.39"/><path class="cls-18" d="M29,93.86c.86-.81,1.11-.53,1.83-.39C30,94.15,29.45,94.22,29,93.86Z"/><path class="cls-32" d="M27.7,94.08c.49-1.77,1.69-.85,2.22-1.32-.13,1.25-1.8.95-2.22,1.32"/><path class="cls-18" d="M27.7,94.08c.49-1.77,1.69-.85,2.22-1.32C29.79,94,28.12,93.71,27.7,94.08Z"/><path class="cls-32" d="M28,94.19c1.42-1,1.9.15,2.61.07-.82.75-2-.13-2.61-.07"/><path class="cls-18" d="M28,94.19c1.42-1,1.9.15,2.61.07C29.76,95,28.55,94.13,28,94.19Z"/><path class="cls-32" d="M24.12,88.85c.05,1-.77,1.13-1.69,1.68a2.6,2.6,0,0,1,1.69-1.68"/><path class="cls-18" d="M24.12,88.85c.05,1-.77,1.13-1.69,1.68A2.6,2.6,0,0,1,24.12,88.85Z"/><path class="cls-32" d="M22.58,88.69c-1.31,1.35-.29,1.86-.55,2.56,1-.78.34-2,.55-2.56"/><path class="cls-18" d="M22.58,88.69c-1.31,1.35-.29,1.86-.55,2.56C23,90.47,22.37,89.24,22.58,88.69Z"/><path class="cls-32" d="M24.32,89.7c-.25,1.45-.58,1-1.37,1.57.39-1,.53-1.22,1.37-1.57"/><path class="cls-18" d="M24.32,89.7c-.25,1.45-.58,1-1.37,1.57C23.34,90.27,23.48,90.05,24.32,89.7Z"/><path class="cls-32" d="M22.38,92.62c.72-1.75-.64-1.8-.72-2.55-.65,1.1.65,2,.72,2.55"/><path class="cls-18" d="M22.38,92.62c.72-1.75-.64-1.8-.72-2.55C21,91.17,22.31,92.05,22.38,92.62Z"/><path class="cls-32" d="M23.57,93.19c-1.08-1.4.24-1.58.16-2.2.86.85-.21,1.71-.16,2.2"/><path class="cls-18" d="M23.57,93.19c-1.08-1.4.24-1.58.16-2.2C24.59,91.84,23.52,92.7,23.57,93.19Z"/><path class="cls-32" d="M22.63,90.74c.94,1.13.4,1.08.31,2-.53-1-.59-1.19-.31-2"/><path class="cls-18" d="M22.63,90.74c.94,1.13.4,1.08.31,2C22.41,91.82,22.35,91.58,22.63,90.74Z"/><path class="cls-32" d="M23.7,93.67c-.52-1.6-1.59-1-2.09-1.52.15,1.1,1.67,1.14,2.09,1.52"/><path class="cls-18" d="M23.7,93.67c-.52-1.6-1.59-1-2.09-1.52C21.76,93.25,23.28,93.29,23.7,93.67Z"/><path class="cls-32" d="M24.76,93.57c-.61-1-.94-.78-1.68-.81.67.85,1.15,1,1.68.81"/><path class="cls-18" d="M24.76,93.57c-.61-1-.94-.78-1.68-.81C23.75,93.61,24.23,93.81,24.76,93.57Z"/><path class="cls-32" d="M25.28,93.84c-1.27-1.15-1.9-.12-2.59-.31.71.87,2,.16,2.59.31"/><path class="cls-18" d="M25.28,93.84c-1.27-1.15-1.9-.12-2.59-.31C23.4,94.4,24.73,93.69,25.28,93.84Z"/><path class="cls-32" d="M25,93.88c.66-1.5-.7-1.48-.8-2.1-.61,1,.72,1.62.8,2.1"/><path class="cls-18" d="M25,93.88c.66-1.5-.7-1.48-.8-2.1C23.61,92.73,24.94,93.4,25,93.88Z"/><path class="cls-32" d="M26.25,94c-.85-.82-1.1-.54-1.82-.39.86.67,1.37.75,1.82.39"/><path class="cls-18" d="M26.25,94c-.85-.82-1.1-.54-1.82-.39C25.29,94.29,25.8,94.37,26.25,94Z"/><path class="cls-32" d="M27.56,94.22c-.49-1.77-1.69-.84-2.23-1.32.14,1.25,1.81.95,2.23,1.32"/><path class="cls-18" d="M27.56,94.22c-.49-1.77-1.69-.84-2.23-1.32C25.47,94.15,27.14,93.85,27.56,94.22Z"/><path class="cls-32" d="M27.3,94.33c-1.43-1-1.92.15-2.62,0,.83.77,2-.11,2.62,0"/><path class="cls-18" d="M27.3,94.33c-1.43-1-1.92.15-2.62,0C25.51,95.15,26.72,94.27,27.3,94.33Z"/><rect class="cls-33" x="112.43" y="74.05" width="178.94" height="55.04"/></g><text class="cls-34" transform="translate(118.5 105.44)">Ministerio de Salud</text><g class="cls-14"><path class="cls-32" d="M28.08,86.83c1.27-.45,1.44.37,2,.41-.77.42-1.56-.37-2-.41"/><path class="cls-18" d="M28.08,86.83c1.27-.45,1.44.37,2,.41C29.32,87.66,28.53,86.87,28.08,86.83Z"/><path class="cls-32" d="M29.29,86.59c1.44-.16,1.39.75,2,1-.91.22-1.53-.81-2-1"/><path class="cls-18" d="M29.29,86.59c1.44-.16,1.39.75,2,1C30.36,87.76,29.74,86.73,29.29,86.59Z"/><path class="cls-32" d="M27.59,88.25c1.31.75,1.67-.14,2.31-.07-.77-.6-1.8.12-2.31.07"/><path class="cls-18" d="M27.59,88.25c1.31.75,1.67-.14,2.31-.07C29.13,87.58,28.1,88.3,27.59,88.25Z"/><path class="cls-32" d="M29.29,88.54c1.11,1,1.66.19,2.27.37-.62-.73-1.8-.23-2.27-.37"/><path class="cls-18" d="M29.29,88.54c1.11,1,1.66.19,2.27.37C30.94,88.18,29.76,88.68,29.29,88.54Z"/><path class="cls-32" d="M27.48,87.44c1.24.84,1.6.35,2.56.18a3.07,3.07,0,0,0-2.56-.18"/><path class="cls-18" d="M27.48,87.44c1.24.84,1.6.35,2.56.18A3.07,3.07,0,0,0,27.48,87.44Z"/><path class="cls-32" d="M29.5,87.46c.85,1.22.95.71,1.92.88-.78-.75-1-.89-1.92-.88"/><path class="cls-18" d="M29.5,87.46c.85,1.22.95.71,1.92.88C30.64,87.59,30.42,87.45,29.5,87.46Z"/><path class="cls-32" d="M31,87.31c1.8.63,1.14,1.54,1.69,2-1.23-.27-1.26-1.63-1.69-2"/><path class="cls-18" d="M31,87.31c1.8.63,1.14,1.54,1.69,2C31.49,89.08,31.46,87.72,31,87.31Z"/><path class="cls-32" d="M26.93,87c-1.27-.45-1.45.38-2,.42.77.41,1.56-.38,2-.42"/><path class="cls-18" d="M26.93,87c-1.27-.45-1.45.38-2,.42C25.69,87.8,26.48,87,26.93,87Z"/><path class="cls-32" d="M26,86.73c-1.44-.15-1.4.76-2,.94.92.24,1.54-.78,2-.94"/><path class="cls-18" d="M26,86.73c-1.44-.15-1.4.76-2,.94C24.91,87.91,25.53,86.89,26,86.73Z"/><path class="cls-32" d="M27.67,88.4c-1.3.74-1.68-.14-2.31-.08.77-.6,1.8.11,2.31.08"/><path class="cls-18" d="M27.67,88.4c-1.3.74-1.68-.14-2.31-.08C26.13,87.72,27.16,88.43,27.67,88.4Z"/><path class="cls-32" d="M26,88.68c-1.12,1-1.67.19-2.28.38.63-.74,1.79-.25,2.28-.38"/><path class="cls-18" d="M26,88.68c-1.12,1-1.67.19-2.28.38C24.33,88.32,25.49,88.81,26,88.68Z"/><path class="cls-32" d="M27.78,87.58c-1.24.84-1.59.36-2.57.19a3.1,3.1,0,0,1,2.57-.19"/><path class="cls-18" d="M27.78,87.58c-1.24.84-1.59.36-2.57.19A3.1,3.1,0,0,1,27.78,87.58Z"/><path class="cls-32" d="M25.76,87.61c-.85,1.21-1,.71-1.92.87.79-.75,1-.89,1.92-.87"/><path class="cls-18" d="M25.76,87.61c-.85,1.21-1,.71-1.92.87C24.63,87.73,24.85,87.59,25.76,87.61Z"/><path class="cls-32" d="M24.23,87.46c-1.79.62-1.13,1.53-1.69,2,1.22-.25,1.26-1.63,1.69-2"/><path class="cls-18" d="M24.23,87.46c-1.79.62-1.13,1.53-1.69,2C23.76,89.24,23.8,87.86,24.23,87.46Z"/><path class="cls-32" d="M28,86.9c-1.23.85-1.15.34-2.12.2,1-.46,1.26-.52,2.12-.2"/><path class="cls-18" d="M28,86.9c-1.23.85-1.15.34-2.12.2C26.92,86.64,27.17,86.58,28,86.9Z"/><path class="cls-16" d="M46,85.74l.36.38-1.05.93a2.41,2.41,0,0,0-.31.29.38.38,0,0,0-.09.28.54.54,0,0,0,.16.32.63.63,0,0,0,.3.19.34.34,0,0,0,.26-.06A2.67,2.67,0,0,0,46,87.8L47,86.87l.35.37-1,.9a4.39,4.39,0,0,1-.54.4.6.6,0,0,1-.34.09,1,1,0,0,1-.37-.07,1.33,1.33,0,0,1-.4-.32,1.42,1.42,0,0,1-.31-.46,1,1,0,0,1,0-.36.63.63,0,0,1,.12-.3,2.43,2.43,0,0,1,.46-.47ZM43.52,85l.3.26a1.62,1.62,0,0,0,.37.29.28.28,0,0,0,.18,0,.37.37,0,0,0,.17-.1.32.32,0,0,0,.1-.19.29.29,0,0,0-.08-.21,2.32,2.32,0,0,0-.27-.26l-.3-.29Zm-1.42.71,1.8-1.84.81.74a1.79,1.79,0,0,1,.4.45.58.58,0,0,1,0,.37.72.72,0,0,1-.19.38.79.79,0,0,1-.47.22.72.72,0,0,1-.54-.17,1.22,1.22,0,0,1,.06.35,2.5,2.5,0,0,1-.07.5l-.11.57-.48-.41.12-.66a3,3,0,0,0,.05-.46.38.38,0,0,0,0-.19.81.81,0,0,0-.17-.19l-.07-.07-.75.78Zm-2-1.39,1.59-2,1.55,1.13-.27.34-1.13-.83-.35.45,1.07.76-.28.35-1-.77-.44.55,1.18.86-.27.35Zm-.61-2.77-.35.64.24.15a2.15,2.15,0,0,0,.4.15.27.27,0,0,0,.2,0,.36.36,0,0,0,.16-.14.33.33,0,0,0,0-.24.37.37,0,0,0-.13-.2,1.66,1.66,0,0,0-.32-.2ZM38,83.15l1.27-2.21.74.39a4.6,4.6,0,0,1,.53.33.63.63,0,0,1,.21.4.69.69,0,0,1-.12.5.72.72,0,0,1-.27.3A.7.7,0,0,1,40,83a.74.74,0,0,1-.3,0,5.22,5.22,0,0,1-.5-.22l-.3-.17-.48.83ZM35,82l.89-2.36.5.17-.74,2,1.24.45-.16.4Zm-2.38-.63.63-2.46,1.9.46-.11.4-1.38-.32-.14.54,1.28.31-.11.42-1.28-.31-.17.67,1.42.34-.1.42Zm-1.77-2.43-.25,1.67.39,0a1.53,1.53,0,0,0,.32,0,.78.78,0,0,0,.23-.08.62.62,0,0,0,.17-.23,1.45,1.45,0,0,0,.12-.45,1.38,1.38,0,0,0,0-.45.67.67,0,0,0-.11-.27.61.61,0,0,0-.23-.15l-.42-.08Zm-.47-.5,1,.13a2.3,2.3,0,0,1,.48.11.94.94,0,0,1,.36.29,1.08,1.08,0,0,1,.19.45,2,2,0,0,1,0,.6,1.52,1.52,0,0,1-.16.52,1.07,1.07,0,0,1-.34.41,1,1,0,0,1-.4.15A1.51,1.51,0,0,1,31,81l-1-.14ZM27.68,79.8l-.38-.93-.34,1Zm1,1-.58,0-.25-.57-1,0-.21.58-.56,0L27,78.29h.56ZM25.24,80l.54.1a1.16,1.16,0,0,1-.3.66,1.23,1.23,0,0,1-.66.3,1.19,1.19,0,0,1-.91-.23,1.34,1.34,0,0,1-.47-.9,1.29,1.29,0,0,1,.2-1,1.26,1.26,0,0,1,1.64-.3,1,1,0,0,1,.34.43l-.51.19a.5.5,0,0,0-.23-.28.61.61,0,0,0-.38-.08.58.58,0,0,0-.43.28.91.91,0,0,0-.09.67,1,1,0,0,0,.27.64.61.61,0,0,0,.5.15.53.53,0,0,0,.33-.17.73.73,0,0,0,.16-.45m-2.56,1.38-.63-2.46.51-.12.63,2.46ZM20.57,82l-.76-2.42.5-.14.64,2L22.21,81l.14.4Zm-2.44-.25.27.63.45-.2a1.54,1.54,0,0,0,.33-.15.27.27,0,0,0,.14-.16.29.29,0,0,0,0-.22.42.42,0,0,0-.13-.16.35.35,0,0,0-.21,0,1.54,1.54,0,0,0-.44.15Zm-.41-.93.23.54.33-.13.34-.15a.31.31,0,0,0,.17-.17.26.26,0,0,0,0-.21.25.25,0,0,0-.14-.16.25.25,0,0,0-.21,0l-.41.17Zm-.65-.19,1-.4a3.28,3.28,0,0,1,.44-.15.57.57,0,0,1,.29,0,1.31,1.31,0,0,1,.27.12.52.52,0,0,1,.19.26.51.51,0,0,1,.05.32.69.69,0,0,1-.16.32.69.69,0,0,1,.43.07.55.55,0,0,1,.27.29.83.83,0,0,1,.06.35.61.61,0,0,1-.1.33,1.1,1.1,0,0,1-.27.25l-.6.25-.81.34Zm-2.59,1.34.47-.26.68,1.21a3.44,3.44,0,0,0,.23.36.44.44,0,0,0,.27.14.64.64,0,0,0,.36-.07.48.48,0,0,0,.24-.25.31.31,0,0,0,0-.25c0-.07-.1-.21-.19-.39l-.71-1.22.46-.26L17,82.11a3.41,3.41,0,0,1,.28.58.76.76,0,0,1,0,.36.77.77,0,0,1-.17.32,1.12,1.12,0,0,1-.41.3,1.25,1.25,0,0,1-.54.2.76.76,0,0,1-.37-.05.73.73,0,0,1-.27-.17,3,3,0,0,1-.37-.54Zm-1.57,1.61.45.57.23-.16a1.72,1.72,0,0,0,.32-.28.45.45,0,0,0,.05-.19.34.34,0,0,0-.07-.19.48.48,0,0,0-.21-.15.53.53,0,0,0-.25,0l-.32.21Zm.89,2-1.59-2,.7-.49a2.89,2.89,0,0,1,.52-.33.66.66,0,0,1,.46,0,.78.78,0,0,1,.42.31.81.81,0,0,1,.18.36.78.78,0,0,1-.17.59,3.65,3.65,0,0,1-.41.35l-.28.21.59.75ZM12,87.12l-1.79-1.86L11.59,84l.31.31-1,.94.4.41,1-.87.32.31-1,.87.49.51,1.07-1,.3.29Zm-2.59.49.27-.28A1.42,1.42,0,0,0,9.93,87a.24.24,0,0,0,0-.17.26.26,0,0,0-.11-.15.3.3,0,0,0-.2-.1.37.37,0,0,0-.21.08l-.26.28-.29.29ZM10.15,89l-2-1.7.75-.8a1.71,1.71,0,0,1,.46-.39A.67.67,0,0,1,9.79,86a.91.91,0,0,1,.39.2.67.67,0,0,1,.24.44.79.79,0,0,1-.17.53,1.23,1.23,0,0,1,.36-.06,3.21,3.21,0,0,1,.52,0l.59.1-.43.46-.68-.09a2.05,2.05,0,0,0-.46,0,.59.59,0,0,0-.2,0,1.2,1.2,0,0,0-.2.17l-.07.08.82.71Z"/><polygon class="cls-35" points="15.22 81.31 15.17 80.78 15.53 80.58 15.44 81.19 15.22 81.31"/></g></g></g></g></g></svg>