<svg id="Layer_1" data-name="Layer 1" xmlns="http://www.w3.org/2000/svg" viewBox="0 0 190 100"><defs><style>.cls-1,.cls-3{fill:#cb3694;}.cls-2{font-size:8.35px;font-family:FuturaBT-Book, Futura Bk BT;}.cls-2,.cls-5{fill:#414042;}.cls-10,.cls-3{font-size:33.19px;}.cls-10,.cls-3,.cls-4{font-family:Montserrat-Black, Montserrat;font-weight:800;}.cls-4{font-size:31.01px;fill:#fff;}.cls-6{fill:#ceb733;}.cls-7{fill:#f69799;}.cls-8{fill:#67c9cd;}.cls-10,.cls-9{fill:#8e68ad;}.cls-11{fill:#faa448;}.cls-12{fill:#f9f06c;}</style></defs><title>LogoWeb</title><rect class="cls-1" x="19.1" y="44.43" width="147.19" height="26.99"/><path class="cls-1" d="M165.9,17.1V44.52H19.49V17.1H165.9m.39-.4H19.1V44.92H166.29V16.7Z"/><text class="cls-2" transform="translate(19.1 80.91)">Genetic Network for Malaria Elimination</text><text class="cls-3" transform="translate(21.38 42.4)">GEN</text><text class="cls-4" transform="translate(21.49 69.12)">MAL</text><circle class="cls-5" cx="120.02" cy="44.86" r="20.63"/><circle class="cls-6" cx="120.02" cy="44.86" r="12.87"/><circle class="cls-5" cx="150.69" cy="67.66" r="6.79"/><rect class="cls-5" x="131.54" y="58.3" width="19.14" height="4.34" transform="matrix(0.84, 0.54, -0.54, 0.84, 54.51, -66.29)"/><rect class="cls-5" x="148.73" y="56.61" width="19.14" height="4.34" transform="translate(303.56 -27.3) rotate(128.98)"/><circle class="cls-5" cx="164.22" cy="50.77" r="9.39"/><circle class="cls-7" cx="164.22" cy="50.77" r="5.86"/><circle class="cls-8" cx="150.69" cy="67.66" r="4.44"/><rect class="cls-9" x="19.1" y="44.43" width="147.19" height="26.99"/><path class="cls-9" d="M165.9,17.1V44.52H19.49V17.1H165.9m.39-.4H19.1V44.92H166.29V16.7Z"/><text class="cls-2" transform="translate(19.1 80.91)">Genetic Network for Malaria Elimination</text><text class="cls-10" transform="translate(21.38 42.4)">GEN</text><text class="cls-4" transform="translate(21.49 69.12)">MAL</text><circle class="cls-5" cx="120.02" cy="44.86" r="20.63"/><circle class="cls-11" cx="120.02" cy="44.86" r="12.87"/><circle class="cls-5" cx="150.69" cy="67.66" r="6.79"/><rect class="cls-5" x="131.54" y="58.3" width="19.14" height="4.34" transform="matrix(0.84, 0.54, -0.54, 0.84, 54.51, -66.29)"/><rect class="cls-5" x="148.73" y="56.61" width="19.14" height="4.34" transform="translate(303.56 -27.3) rotate(128.98)"/><circle class="cls-5" cx="164.22" cy="50.77" r="9.39"/><circle class="cls-12" cx="164.22" cy="50.77" r="5.86"/><circle class="cls-7" cx="150.69" cy="67.66" r="4.44"/></svg>