<svg id="Layer_1" data-name="Layer 1" xmlns="http://www.w3.org/2000/svg" xmlns:xlink="http://www.w3.org/1999/xlink" viewBox="0 0 300 300"><defs><style>.cls-1{fill:none;}.cls-2{fill:#fff;}.cls-3{fill:#231f20;}.cls-4{clip-path:url(#clip-path);}.cls-5{fill:#115e67;}.cls-6{fill:#136068;}.cls-7{fill:#155e67;}</style><clipPath id="clip-path"><rect class="cls-1" x="52.46" y="112.06" width="195.07" height="75.88"/></clipPath></defs><title>Artboard 12</title><rect class="cls-2" x="0.13" y="0.13" width="299.75" height="299.75"/><path class="cls-3" d="M299.75.25v299.5H.25V.25h299.5M300,0H0V300H300V0Z"/><g class="cls-4"><g class="cls-4"><path class="cls-5" d="M97.26,181.32c0-.35.1-.64.14-.94a9.46,9.46,0,0,0-.31-3.59A11.34,11.34,0,0,0,94,171.55c-.66-.65-1.39-1.22-2.11-1.8s-1.21-1-1.8-1.47a14.3,14.3,0,0,1-2.18-2.22,9.06,9.06,0,0,1-1.6-3,7.05,7.05,0,0,1,.61-5.43,8.59,8.59,0,0,1,4.37-3.86,5.4,5.4,0,0,1,1-.36.71.71,0,0,1-.18.4,10.86,10.86,0,0,0-1.27,2.77,6.29,6.29,0,0,0,.17,4.32,6.78,6.78,0,0,0,2,2.61c.79.64,1.59,1.28,2.37,1.93a18.28,18.28,0,0,1,2.25,2.15,9.49,9.49,0,0,1,2.18,4.78,11,11,0,0,1-1,6.4,10.78,10.78,0,0,1-1.21,2.11,1.35,1.35,0,0,1-.45.48"/><path class="cls-5" d="M154.3,162.62a1.4,1.4,0,0,0-.32.5l-2.26,4.25-.19.35a.29.29,0,0,1-.27.16H150a.31.31,0,0,1-.31-.19c-.07-.12-.13-.24-.2-.35q-1.2-2.11-2.41-4.23a1,1,0,0,0-.28-.42c-.13,0-.08.15-.08.23-.06,1.38-.1,2.76-.15,4.14l-.18,4.07a1.77,1.77,0,0,0,0,.23c0,.14-.1.19-.23.2h-2.55c-.19,0-.24-.05-.23-.24,0-.79.07-1.58.11-2.37,0-.17,0-.34,0-.51q.15-3.18.28-6.34c.07-1.38.14-2.76.2-4.13,0-.08,0-.15,0-.23a.17.17,0,0,1,.19-.17h2.55a.4.4,0,0,1,.4.24l.61,1.09,2.64,4.75a1,1,0,0,0,.25.37c.17-.06.2-.22.27-.35l3-5.57c.34-.62.18-.52.9-.52h2.21c.14,0,.2.09.21.22,0,.45.06.9.08,1.35l.27,6.35c.09,1.86.19,3.73.28,5.6a2.62,2.62,0,0,1,0,.28.17.17,0,0,1-.18.18H154.9a.15.15,0,0,1-.15-.15c0-.32-.06-.64-.07-1-.05-1.32-.1-2.64-.16-4-.05-1.17-.11-2.34-.17-3.51a2.93,2.93,0,0,0,0-.35"/><path class="cls-5" d="M220,162.54c0,.18,0,.36,0,.54v7.83c0,.7.07.65-.63.65h-2.21c-.25,0-.29-.05-.3-.3V157.88c0-.27,0-.31.28-.31h2.5a.43.43,0,0,1,.41.24l.29.42,5.22,7.82c.09.13.14.38.33.32s.06-.27.06-.42v-7.88c0-.49,0-.49.5-.49h2.44c.11,0,.18.06.18.17s0,.26,0,.4V171c0,.58,0,.56-.55.56h-2a.58.58,0,0,1-.56-.3c-1.05-1.59-2.12-3.17-3.18-4.75l-2.53-3.77-.17-.22-.1,0"/><path class="cls-5" d="M110.78,121.65c-.12.41-.19.71-.29,1a25,25,0,0,1-7,11,24.13,24.13,0,0,1-8.84,5.27c-.2.07-.4.23-.64.13a2.08,2.08,0,0,1,.13-.6,24.63,24.63,0,0,1,7.41-11.59,24.33,24.33,0,0,1,8.66-5l.54-.16"/><path class="cls-5" d="M72.22,121.73a.91.91,0,0,1,.49.07,24.21,24.21,0,0,1,7.89,4.36,24.9,24.9,0,0,1,7.87,11.22c.18.5.31,1,.47,1.51,0,.14,0,.21-.19.17-.79-.26-1.57-.54-2.33-.87a25.3,25.3,0,0,1-14-15.88l-.16-.58"/><path class="cls-5" d="M157.8,132.28v-7.59c0-.15,0-.3,0-.45a.17.17,0,0,1,.18-.18h0c.8,0,1.59,0,2.38,0,.22,0,.27,0,.28.26s0,.27,0,.4v11.67c0,.77.09.68-.7.69h-1.42c-.67,0-.53,0-.86-.45-1.18-1.74-2.34-3.48-3.51-5.22l-1.48-2.21-.35-.51c-.19.06-.12.2-.12.3v7.47c0,.16,0,.31,0,.46a.16.16,0,0,1-.15.14H152c-.79,0-1.59,0-2.38,0-.23,0-.27,0-.28-.25V124.69c0-.66-.09-.64.65-.64.58,0,1.17,0,1.75,0a.65.65,0,0,1,.65.34c.42.65.86,1.29,1.29,1.93q1.85,2.79,3.71,5.56l.32.45.1-.05"/><path class="cls-5" d="M94.75,126.82a21.07,21.07,0,0,1-2.93,10.77,3,3,0,0,1-.24.38.1.1,0,0,1-.18,0,1.2,1.2,0,0,1-.15-.24,21,21,0,0,1-3-10.32,21,21,0,0,1,3-11.34c0-.06.08-.13.12-.18s.14-.08.19,0,.17.26.25.39a21,21,0,0,1,2.63,7.25,26.33,26.33,0,0,1,.29,3.3"/><path class="cls-5" d="M160.92,164.57v-6.74c0-.21.06-.25.28-.26h9.13a.19.19,0,0,1,.18.18v2.33c0,.18-.06.24-.23.25h-5.5c-.77,0-.68-.05-.68.72,0,.56,0,1.13,0,1.7,0,.25.05.3.29.3h4.31c.34,0,.36,0,.37.35v1.87c0,.5,0,.48-.51.48h-4.25a.21.21,0,0,0-.21.22v.17c0,.75,0,1.51,0,2.27,0,.33,0,.36.34.37h6.35a.16.16,0,0,1,.17.18.09.09,0,0,1,0,.05v2.27c0,.22-.05.26-.27.27h-9.13c-.7,0-.65,0-.65-.64v-6.35"/><path class="cls-5" d="M232.31,164.53v-6.46c0-.52,0-.5.49-.5h8.9c.11,0,.16.08.17.19v2.32c0,.19-.05.24-.23.25h-5.95a.19.19,0,0,0-.2.22v2.27c0,.17.06.21.25.22h4.08a3.46,3.46,0,0,1,.46,0c.1,0,.16.07.18.18v.17c0,.66,0,1.32,0,2,0,.33,0,.34-.36.35h-4.42a.18.18,0,0,0-.19.17v2.55c0,.25,0,.29.3.3h6.29c.22,0,.25,0,.25.28,0,.73,0,1.47,0,2.21,0,.26,0,.28-.3.29h-9.29c-.42,0-.42,0-.43-.4v-6.63Z"/><path class="cls-5" d="M124.84,141.61a.57.57,0,0,1-.44.1c-7.31.07-28.55,0-29.12,0,0-.16.14-.21.24-.28a22.7,22.7,0,0,1,3.61-2,27.15,27.15,0,0,1,7.34-2,28.25,28.25,0,0,1,5.2-.18,26.43,26.43,0,0,1,10.73,2.92,19.25,19.25,0,0,1,1.95,1.16l.49.35"/><path class="cls-5" d="M58.12,141.71a1.45,1.45,0,0,1,.53-.46,22.71,22.71,0,0,1,5-2.48,27.42,27.42,0,0,1,10.9-1.59,26,26,0,0,1,11.44,3.27c.53.3,1,.64,1.54,1,.09.06.2.11.22.23s0,.07-.08.07H58.12"/><path class="cls-5" d="M206,162c-.15-.16-.29-.34-.45-.5a4,4,0,0,0-2-1.25,4.29,4.29,0,0,0-2.51.09,3.7,3.7,0,0,0-2.18,2,4.91,4.91,0,0,0-.07,4.17,3.71,3.71,0,0,0,3.5,2.36,4.07,4.07,0,0,0,3.41-1.46,1,1,0,0,1,.42-.37,1.89,1.89,0,0,1,.44.35l1.5,1.38c.2.18.2.2,0,.42a6.83,6.83,0,0,1-2.13,1.76,7.54,7.54,0,0,1-6.66.36,6.41,6.41,0,0,1-3.82-4.16,7.86,7.86,0,0,1,.27-5.8,6.7,6.7,0,0,1,5.23-4,8,8,0,0,1,3.86.24,6.3,6.3,0,0,1,2.95,1.93l.24.31a.19.19,0,0,1,0,.3L206.07,162s-.07,0-.12.05"/><path class="cls-5" d="M217.38,128.57v3.57a5.63,5.63,0,0,1-.29,2,4.74,4.74,0,0,1-3.4,3.12,6.44,6.44,0,0,1-4.07-.17,4.68,4.68,0,0,1-3-3.54,5.2,5.2,0,0,1-.13-1.18v-7.87a1.69,1.69,0,0,1,0-.23.16.16,0,0,1,.14-.15l.28,0H209l.28,0a.18.18,0,0,1,.15.15v.51c0,2.31,0,4.61,0,6.92a5.59,5.59,0,0,0,.13,1.29,2.06,2.06,0,0,0,1.88,1.63,5.13,5.13,0,0,0,1,0,2.06,2.06,0,0,0,1.9-1.74,5.82,5.82,0,0,0,.11-1.18v-6.91c0-.73-.09-.68.66-.69h1.81l.34,0c.11,0,.16.08.17.19v4.31"/><path class="cls-5" d="M233,130.55v-6.18c0-.28,0-.3.34-.32h8.38a.19.19,0,0,1,.18.19.37.37,0,0,1,0,.11v2c0,.25,0,.29-.3.3h-5.16c-.5,0-.5,0-.5.49V129c0,.18.06.22.25.23h4.08c.26,0,.3,0,.3.29s0,.22,0,.34v1.24c0,.67.05.63-.6.63h-3.74c-.26,0-.3,0-.3.3v2.21c0,.22,0,.26.26.27h5.61c.5,0,.5,0,.51.49s0,1.25,0,1.87c0,.18-.05.22-.24.23H233.2c-.11,0-.18-.06-.18-.17s0-.31,0-.46v-5.89"/><path class="cls-5" d="M162.81,135.25l1.84-2c.21,0,.29.18.41.29a4.76,4.76,0,0,0,2.23,1.17,2.76,2.76,0,0,0,1.56-.07,1.87,1.87,0,0,0,.72-.45,1.18,1.18,0,0,0-.09-1.76,2.74,2.74,0,0,0-.69-.39,12.17,12.17,0,0,0-1.77-.57,6.28,6.28,0,0,1-1.68-.67,3.5,3.5,0,0,1-1.65-2.08,3.8,3.8,0,0,1,1.6-4.25,4.25,4.25,0,0,1,1.35-.58,7,7,0,0,1,4.18.25,4.9,4.9,0,0,1,1.75,1.12c.17.17.18.22,0,.38l-1.41,1.55a.18.18,0,0,1-.29,0q-.21-.16-.42-.3a4.05,4.05,0,0,0-1.77-.72,2.15,2.15,0,0,0-1.32.18,1.63,1.63,0,0,0-.51.36,1,1,0,0,0-.07,1.33,1.73,1.73,0,0,0,.62.48,6.62,6.62,0,0,0,1.6.56,8.62,8.62,0,0,1,1.71.58,4.14,4.14,0,0,1,1.66,1.33,3.9,3.9,0,0,1-.64,5.14,5.13,5.13,0,0,1-2.77,1.2,7.61,7.61,0,0,1-3.94-.52,6.66,6.66,0,0,1-2.25-1.59"/><path class="cls-6" d="M133.66,153.32v-28.8c0-.87-.11-.73.75-.74l.23,0c.07,0,.09.06.11.11a.91.91,0,0,1,0,.17c0,.15,0,.3,0,.45q0,28.83,0,57.65c0,.94.13.79-.81.79-.26,0-.28,0-.29-.29s0-.34,0-.51Z"/><path class="cls-5" d="M198.73,124.05h5.15c.51,0,.51,0,.51.5s0,1.13,0,1.7c0,.39,0,.4-.42.4h-3c-.85,0-.76-.1-.76.75v9.18c0,.49,0,.49-.5.5h-2.16c-.3,0-.33,0-.34-.31V127.3c0-.7.06-.65-.63-.65h-3.35c-.17,0-.22-.07-.23-.25v-1.59c0-.83-.13-.75.75-.76h5"/><path class="cls-5" d="M225.18,124.05c1.72,0,3.44,0,5.16,0,.55,0,.51,0,.51.49v1.82c0,.25,0,.28-.31.29H227.2l-.4,0a.16.16,0,0,0-.14.15c0,.17,0,.34,0,.51v9.12c0,.66.07.63-.6.63H224c-.24,0-.27,0-.28-.26v-9.52c0-.67.06-.64-.65-.64h-3.4a.19.19,0,0,1-.18-.18v0c0-.7,0-1.4,0-2.1,0-.19.06-.24.23-.25h5.5"/><path class="cls-5" d="M180,124.05h5.44c.19,0,.24.06.25.23v.12c0,.62,0,1.25,0,1.87,0,.35,0,.36-.39.37H181.7a.17.17,0,0,0-.17.19c0,.17,0,.34,0,.51v9.07c0,.7.08.64-.62.65h-2.05c-.26,0-.29,0-.29-.29s0-.3,0-.45v-9c0-.15,0-.3,0-.45s-.05-.26-.28-.26h-3.63c-.26,0-.31-.05-.32-.28v-2c0-.23.05-.26.27-.27H180"/><path class="cls-5" d="M88,172.09a.88.88,0,0,1,.22,0A10.82,10.82,0,0,1,93,175.74a10.43,10.43,0,0,1,1.84,4.46,11.57,11.57,0,0,1,.15,2.2c0,.26,0,.3-.29.31h-7c-.19,0-.24-.06-.24-.23a2.64,2.64,0,0,1,0-.4c0-1.15.11-2.3.16-3.45.06-1.34.11-2.68.16-4,0-.83.08-1.65.13-2.52"/><path class="cls-5" d="M218.71,149.33l1.53,1.4a.19.19,0,0,1,0,.3c-.21.22-.4.46-.62.65a6,6,0,0,1-4.72,1.5,5.49,5.49,0,0,1-1.7-.41,5.23,5.23,0,0,1-3.08-3.35,6.26,6.26,0,0,1,.2-4.6,5.4,5.4,0,0,1,4.84-3.36,6.48,6.48,0,0,1,2.36.23,5.23,5.23,0,0,1,2.56,1.69l.15.23a11.2,11.2,0,0,1-1.7,1.66c-.16-.18-.32-.37-.49-.54a3.25,3.25,0,0,0-3.24-.86,2.89,2.89,0,0,0-1.54,1,3.6,3.6,0,0,0-.74,1.64,4,4,0,0,0,.37,2.64,2.92,2.92,0,0,0,2.6,1.63,3.91,3.91,0,0,0,1.18-.11,3.21,3.21,0,0,0,1.41-.8c.18-.17.37-.33.61-.54"/><path class="cls-5" d="M164.35,141.71h4.7a.21.21,0,0,1,.21.22v1.81a.2.2,0,0,1-.21.22h-3.12c-.26,0-.28,0-.29.31v8.16c0,.5,0,.5-.49.5h-1.81c-.22,0-.26-.05-.27-.27v-8c0-.17,0-.34,0-.51a.17.17,0,0,0-.17-.18H159.6a.16.16,0,0,1-.15-.14,2.81,2.81,0,0,1,0-.29v-1.36c0-.45,0-.45.48-.45h4.43Z"/><path class="cls-5" d="M210.42,164.54v-6.46c0-.55,0-.51.53-.51h2.49a.16.16,0,0,1,.15.14c0,.12,0,.23,0,.34v13c0,.51,0,.52-.54.52h-2.15l-.34,0a.14.14,0,0,1-.14-.14c0-.17,0-.34,0-.51v-6.35"/><path class="cls-5" d="M192.34,164.6v6.46c0,.51,0,.5-.5.5h-2.38c-.25,0-.29-.05-.3-.3V157.89c0-.29,0-.32.33-.32H192c.26,0,.29,0,.3.29v6.74Z"/><path class="cls-5" d="M234,147.31v-5.1c0-.5,0-.5.5-.5h1.81c.19,0,.23.06.24.24s0,.3,0,.45v7.76c0,.52,0,.51.49.51h4.36c.49,0,.51,0,.5.49v1.53c0,.19-.05.23-.24.24H234.5c-.52,0-.53,0-.53-.53v-5.09"/><path class="cls-5" d="M143.35,130.55v-6.23c0-.21.06-.26.29-.26q1.22,0,2.43,0c.18,0,.24.06.25.24v12.52c0,.21,0,.25-.28.25-.8,0-1.59,0-2.38,0-.26,0-.3,0-.31-.29v-6.23"/><path class="cls-5" d="M190.83,130.59v6.22c0,.22,0,.26-.27.26-.82,0-1.63,0-2.44,0-.19,0-.23,0-.24-.23V124.38c0-.29,0-.32.33-.32.77,0,1.55,0,2.32,0,.26,0,.29,0,.3.3v6.23Z"/><path class="cls-5" d="M171.21,180.48l.45-2.16c.15-.76.3-1.52.46-2.28.06-.29.07-.3.37-.3h1.23a.64.64,0,0,1,0,.48c-.51,2-1,4.06-1.55,6.09,0,.09,0,.18-.08.27a.19.19,0,0,1-.17.13c-.45,0-.9,0-1.36,0-.13,0-.19-.1-.22-.22-.11-.46-.23-.91-.35-1.37-.22-.84-.44-1.68-.67-2.52a1.52,1.52,0,0,0-.06-.2c-.14.06-.15.18-.17.29-.31,1.15-.61,2.3-.92,3.45,0,.12-.08.25-.11.38a.23.23,0,0,1-.23.2h-1.31a.2.2,0,0,1-.2-.17c0-.14-.08-.29-.11-.44q-.75-3-1.49-5.93a.57.57,0,0,1,0-.41,10,10,0,0,1,1.45,0c.14,0,.18.11.2.23.12.57.24,1.15.35,1.72.19.92.38,1.85.58,2.77a.28.28,0,0,1,0,.2c0-.07,0-.14.06-.19.23-.88.45-1.76.68-2.63.16-.62.31-1.24.47-1.87a7.18,7.18,0,0,1,1.39,0,1.14,1.14,0,0,1,.18.46c.34,1.36.69,2.71,1,4.06a.21.21,0,0,1,0,.2c0-.07,0-.14.07-.19"/><path class="cls-5" d="M152.27,178.24v3.82c0,.15,0,.3,0,.45s0,.19-.16.19h-1.24a.14.14,0,0,1-.14-.15,2.46,2.46,0,0,1,0-.28V176.2a2.62,2.62,0,0,1,0-.28.18.18,0,0,1,.18-.18H152a.33.33,0,0,1,.28.16l.22.33,2.26,3.39a1.62,1.62,0,0,0,.34.44c.13-.05.09-.16.09-.24v-3.57c0-.51,0-.51.49-.51h.73c.32,0,.34,0,.34.36a1,1,0,0,1,0,.17v5.9a2.62,2.62,0,0,1,0,.28c0,.19-.06.25-.22.26h-1a.33.33,0,0,1-.29-.15c-.08-.11-.15-.22-.22-.33-.78-1.16-1.55-2.32-2.34-3.48a1.63,1.63,0,0,0-.42-.51"/><path class="cls-5" d="M207.65,147.37v4.93c0,.15,0,.3,0,.45a.16.16,0,0,1-.18.17c-.72,0-1.43,0-2.15,0-.14,0-.19-.09-.19-.22v-.39c0-3.32,0-6.64,0-10,0-.7-.07-.63.63-.63h1.65c.18,0,.24.06.25.23v5.43"/><path class="cls-5" d="M174.84,179.21v-2.89c0-.14,0-.27,0-.4a.18.18,0,0,1,.18-.18h4.19l.23,0a.16.16,0,0,1,.14.15c0,.36,0,.71,0,1.07a.14.14,0,0,1-.15.13l-.4,0h-2.26c-.31,0-.35,0-.34.32a3.38,3.38,0,0,0,0,.95,2.3,2.3,0,0,0,.94.07c.41,0,.83,0,1.25,0,.17,0,.24.06.23.24,0,1.32.25,1.07-1,1.1h-1.19c-.2,0-.24.05-.25.22s0,0,0,.06a6,6,0,0,0,0,1.12,2.61,2.61,0,0,0,1.11.08c.66,0,1.32,0,2,0,.23,0,.28,0,.27.26,0,1.39.27,1.13-1.09,1.15-1.09,0-2.19,0-3.28,0H175a.16.16,0,0,1-.14-.15c0-.13,0-.27,0-.4v-2.94"/><path class="cls-7" d="M161,175.73h2.49l.4,0a.14.14,0,0,1,.14.14.9.9,0,0,1,0,.23c0,1.23.19,1-1,1h-.79c-.45,0-.45,0-.45.43,0,.11,0,.22,0,.34,0,1.37,0,2.75,0,4.13,0,.15,0,.31,0,.46a.17.17,0,0,1-.17.19c-.41,0-.83,0-1.24,0-.12,0-.16-.09-.17-.19v-4.76c0-.62,0-.6-.57-.6h-1.25c-.43,0-.44,0-.44-.44a3.86,3.86,0,0,1,0-.9,1.8,1.8,0,0,1,.89-.07c.7,0,1.4,0,2.1,0"/><path class="cls-7" d="M150.78,144.91c0-.89,0-1.78,0-2.66,0-.13,0-.27,0-.4a.14.14,0,0,1,.15-.13h4a.15.15,0,0,1,.15.14,1,1,0,0,1,0,.17c0,1.13.19,1-.93,1H152.5c-.22,0-.27,0-.27.27,0,1.4-.26,1.11,1.08,1.15h.85c.14,0,.22.07.22.2,0,.29,0,.57,0,.85a.17.17,0,0,1-.17.19h-1.52c-.45,0-.46,0-.46.48v1.36c0,.13,0,.26,0,.39a.2.2,0,0,1-.22.21h-1a.19.19,0,0,1-.21-.21v-3"/><path class="cls-5" d="M167.35,180.48s0,.13,0,.13-.07-.08-.06-.14h.1"/><path class="cls-5" d="M171.21,180.48c0,.05,0,.13,0,.14s-.07-.09-.07-.15h.11"/><path class="cls-5" d="M92.91,159.61l.27-.47a10.17,10.17,0,0,0,1.33-3.89,7,7,0,0,0-.31-3.3A4.26,4.26,0,0,0,91,149.12a3.78,3.78,0,0,0-2.94.51.91.91,0,0,0-.45.67,7.15,7.15,0,0,1-.51,1.79,3.6,3.6,0,0,1-1,1.37c-.55.46-1.12.9-1.71,1.31-1,.67-2,1.3-3,1.93l-.35.19a1.62,1.62,0,0,1-2.38-1.25,3.48,3.48,0,0,1,.08-1.4,15.25,15.25,0,0,1,.83-2.29,16.24,16.24,0,0,1,3.19-4.79,10.7,10.7,0,0,1,5.22-3,8.94,8.94,0,0,1,4.76.05,7.2,7.2,0,0,1,4.63,4.2,8.58,8.58,0,0,1-4.22,11.17s-.1,0-.25.05m-11.48-7.53a.88.88,0,0,0,1.51.41A1.35,1.35,0,0,0,83.3,151a.86.86,0,0,0-1.38-.42,1.39,1.39,0,0,0-.54,1.16c0,.08,0,.2.05.31"/><path class="cls-5" d="M173.62,164.54v-6.46c0-.51,0-.52.49-.52h5a9.28,9.28,0,0,1,3,.46,5.83,5.83,0,0,1,4.07,4.27,8.64,8.64,0,0,1,0,4.43,6,6,0,0,1-4,4.33,8.81,8.81,0,0,1-3,.5h-5.33a.17.17,0,0,1-.14-.15,4.35,4.35,0,0,1,0-.51v-6.35m3.18,1c0,.95,0,1.89,0,2.84,0,.32,0,.35.36.35.57,0,1.14,0,1.7,0a5.73,5.73,0,0,0,1.84-.31,3.48,3.48,0,0,0,2.19-2.36,5.33,5.33,0,0,0,.08-2.69,3.48,3.48,0,0,0-2.67-2.84,13.77,13.77,0,0,0-3.33-.17c-.1,0-.16.09-.17.2v5Z"/><path class="cls-5" d="M181.17,147.32a5.6,5.6,0,0,1,1.42-3.95,5.52,5.52,0,0,1,3.85-1.92,5.72,5.72,0,0,1,6.33,5.13,5.9,5.9,0,0,1-.66,3.62,5.55,5.55,0,0,1-4.37,3,5.76,5.76,0,0,1-6.57-5.34c0-.17,0-.34,0-.51m8.57-1.85a2.91,2.91,0,0,0-2.74-1.69,2.86,2.86,0,0,0-2.78,1.69,4,4,0,0,0,.08,3.8,3.07,3.07,0,0,0,5.29.1,4,4,0,0,0,.56-2.12,3.62,3.62,0,0,0-.41-1.78"/><path class="cls-5" d="M179.78,152.87c-.08.08-.17.06-.26.06-.7,0-1.4,0-2.1,0a.51.51,0,0,1-.52-.33c-.48-1-1-2-1.48-2.93a2.74,2.74,0,0,0-.47-.83l-1,0h-.22a.17.17,0,0,0-.17.18c0,.15,0,.31,0,.46v2.94c0,.11,0,.23,0,.34s-.07.16-.18.17h-2c-.19,0-.24-.06-.25-.23V142.33c0-.69-.06-.62.65-.62h3.45a5.51,5.51,0,0,1,1.57.21,3.34,3.34,0,0,1,2.43,3.69,3.42,3.42,0,0,1-1.57,2.68l-.09.07a.17.17,0,0,0-.07.24c.07.13.14.27.22.4l1.91,3.46c.07.13.19.24.17.41m-6.19-7.6v1.3a.19.19,0,0,0,.21.21c.51,0,1,0,1.53,0a1.37,1.37,0,0,0,1.27-1,1.84,1.84,0,0,0,.05-.62,1.32,1.32,0,0,0-1.26-1.28c-.51,0-1,0-1.53,0-.23,0-.26,0-.27.26v1.19Z"/><path class="cls-5" d="M232.27,152.86a.22.22,0,0,1-.21.07h-2.21c-.29,0-.29,0-.39-.3l-.62-1.83-.12-.31a.21.21,0,0,0-.17-.13h-3.41c-.38,0-.39,0-.51.38l-.63,1.88c-.1.3-.11.31-.44.31h-2l-.21,0a.74.74,0,0,1,.09-.4q1.92-5.17,3.86-10.35a2,2,0,0,1,.1-.26.26.26,0,0,1,.26-.18h2.44a.2.2,0,0,1,.21.15l.15.37q1.86,5.1,3.73,10.21a.92.92,0,0,1,.12.42m-6.73-4.48h2.38c.07,0,.11-.06.1-.12A2.61,2.61,0,0,0,228,148c-.36-1.12-.72-2.23-1.07-3.34a.71.71,0,0,0-.19-.33c-.45,1.25-.82,2.51-1.25,3.75a.39.39,0,0,0,0,.28l.1,0"/><path class="cls-5" d="M195,147.37v-5.16c0-.5,0-.5.49-.5h3.57a5.1,5.1,0,0,1,1.51.21A3.28,3.28,0,0,1,203,145a4.31,4.31,0,0,1-.06,1.24,3.29,3.29,0,0,1-1.88,2.34,3.69,3.69,0,0,1-1.53.39h-1.75c-.24,0-.28.06-.29.31s0,.27,0,.4v2.61c0,.15,0,.3,0,.45a.16.16,0,0,1-.18.17c-.7,0-1.4,0-2.09,0a.16.16,0,0,1-.18-.17c0-.15,0-.3,0-.46v-4.92m2.48-2.05c0,.47,0,.94,0,1.42a.16.16,0,0,0,.17.17c.53,0,1.06,0,1.58,0a1.4,1.4,0,0,0,1.23-1.4,1.55,1.55,0,0,0-1-1.64.78.78,0,0,0-.22,0l-1.52,0a.19.19,0,0,0-.21.21v1.3Z"/><path class="cls-5" d="M185.08,180c.37.67.75,1.36,1.14,2,.09.17.18.33.26.5s0,.16-.09.16H185a.33.33,0,0,1-.3-.22c-.3-.61-.61-1.21-.92-1.82a3.84,3.84,0,0,0-.18-.35.28.28,0,0,0-.27-.17c-.75,0-.68-.09-.68.64,0,.55,0,1.1,0,1.64,0,.23,0,.28-.26.28h-1c-.17,0-.22-.06-.23-.25s0-.23,0-.34v-5.78a2.61,2.61,0,0,1,0-.28c0-.29,0-.32.33-.32.76,0,1.51,0,2.27,0a3.37,3.37,0,0,1,.62.07,2.21,2.21,0,0,1,1,3.91c-.09.07-.2.11-.25.27m-2.18-2.93c-.13,0-.22.06-.22.2,0,.49,0,1,0,1.46a.14.14,0,0,0,.14.15,8.49,8.49,0,0,0,1,0,.87.87,0,0,0,.74-1,.84.84,0,0,0-.83-.83h-.85"/><path class="cls-5" d="M146.22,141.55a3.25,3.25,0,0,1,3.31,3.36,3.33,3.33,0,1,1-6.65,0,3.25,3.25,0,0,1,3.34-3.33m1.74,2.84a1.75,1.75,0,0,0-1.62-1.48,1.72,1.72,0,0,0-1.84,1.27,2.36,2.36,0,0,0,0,1.44,1.75,1.75,0,0,0,3.37,0,2.58,2.58,0,0,0,.13-.8c0-.14,0-.31,0-.48"/><path class="cls-5" d="M146.2,181.12h-1a.3.3,0,0,0-.33.24c-.11.36-.24.72-.35,1.08a.34.34,0,0,1-.37.28c-.37,0-.75,0-1.13,0-.18,0-.22-.07-.15-.26s.13-.36.19-.53q1.07-2.83,2.12-5.67a1.48,1.48,0,0,0,.1-.27.31.31,0,0,1,.33-.25H147a.24.24,0,0,1,.26.17l.1.27c.75,2,1.49,4.07,2.24,6.11a1.38,1.38,0,0,1,.08.27c0,.08,0,.14-.12.15h-1.36a.26.26,0,0,1-.24-.2c-.09-.25-.17-.5-.25-.75s-.11-.28-.15-.43a.26.26,0,0,0-.29-.21Zm.36-1.23a.71.71,0,0,0,.43,0,11,11,0,0,0-.8-2.41c0,.11-.09.21-.13.31l-.63,2s0,.07,0,.16c.37,0,.74,0,1.11,0"/><path class="cls-5" d="M187.73,179.25v-2.89c0-.15,0-.3,0-.45a.17.17,0,0,1,.19-.17h2.21a3.54,3.54,0,0,1,.73.07,2.09,2.09,0,0,1,1.83,2.28,2.15,2.15,0,0,1-2.13,2.15c-.35,0-.71,0-1.07,0-.19,0-.24.05-.24.23,0,.53,0,1.06,0,1.59v.45a.18.18,0,0,1-.19.17h-1.13c-.14,0-.19-.1-.19-.23s0-.26,0-.4v-2.83m1.75-2.2c-.13,0-.22,0-.22.19v1.52c0,.14.06.22.2.22a7.82,7.82,0,0,0,.84,0,1,1,0,0,0-.09-1.92c-.11,0-.22,0-.34,0s-.26,0-.39,0"/></g></g></svg>