<svg xmlns="http://www.w3.org/2000/svg" xmlns:xlink="http://www.w3.org/1999/xlink" viewBox="0 0 300 250"><defs><style>.cls-1{clip-path:url(#clip-path);}.cls-2{fill:none;}.cls-3{isolation:isolate;}.cls-4{fill:url(#linear-gradient);}.cls-5{fill:url(#linear-gradient-2);}.cls-6{fill:#231f20;}.cls-7{fill:url(#linear-gradient-3);}.cls-8{fill:url(#linear-gradient-4);}.cls-9{fill:url(#linear-gradient-5);}.cls-10{clip-path:url(#clip-path-2);}.cls-11{fill:#939598;}.cls-12{fill:#a91d36;}.cls-13{clip-path:url(#clip-path-4);}.cls-14{fill:url(#linear-gradient-6);}.cls-15{clip-path:url(#clip-path-5);}.cls-16{mix-blend-mode:soft-light;}.cls-17{clip-path:url(#clip-path-6);}.cls-18{clip-path:url(#clip-path-7);}.cls-19{fill:url(#radial-gradient);}.cls-20{clip-path:url(#clip-path-8);}.cls-21{mask:url(#mask);}.cls-22{clip-path:url(#clip-path-9);}.cls-23{mask:url(#mask-2);}.cls-24{mask:url(#mask-3);}.cls-25{clip-path:url(#clip-path-11);}.cls-26{mask:url(#mask-4);}.cls-27{fill:url(#linear-gradient-7);}.cls-28{clip-path:url(#clip-path-13);}.cls-29{mask:url(#mask-5);}.cls-30{clip-path:url(#clip-path-14);}.cls-31{fill:url(#linear-gradient-8);}</style><clipPath id="clip-path"><rect class="cls-2" x="37.64" y="79.61" width="21.74" height="14.98"/></clipPath><linearGradient id="linear-gradient" x1="-660.35" y1="42.38" x2="-659.95" y2="42.38" gradientTransform="translate(-1301.56 -20938.57) rotate(-90) scale(31.86)" gradientUnits="userSpaceOnUse"><stop offset="0" stop-color="#231f20"/><stop offset="0.02" stop-color="#2f2b2c"/><stop offset="0.15" stop-color="#6d6b6b"/><stop offset="0.28" stop-color="#a1a0a0"/><stop offset="0.4" stop-color="#cac9c9"/><stop offset="0.5" stop-color="#e7e7e7"/><stop offset="0.59" stop-color="#f9f9f9"/><stop offset="0.66" stop-color="#fff"/><stop offset="1" stop-color="#fff"/></linearGradient><linearGradient id="linear-gradient-2" x1="-660.35" y1="6.26" x2="-659.95" y2="6.26" gradientTransform="matrix(0, -31.86, -31.86, 0, 247.96, -20938.57)" gradientUnits="userSpaceOnUse"><stop offset="0"/><stop offset="0.07" stop-color="#2b2b2b"/><stop offset="0.19" stop-color="#6a6a6a"/><stop offset="0.31" stop-color="#a0a0a0"/><stop offset="0.42" stop-color="#c9c9c9"/><stop offset="0.51" stop-color="#e7e7e7"/><stop offset="0.6" stop-color="#f9f9f9"/><stop offset="0.66" stop-color="#fff"/><stop offset="1" stop-color="#fff"/></linearGradient><linearGradient id="linear-gradient-3" x1="-653.78" y1="24.31" x2="-652.78" y2="24.31" gradientTransform="translate(-261.59 -8242.53) rotate(-90) scale(12.76)" gradientUnits="userSpaceOnUse"><stop offset="0" stop-color="#231f20"/><stop offset="0.02" stop-color="#2e2a2b"/><stop offset="0.15" stop-color="#6d6a6b"/><stop offset="0.28" stop-color="#a19fa0"/><stop offset="0.4" stop-color="#cac9c9"/><stop offset="0.5" stop-color="#e7e6e7"/><stop offset="0.59" stop-color="#f9f9f9"/><stop offset="0.66" stop-color="#fff"/><stop offset="1" stop-color="#fff"/></linearGradient><linearGradient id="linear-gradient-4" x1="-653.78" y1="24.31" x2="-652.78" y2="24.31" gradientTransform="matrix(0, -12.76, -12.76, 0, 358.9, -8242.53)" xlink:href="#linear-gradient-3"/><linearGradient id="linear-gradient-5" x1="-660.69" y1="53.53" x2="-660.29" y2="53.53" gradientTransform="translate(-1007.67 -12884.6) rotate(-90) scale(19.72)" gradientUnits="userSpaceOnUse"><stop offset="0" stop-color="#231f20"/><stop offset="0.15" stop-color="#585556"/><stop offset="0.3" stop-color="#8a8889"/><stop offset="0.46" stop-color="#b4b3b3"/><stop offset="0.61" stop-color="#d5d4d4"/><stop offset="0.75" stop-color="#ececec"/><stop offset="0.89" stop-color="#fafafa"/><stop offset="1" stop-color="#fff"/></linearGradient><clipPath id="clip-path-2"><rect class="cls-2" x="-2.19" y="56.85" width="290.38" height="94.92"/></clipPath><clipPath id="clip-path-4"><path class="cls-2" d="M19.7,70.24q0,16.64,0,33.26c0,8,0,17.36,7.63,27.46,6.21,8.16,17.3,15.76,20,15.74s16.93-7.85,23.46-18.38c5.92-9.85,5.64-19.64,5.65-24.82V70.25a130.25,130.25,0,0,0-56.72,0"/></clipPath><linearGradient id="linear-gradient-6" x1="-655.51" y1="26.1" x2="-655.1" y2="26.1" gradientTransform="matrix(0, -226.8, 226.8, 0, -5871.83, -148521.57)" gradientUnits="userSpaceOnUse"><stop offset="0" stop-color="#d18d29"/><stop offset="0.13" stop-color="#d18d29"/><stop offset="0.22" stop-color="#dfa326"/><stop offset="0.37" stop-color="#f0be21"/><stop offset="0.5" stop-color="#facf1f"/><stop offset="0.6" stop-color="#fed51e"/><stop offset="0.95" stop-color="#fdf6b0"/><stop offset="1" stop-color="#fdf6b0"/></linearGradient><clipPath id="clip-path-5"><rect class="cls-2" x="10.33" y="59.04" width="276.09" height="92.73"/></clipPath><clipPath id="clip-path-6"><rect class="cls-2" x="-14.94" y="41.61" width="126.22" height="129.58"/></clipPath><clipPath id="clip-path-7"><path class="cls-2" d="M47.77,67.12A130.32,130.32,0,0,0,19.7,70.24q0,16.64,0,33.26c0,8,0,17.36,7.63,27.46,6.2,8.15,17.27,15.74,20,15.74h0c2.7,0,16.93-7.88,23.44-18.38,5.44-9,5.65-18.06,5.65-23.48V70.25a130.32,130.32,0,0,0-28.13-3.13Z"/></clipPath><radialGradient id="radial-gradient" cx="-656.17" cy="26.71" r="0.4" gradientTransform="matrix(0, -167.35, 167.35, 0, -4420.53, -109670.31)" gradientUnits="userSpaceOnUse"><stop offset="0" stop-color="#d18d29"/><stop offset="0.13" stop-color="#d18d29"/><stop offset="0.22" stop-color="#dfa326"/><stop offset="0.37" stop-color="#f0be21"/><stop offset="0.5" stop-color="#facf1f"/><stop offset="0.6" stop-color="#fed51e"/><stop offset="0.65" stop-color="#fed82b"/><stop offset="0.74" stop-color="#fedf4f"/><stop offset="0.86" stop-color="#feea89"/><stop offset="1" stop-color="#fefad7"/></radialGradient><clipPath id="clip-path-8"><path class="cls-2" d="M54.44,94.59h0ZM45.83,83.53c.23,1.34,1.06,1.57,1,2.78-.06.59-.66,1.56-.93,2.62a3.25,3.25,0,0,0,.42,2.57c-3.91-2,1.84-7.88-4.48-9.12,2.92,2.12-2.43,4.81,1.06,9.12-3.07-1.09-.49-4.7-4.05-5.19.28.55,1.16.73.75,2-2,4.06,2.15,6.27,3,6.27H54.44c1.21,0,4.94-1.93,4.2-7-.32,1.76-1.62,2.78-3.23,3.69,2.77-4,2-5.25.11-6.63.77,4.19-2,2.72-2.31,6.67A4.6,4.6,0,0,1,53,88.78c.55-1.79.78-2.71.19-3.5-1.36-1.19-2.44-1.83-1.84-3.63a3,3,0,0,0-1.21,2.71c.24,2.08,1.75,1.67.13,3.87a6.49,6.49,0,0,0-1.09,2.45c-.74-2.39,1-2.76.35-5.44-.22-1-1.5-1.79-2-2.82s.18-2.19.36-2.81a4,4,0,0,0-2.12,3.92"/></clipPath><mask id="mask" x="37.24" y="79.21" width="22.54" height="15.78" maskUnits="userSpaceOnUse"><g class="cls-1"><rect x="37.24" y="79.21" width="22.54" height="15.78"/><g class="cls-3"><rect class="cls-4" x="37.64" y="79.61" width="21.74" height="14.98"/></g></g></mask><clipPath id="clip-path-9"><rect class="cls-2" x="37.64" y="79.61" width="21.74" height="14.98"/></clipPath><mask id="mask-2" x="37.64" y="79.61" width="21.74" height="14.98" maskUnits="userSpaceOnUse"><rect class="cls-5" x="37.64" y="79.61" width="21.74" height="14.98"/></mask><mask id="mask-3" x="36.64" y="78.61" width="23.74" height="16.98" maskUnits="userSpaceOnUse"><rect class="cls-6" x="36.64" y="78.61" width="23.74" height="16.98"/><g class="cls-3"><rect class="cls-7" x="37.64" y="79.61" width="21.74" height="14.98"/></g></mask><clipPath id="clip-path-11"><rect class="cls-2" x="37.64" y="79.61" width="21.74" height="14.98"/></clipPath><mask id="mask-4" x="37.64" y="79.61" width="21.74" height="14.98" maskUnits="userSpaceOnUse"><rect class="cls-8" x="37.64" y="79.61" width="21.74" height="14.98"/></mask><linearGradient id="linear-gradient-7" x1="-653.78" y1="24.31" x2="-652.78" y2="24.31" gradientTransform="matrix(0, -12.76, -12.76, 0, 358.9, -8242.53)" gradientUnits="userSpaceOnUse"><stop offset="0" stop-color="#fed51f"/><stop offset="0.04" stop-color="#f6c321"/><stop offset="0.15" stop-color="#df9128"/><stop offset="0.26" stop-color="#cb672d"/><stop offset="0.37" stop-color="#bc4731"/><stop offset="0.47" stop-color="#b23034"/><stop offset="0.57" stop-color="#ab2235"/><stop offset="0.66" stop-color="#a91d36"/><stop offset="1" stop-color="#a91d36"/></linearGradient><clipPath id="clip-path-13"><path class="cls-2" d="M34.1,124.87c-5.25-7.74-5.24-15.06-5.25-21.1q0-12.84,0-25.67a97.33,97.33,0,0,1,38.4,0v26.11c0,4,0,11.36-3.88,18.66C58.9,131.13,49.19,137,47.59,136.94h0c-1.57,0-9.09-5.5-13.48-12.07m-5.76-47.2q0,13.1-.05,26.17c0,6.1,0,13.48,5.32,21.34,4.34,6.47,12,12.32,14,12.32s11.93-6.33,16.33-14.37c4-7.39,4-14.8,4-18.86V77.68a97,97,0,0,0-39.53,0"/></clipPath><mask id="mask-5" x="28.28" y="75.55" width="39.62" height="61.96" maskUnits="userSpaceOnUse"><rect x="28.28" y="75.55" width="39.62" height="61.96"/><g class="cls-3"><rect class="cls-9" x="28.28" y="75.55" width="39.62" height="61.96"/></g></mask><clipPath id="clip-path-14"><rect class="cls-2" x="28.28" y="75.55" width="39.62" height="61.96"/></clipPath><linearGradient id="linear-gradient-8" x1="-660.69" y1="53.53" x2="-660.29" y2="53.53" gradientTransform="translate(-1007.67 -12884.61) rotate(-90) scale(19.72)" gradientUnits="userSpaceOnUse"><stop offset="0" stop-color="#daa228"/><stop offset="0.28" stop-color="#d69f29"/><stop offset="1" stop-color="#d29c2a"/></linearGradient></defs><title>Artboard 7</title><g class="cls-3"><g id="Layer_1" data-name="Layer 1"><g class="cls-10"><g class="cls-10"><path class="cls-11" d="M93.26,98.41c0,2.33-1.38,3.46-3.68,3.46s-3.67-1.12-3.67-3.46V93.06h1.9v5.35c0,.94.24,1.87,1.77,1.87,1.35,0,1.78-.59,1.78-1.87V93.06h1.9Z"/><path class="cls-11" d="M94.88,93.06h1.88l3.59,5.77h0V93.06h1.78v8.61h-1.9L96.67,95.9h0v5.77H94.88Z"/><path class="cls-11" d="M103.8,93.06h1.9v8.61h-1.9Z"/><path class="cls-11" d="M111.36,101.67h-2.13l-2.8-8.61h1.95l1.92,6h0l1.94-6h2Z"/><path class="cls-11" d="M115,93.06h6.43v1.59h-4.54V96.5H121V98h-4.17v2.11h4.64v1.59H115Z"/><path class="cls-11" d="M122.75,93.06h4.64a2.36,2.36,0,0,1,2.52,2.37,2.11,2.11,0,0,1-1.36,2.16v0c.93.24,1.2,1.14,1.26,2a4.61,4.61,0,0,0,.36,2h-1.9a10.51,10.51,0,0,1-.3-2.07c-.13-.9-.48-1.3-1.43-1.3h-1.89v3.37h-1.9Zm1.9,3.89h2.07c.84,0,1.3-.36,1.3-1.23s-.46-1.19-1.3-1.19h-2.07Z"/><path class="cls-11" d="M132.74,98.81c0,1.14.89,1.59,1.91,1.59.66,0,1.67-.19,1.67-1.07s-1.29-1.09-2.55-1.42-2.57-.84-2.57-2.45,1.66-2.61,3.22-2.61c1.79,0,3.44.79,3.44,2.78H136c-.06-1-.79-1.3-1.7-1.3-.6,0-1.3.25-1.3,1s.41.75,2.57,1.3c.62.16,2.55.56,2.55,2.51,0,1.58-1.24,2.76-3.58,2.76-1.9,0-3.68-.94-3.66-3.06Z"/><path class="cls-11" d="M139.27,93.06h1.89v8.61h-1.89Z"/><path class="cls-11" d="M142.82,93.06h3.72c2.23,0,3.9,1.4,3.9,4.25,0,2.5-1.28,4.36-3.9,4.36h-3.72Zm1.9,7h1.68c1.1,0,2.15-.68,2.15-2.58,0-1.74-.6-2.85-2.48-2.85h-1.35Z"/><path class="cls-11" d="M154.1,93.06H156l3.22,8.61h-2l-.66-1.92h-3.21l-.68,1.92h-1.92Zm-.18,5.28h2.23l-1.09-3.16h0Z"/><path class="cls-11" d="M160,93.06h3.72c2.22,0,3.9,1.4,3.9,4.25,0,2.5-1.28,4.36-3.9,4.36H160Zm1.89,7h1.69c1.1,0,2.15-.68,2.15-2.58,0-1.74-.6-2.85-2.49-2.85h-1.35Z"/><path class="cls-11" d="M172,93.06h3.88a2.77,2.77,0,1,1,0,5.52h-2v3.09H172Zm1.89,4h1.47c.88,0,1.66-.19,1.66-1.29s-.78-1.29-1.66-1.29h-1.47Z"/><path class="cls-11" d="M180.07,93.06h6.44v1.59H182V96.5h4.17V98H182v2.11h4.64v1.59h-6.54Z"/><path class="cls-11" d="M187.88,93.06h4.64A2.36,2.36,0,0,1,195,95.43a2.11,2.11,0,0,1-1.36,2.16v0c.93.24,1.19,1.14,1.25,2a4.92,4.92,0,0,0,.36,2H193.4a9.81,9.81,0,0,1-.3-2.07c-.13-.9-.48-1.3-1.43-1.3h-1.9v3.37h-1.89ZM189.77,97h2.08c.84,0,1.3-.36,1.3-1.23s-.46-1.19-1.3-1.19h-2.08Z"/><path class="cls-11" d="M203.88,98.41c0,2.33-1.37,3.46-3.67,3.46s-3.67-1.12-3.67-3.46V93.06h1.89v5.35c0,.94.25,1.87,1.78,1.87,1.35,0,1.78-.59,1.78-1.87V93.06h1.89Z"/><path class="cls-11" d="M207.85,93.06h2l3.21,8.61h-2l-.65-1.92h-3.22l-.68,1.92h-1.91Zm-.18,5.28h2.23l-1.08-3.16h0Z"/><path class="cls-11" d="M213.76,93.06h1.88l3.59,5.77h0V93.06H221v8.61h-1.9l-3.58-5.77h0v5.77h-1.77Z"/><path class="cls-11" d="M225,93.06H227l3.22,8.61h-2l-.65-1.92h-3.22l-.68,1.92h-1.91Zm-.18,5.28h2.23L226,95.18h0Z"/><path class="cls-12" d="M95.41,111.32a3,3,0,0,0-3-2.4c-2.71,0-3.73,2.31-3.73,4.71s1,4.6,3.73,4.6c1.84,0,2.88-1.27,3.11-3.08h2.92a5.79,5.79,0,0,1-6,5.61c-4.25,0-6.75-3.17-6.75-7.13s2.5-7.25,6.75-7.25c3,0,5.55,1.77,5.92,4.94Z"/><path class="cls-12" d="M104.25,106.71h3.1l5.13,13.73h-3.13l-1-3.06h-5.13l-1.08,3.06H99Zm-.28,8.42h3.55l-1.73-5h0Z"/><path class="cls-12" d="M115.83,115.09l-5.06-8.38h3.41l3.21,5.42,3.19-5.42h3.36l-5.09,8.46v5.27h-3Z"/><path class="cls-12" d="M125.1,106.71h10.27v2.54h-7.25v2.94h6.65v2.35h-6.65v3.36h7.4v2.54H125.1Z"/><path class="cls-12" d="M140.6,109.25h-4.11v-2.54h11.24v2.54h-4.11v11.19h-3Z"/><path class="cls-12" d="M151.29,106.71h3.1l5.13,13.73h-3.13l-1-3.06h-5.13l-1.08,3.06h-3.06Zm-.29,8.42h3.56l-1.73-5h0Z"/><path class="cls-12" d="M160.72,106.71h3l5.72,9.21h0v-9.21h2.83v13.73h-3l-5.71-9.19h0v9.19h-2.82Z"/><path class="cls-12" d="M181.12,106.38c4.25,0,6.75,3.18,6.75,7.25s-2.5,7.13-6.75,7.13-6.75-3.17-6.75-7.13S176.87,106.38,181.12,106.38Zm0,11.85c2.71,0,3.73-2.31,3.73-4.6s-1-4.71-3.73-4.71-3.73,2.31-3.73,4.71S178.41,118.23,181.12,118.23Z"/><path class="cls-12" d="M194.87,106.71h3V112h5.55v-5.27h3v13.73h-3v-5.92h-5.55v5.92h-3Z"/><path class="cls-12" d="M209.12,106.71h10.27v2.54h-7.25v2.94h6.65v2.35h-6.65v3.36h7.4v2.54H209.12Z"/><path class="cls-12" d="M221.58,106.71H229a3.77,3.77,0,0,1,4,3.79,3.38,3.38,0,0,1-2.17,3.44v0c1.48.38,1.9,1.82,2,3.21.06.86,0,2.48.57,3.25h-3a15.28,15.28,0,0,1-.49-3.29c-.21-1.44-.76-2.08-2.28-2.08h-3v5.37h-3Zm3,6.21h3.31c1.34,0,2.07-.58,2.07-2s-.73-1.9-2.07-1.9H224.6Z"/><path class="cls-12" d="M235.46,106.71h10.27v2.54h-7.25v2.94h6.66v2.35h-6.66v3.36h7.41v2.54H235.46Z"/><path class="cls-12" d="M247.93,106.71h5.92c3.55,0,6.23,2.23,6.23,6.79,0,4-2,6.94-6.23,6.94h-5.92Zm3,11.19h2.7c1.75,0,3.42-1.08,3.42-4.11,0-2.77-1-4.54-4-4.54h-2.16Z"/><path class="cls-12" d="M262.18,106.71h3v13.73h-3Z"/><path class="cls-12" d="M271.6,106.71h3.09l5.14,13.73h-3.14l-1-3.06h-5.13l-1.08,3.06h-3.05Zm-.29,8.42h3.56l-1.73-5h0Z"/><g class="cls-13"><rect class="cls-14" x="3.78" y="58.25" width="88.77" height="97.36" transform="translate(-46.27 37.39) rotate(-29.39)"/></g><g class="cls-15"><g class="cls-16"><g class="cls-17"><g class="cls-18"><rect class="cls-19" x="3.72" y="58.3" width="88.62" height="97.23" transform="translate(-46.45 37.56) rotate(-29.53)"/></g></g></g></g><g class="cls-20"><g class="cls-21"><g class="cls-22"><g class="cls-22"><g class="cls-23"><g class="cls-24"><g class="cls-25"><g class="cls-26"><rect class="cls-27" x="37.64" y="79.61" width="21.74" height="14.98"/></g></g></g></g></g></g></g></g><g class="cls-15"><path class="cls-6" d="M57.12,105.42c1.87.28,3.27,0,4.19-1.24l0-.51c-.52.91-2,1.33-4.1,1.25-1.42-.23-2.54-1.35-4-1.35.19-.77,1-1.11,2.37-1l-.2,1.3.33,0,.77-1.57c-3-1-2.94-1.58-3.82-1.93a.78.78,0,0,0-.35,0,10.45,10.45,0,0,0-2,0h-.28l.1-1.7,3.6-.76V96.26L58,95.42v-.83h-20v.7l4.27,1v1.89l3.6.56L46,100.8a11.21,11.21,0,0,0-1.95.66c-2.11,1.06-3.6,2.45-3.73,4.69V107c.23,3,2.59,3.5,5.94,4.33l.13,5.26c-2.08.49-3.94,1.54-4.74,3.46a3.74,3.74,0,0,0,.47,3.2c1,2,2.86,2.49,4.5,2.71l.25,9.79H48l.53-9.47a2,2,0,0,1,.45,3.83l.72.61A7.25,7.25,0,0,0,51,129c1.2-2.31-.24-4-2.37-4.47l.34-6.08,1-.38A6.51,6.51,0,0,0,52.25,117a4.41,4.41,0,0,0,1.51-4.07,2.91,2.91,0,0,0-1.51-2.48,10.18,10.18,0,0,0-2.81-1.22l.34-6.07h.11c1,0,1.7,1,2.36,1.7a.69.69,0,0,0,.26.23l1.34,1.48,1-1-.24-.22-.63.51-.28-.24a2.86,2.86,0,0,1-.65-1.35V104a8.2,8.2,0,0,1,3.69,1.91c1.93,1.09,3,.3,4-.15-1.65.35-2.85.27-3.59-.33M46.55,123.87c-2.23-1.09-3.17-3.34-1-4.22l.89-.31Zm4.12-10.33c0,.9-.22,1.6-1.6,2.21l.2-3.61c.8.33,1.4.76,1.4,1.4m-5.07-5.35c-1.2-.47-2-.79-2.08-2.09-.05-.87.79-2,2.53-2.57l.11,4.84a2.83,2.83,0,0,1-.56-.18m6.65-6.9s0-.05-.11-.05c-.29-.14-.4-.34-.36-.43s.22-.09.47,0a.09.09,0,0,0,.08,0c.27.15.46.31.38.48s-.25.08-.46,0"/></g><g class="cls-28"><g class="cls-29"><g class="cls-30"><g class="cls-30"><rect class="cls-31" x="28.28" y="75.55" width="39.62" height="61.96"/></g></g></g></g><g class="cls-15"><path class="cls-12" d="M23.89,92.77a1,1,0,0,0-.47.22.61.61,0,0,0-.16.46.78.78,0,0,0,0,.28.52.52,0,0,0,.18.21.5.5,0,0,0,.29.08.65.65,0,0,0,.29-.07.8.8,0,0,0,.23-.19,4.41,4.41,0,0,0,.24-.38,2.24,2.24,0,0,1,.21-.38,1.14,1.14,0,0,1,.25-.28.77.77,0,0,1,.29-.19,1,1,0,0,1,.36-.06,1,1,0,0,1,.56.16,1,1,0,0,1,.35.47,2.15,2.15,0,0,1,.12.71c0,.16,0,.31,0,.46s0,.31-.09.49h-.77v-.37a.84.84,0,0,0,.33-.13.41.41,0,0,0,.18-.19.67.67,0,0,0,.06-.3.76.76,0,0,0-.05-.27.49.49,0,0,0-.16-.19.41.41,0,0,0-.25-.07.54.54,0,0,0-.27.06.68.68,0,0,0-.22.2,2.3,2.3,0,0,0-.25.41,3.13,3.13,0,0,1-.34.52,1.31,1.31,0,0,1-.35.28,1.25,1.25,0,0,1-.45.08,1.05,1.05,0,0,1-.57-.15,1,1,0,0,1-.37-.44,1.62,1.62,0,0,1-.13-.68A5.55,5.55,0,0,1,23,93a4.68,4.68,0,0,1,.09-.56h.82Z"/><path class="cls-12" d="M23.65,98.27a.79.79,0,0,0-.25,0,.16.16,0,0,0-.11,0,.18.18,0,0,0-.08.09.49.49,0,0,0-.05.17H23V97.16h.17l.06.16a.24.24,0,0,0,.09.08.29.29,0,0,0,.14,0l.2,0h2.52l.14,0a.15.15,0,0,0,.08-.08.34.34,0,0,0,.06-.16h.18v1.55a1.65,1.65,0,0,1-.25,1,.83.83,0,0,1-.74.34A1.11,1.11,0,0,1,25,99.9a1,1,0,0,1-.4-.45,1.9,1.9,0,0,1-.13-.75c0-.17,0-.32,0-.43Zm1.16,0v.23a1,1,0,0,0,.08.43.43.43,0,0,0,.23.23,1.12,1.12,0,0,0,.45.07,1.06,1.06,0,0,0,.44-.07.47.47,0,0,0,.24-.22,1,1,0,0,0,.06-.37v-.3Z"/><path class="cls-12" d="M23.65,103.55h-.17l-.13,0a.26.26,0,0,0-.09.05l-.06.08s0,.08,0,.13H23v-1.4h.18a.5.5,0,0,0,.05.16.34.34,0,0,0,.09.08l.14,0h2.73l.13,0a.24.24,0,0,0,.09-.08.91.91,0,0,0,.06-.16h.17v1.4h-.17a.4.4,0,0,0-.07-.16.16.16,0,0,0-.08-.08.34.34,0,0,0-.12,0H23.65Z"/><path class="cls-12" d="M23.05,107.55l-.06-1.4h.18a.91.91,0,0,0,.06.16.24.24,0,0,0,.09.08.29.29,0,0,0,.14,0h.22l2.29-.09.21,0a.29.29,0,0,0,.14,0,.18.18,0,0,0,.08-.09.77.77,0,0,0,.06-.15h.17l.06,1.55a2.25,2.25,0,0,1,0,.54,1.38,1.38,0,0,1-.11.39.61.61,0,0,1-.18.24.76.76,0,0,1-.26.16,1.08,1.08,0,0,1-.35.07,1.06,1.06,0,0,1-.45-.08.82.82,0,0,1-.32-.24,1.74,1.74,0,0,1-.25-.4h0a1.15,1.15,0,0,1-.21.34,1.61,1.61,0,0,1-.36.24l-.36.19a1.62,1.62,0,0,0-.35.23.45.45,0,0,0-.14.27h-.17l0-1a3,3,0,0,1,.61-.37l.45-.23a2,2,0,0,0,.29-.17.45.45,0,0,0,.11-.14.65.65,0,0,0,0-.22v-.15l-.86,0a.82.82,0,0,0-.27,0,.22.22,0,0,0-.13.08.43.43,0,0,0-.08.2Zm3.31-.42-1.49.06,0,.26a.92.92,0,0,0,.07.36.58.58,0,0,0,.17.21.51.51,0,0,0,.24.1,1.51,1.51,0,0,0,.31,0,.8.8,0,0,0,.54-.19.74.74,0,0,0,.16-.52c0-.15,0-.25,0-.3"/><path class="cls-12" d="M24.14,112.68l-.17,0-.13,0-.08.06a.19.19,0,0,0-.05.09.51.51,0,0,0,0,.13l-.18,0-.17-1.39.17,0a.53.53,0,0,0,.07.15.25.25,0,0,0,.1.08l.14,0,.21,0,2.29-.29.21,0a.29.29,0,0,0,.13,0,.18.18,0,0,0,.08-.09,1.46,1.46,0,0,0,0-.17l.17,0,.17,1.39-.17,0a.76.76,0,0,0-.08-.16l-.09-.07-.14,0-.22,0Z"/><path class="cls-12" d="M24.07,116.15l.17,0a.49.49,0,0,0,.1.16.23.23,0,0,0,.1.07.35.35,0,0,0,.15,0l.21,0,2.58-.63-.05-.21a.5.5,0,0,0-.09-.23.44.44,0,0,0-.15-.12.71.71,0,0,0-.23,0l-.28,0-.08-.35.91-.22.75,3-.91.23-.08-.36.23-.14a.49.49,0,0,0,.13-.1.35.35,0,0,0,.08-.1.3.3,0,0,0,0-.1.41.41,0,0,0,0-.12.61.61,0,0,0,0-.17l-.05-.19-2.58.64-.21.06a.19.19,0,0,0-.1,0,.46.46,0,0,0-.07.07.25.25,0,0,0,0,.1.38.38,0,0,0,0,.15l-.17,0Z"/><path class="cls-12" d="M29,121.58a.86.86,0,0,0,.26-.13.24.24,0,0,0,.09-.11.76.76,0,0,0,0-.22l.17-.06.45,1.08-.17.07a.63.63,0,0,0-.1-.12.19.19,0,0,0-.12,0,.35.35,0,0,0-.14,0l-.2.08-1.53.65a2.72,2.72,0,0,1-.53.16.93.93,0,0,1-.75-.17,1.26,1.26,0,0,1-.27-.29,4,4,0,0,1-.22-.42,2.07,2.07,0,0,1-.17-.62,1.06,1.06,0,0,1,.05-.48,1,1,0,0,1,.27-.38,2,2,0,0,1,.5-.3l1.59-.67.19-.08a.29.29,0,0,0,.12-.09.22.22,0,0,0,.05-.11,1.16,1.16,0,0,0,0-.17l.16-.07.55,1.29-.17.07a.45.45,0,0,0-.12-.12.14.14,0,0,0-.1,0,.3.3,0,0,0-.13,0l-.21.08-1.63.68a1.36,1.36,0,0,0-.34.18.8.8,0,0,0-.24.2.46.46,0,0,0-.1.26.67.67,0,0,0,.06.32.52.52,0,0,0,.62.38,2.06,2.06,0,0,0,.56-.17Z"/><path class="cls-12" d="M28.63,125.44a1.05,1.05,0,0,0-.29.43.62.62,0,0,0,.1.48.67.67,0,0,0,.2.21.42.42,0,0,0,.24.09.58.58,0,0,0,.3-.09.68.68,0,0,0,.21-.2.67.67,0,0,0,.1-.29,2.14,2.14,0,0,0,0-.45,3.17,3.17,0,0,1,0-.43,1.43,1.43,0,0,1,.07-.37.83.83,0,0,1,.16-.31.93.93,0,0,1,.27-.25.93.93,0,0,1,1.1.08,2.2,2.2,0,0,1,.48.55c.08.14.14.27.21.4s.11.29.17.47l-.66.4-.19-.32a.86.86,0,0,0,.22-.28.4.4,0,0,0,.06-.26.86.86,0,0,0-.1-.28.78.78,0,0,0-.19-.21.4.4,0,0,0-.23-.08.51.51,0,0,0-.26.07.61.61,0,0,0-.2.19.72.72,0,0,0-.08.29,1.9,1.9,0,0,0,0,.48,3.78,3.78,0,0,1,0,.61,1,1,0,0,1-.17.43,1.15,1.15,0,0,1-.34.31,1.06,1.06,0,0,1-.56.16,1,1,0,0,1-.55-.19,1.62,1.62,0,0,1-.45-.51,3.38,3.38,0,0,1-.27-.5,4.48,4.48,0,0,1-.22-.52l.71-.42Z"/><path class="cls-12" d="M35.94,131.64a1.48,1.48,0,0,0,.19-.2.24.24,0,0,0,0-.14.43.43,0,0,0-.07-.2l.13-.12.79.86-.12.12a.48.48,0,0,0-.15-.07.17.17,0,0,0-.12,0,.33.33,0,0,0-.13.07.92.92,0,0,0-.15.14l-1.23,1.13a2.28,2.28,0,0,1-.44.34,1,1,0,0,1-.38.14.92.92,0,0,1-.37,0,1.35,1.35,0,0,1-.36-.18,3.29,3.29,0,0,1-.35-.32,2.2,2.2,0,0,1-.37-.52,1.06,1.06,0,0,1-.12-.47.88.88,0,0,1,.12-.44,1.77,1.77,0,0,1,.37-.46l1.26-1.17.15-.16a.33.33,0,0,0,.08-.11.15.15,0,0,0,0-.13.54.54,0,0,0-.06-.16l.13-.12,1,1-.13.12-.16-.07a.14.14,0,0,0-.11,0,.34.34,0,0,0-.12.06l-.18.15-1.28,1.2a2.21,2.21,0,0,0-.26.28.77.77,0,0,0-.16.27.56.56,0,0,0,.17.56.62.62,0,0,0,.36.22.51.51,0,0,0,.35-.07,1.94,1.94,0,0,0,.46-.36Z"/><path class="cls-12" d="M39.26,136.2a1.31,1.31,0,0,1,.2.63.84.84,0,0,1-.2.54,1.21,1.21,0,0,1-.37.29.87.87,0,0,1-.42.07,1.33,1.33,0,0,1-.45-.15,2.66,2.66,0,0,1-.51-.37l-1.24-1.08.12-.13.15.06a.16.16,0,0,0,.12,0,.28.28,0,0,0,.12-.08,1.22,1.22,0,0,0,.14-.16l1.52-1.73.13-.16a.3.3,0,0,0,.06-.13.17.17,0,0,0,0-.12,1.15,1.15,0,0,0-.08-.15l.11-.13L40,134.53a2.86,2.86,0,0,1,.35.35,1.37,1.37,0,0,1,.24.39.72.72,0,0,1,0,.36.81.81,0,0,1-.19.35,1,1,0,0,1-1.14.21Zm-1.94.42a3.45,3.45,0,0,0,.27.25,1.49,1.49,0,0,0,.35.23.65.65,0,0,0,.34,0,.89.89,0,0,0,.35-.27,1,1,0,0,0,.18-.28.49.49,0,0,0,0-.26.59.59,0,0,0-.09-.24,1.69,1.69,0,0,0-.23-.25l-.28-.25Zm1.4-1.07a.92.92,0,0,0,.37.22.58.58,0,0,0,.32,0,.76.76,0,0,0,.31-.25.59.59,0,0,0,.17-.32.47.47,0,0,0-.06-.3,1.16,1.16,0,0,0-.26-.3l-.28-.23-.84,1Z"/><path class="cls-12" d="M42,139.9a1.71,1.71,0,0,1-.11.14l0,.12a.18.18,0,0,0,0,.1.16.16,0,0,0,0,.09.42.42,0,0,0,.08.12l-.11.14-1.13-.83.11-.14.16.05a.2.2,0,0,0,.11,0,.47.47,0,0,0,.12-.09l.13-.17,1.37-1.85.11-.18a.49.49,0,0,0,.06-.13.25.25,0,0,0,0-.12.53.53,0,0,0-.1-.14l.11-.14,1.13.83-.1.14a.58.58,0,0,0-.17,0l-.11,0a.26.26,0,0,0-.11.08l-.15.18Z"/><path class="cls-12" d="M53.29,137.6c0-.08,0-.15-.07-.21a.82.82,0,0,0-.09-.19.29.29,0,0,0-.17-.13.3.3,0,0,0-.21.05l-.1-.15,1-.63.1.15a.48.48,0,0,0-.11.15.54.54,0,0,0,0,.19,1.81,1.81,0,0,0,0,.32l.69,3.11-.52.34-2.37-2a1.61,1.61,0,0,0-.24-.18.25.25,0,0,0-.16-.06.33.33,0,0,0-.19,0l-.09-.15,1.23-.8.1.15a.31.31,0,0,0-.13.17.2.2,0,0,0,0,.19,1.47,1.47,0,0,0,.1.13,2.44,2.44,0,0,0,.21.19l1.48,1.32Z"/><path class="cls-12" d="M57.47,134.19a2,2,0,0,0-.19-.2.22.22,0,0,0-.13-.06.57.57,0,0,0-.21.06l-.11-.14.91-.74.11.14a.41.41,0,0,0-.08.14.25.25,0,0,0,0,.12.49.49,0,0,0,.06.13l.13.17L59,135.1a2.41,2.41,0,0,1,.3.47,1,1,0,0,1,.11.39.78.78,0,0,1-.06.37,1.36,1.36,0,0,1-.21.34,2.53,2.53,0,0,1-.33.32,2.36,2.36,0,0,1-.55.35,1.06,1.06,0,0,1-.48.08.86.86,0,0,1-.43-.15,1.56,1.56,0,0,1-.43-.4l-1.09-1.34-.14-.16a.28.28,0,0,0-.12-.08.2.2,0,0,0-.11,0l-.17.06-.11-.14,1.09-.88.11.13a1,1,0,0,0-.09.15.53.53,0,0,0,0,.12l0,.12.14.18,1.12,1.37a1.76,1.76,0,0,0,.26.28.83.83,0,0,0,.26.17.5.5,0,0,0,.27,0,.73.73,0,0,0,.29-.15.58.58,0,0,0,.25-.34.59.59,0,0,0-.05-.36,1.87,1.87,0,0,0-.33-.48Z"/><path class="cls-12" d="M60.33,130.62l.13.12a.93.93,0,0,0-.07.15.24.24,0,0,0,0,.12.37.37,0,0,0,.07.12l.15.16,1.9,1.86.36-.37a.59.59,0,0,0,.14-.21.54.54,0,0,0,0-.22,1,1,0,0,0-.11-.27,2.4,2.4,0,0,0-.16-.27l.26-.26.73.8L62,134.17l-.13-.12a.35.35,0,0,0,.06-.16.13.13,0,0,0,0-.12.25.25,0,0,0-.07-.12.94.94,0,0,0-.14-.16L60,131.89l-.15-.15-.12-.07h-.13l-.15.07-.13-.12Z"/><path class="cls-12" d="M65.9,129.75l-.13-.1a1.2,1.2,0,0,0,.06-.17.19.19,0,0,0,0-.13.24.24,0,0,0-.09-.12l-.17-.13-2.14-1.57-.13.17a1,1,0,0,0-.12.22.41.41,0,0,0,0,.19.71.71,0,0,0,.11.21l.17.22-.22.29-.76-.55,1.86-2.54.75.55-.22.3-.26-.09-.15,0h-.13l-.1,0a.26.26,0,0,0-.1.07l-.11.13-.12.16L66,128.43l.18.12.11,0h.1l.09,0a.47.47,0,0,0,.11-.1l.15.1Z"/><path class="cls-12" d="M69.15,122.26a1,1,0,0,0,.52,0,.62.62,0,0,0,.31-.37.75.75,0,0,0,.06-.29.4.4,0,0,0-.09-.25.7.7,0,0,0-.25-.18,1,1,0,0,0-.29,0,1,1,0,0,0-.29.11,1.43,1.43,0,0,0-.35.27l-.34.27a1,1,0,0,1-.33.17,1.09,1.09,0,0,1-.34.07.92.92,0,0,1-.36-.07.89.89,0,0,1-.46-.36.93.93,0,0,1-.16-.56,2.15,2.15,0,0,1,.15-.71,3.89,3.89,0,0,1,.19-.41,4.48,4.48,0,0,1,.26-.43l.72.28-.13.34a1.08,1.08,0,0,0-.36,0,.55.55,0,0,0-.24.12.55.55,0,0,0-.16.26.62.62,0,0,0,0,.27.4.4,0,0,0,.08.23.41.41,0,0,0,.21.15.54.54,0,0,0,.27,0A.71.71,0,0,0,68,121a3.88,3.88,0,0,0,.38-.29,3,3,0,0,1,.5-.36,1.06,1.06,0,0,1,.43-.13,1.09,1.09,0,0,1,.46.08,1,1,0,0,1,.47.35.91.91,0,0,1,.18.55,1.39,1.39,0,0,1-.12.67,4.61,4.61,0,0,1-.23.52,5.55,5.55,0,0,1-.29.48l-.76-.3Z"/><path class="cls-12" d="M71.22,116.61a1.08,1.08,0,0,0,.25,0,.25.25,0,0,0,.12,0s.06,0,.09-.07l.09-.16.17,0-.33,1.4-.17,0a.39.39,0,0,0,0-.16.16.16,0,0,0-.07-.11.33.33,0,0,0-.12-.06,1,1,0,0,0-.2,0l-2.24-.53-.21,0a.33.33,0,0,0-.14,0,.19.19,0,0,0-.11.07.48.48,0,0,0-.09.13l-.17,0,.35-1.52a1.76,1.76,0,0,1,.46-.92.85.85,0,0,1,.8-.17,1.25,1.25,0,0,1,.57.3,1,1,0,0,1,.28.53,1.83,1.83,0,0,1,0,.76,4.09,4.09,0,0,1-.11.42Zm-1.13-.25,0-.23a1.12,1.12,0,0,0,0-.43.49.49,0,0,0-.18-.28,1,1,0,0,0-.42-.18,1,1,0,0,0-.45,0,.42.42,0,0,0-.28.16.88.88,0,0,0-.15.35c0,.12,0,.22-.06.28Z"/><path class="cls-12" d="M72.19,110.89l.18,0h.13l.09,0,.07-.07.06-.13.17,0-.16,1.39-.18,0a1.57,1.57,0,0,0,0-.16.24.24,0,0,0-.08-.09.25.25,0,0,0-.13,0,.66.66,0,0,0-.21,0l-2.29-.27-.21,0-.14,0a.19.19,0,0,0-.1.08.53.53,0,0,0-.07.15l-.18,0,.16-1.39.18,0a.46.46,0,0,0,0,.16.22.22,0,0,0,.07.09.33.33,0,0,0,.12,0,1,1,0,0,0,.23,0Z"/><path class="cls-12" d="M73.16,106.24l0,1.39h-.18a.5.5,0,0,0,0-.16.15.15,0,0,0-.08-.08.33.33,0,0,0-.14,0l-.21,0-2.3,0H70l-.14,0a.2.2,0,0,0-.09.09.34.34,0,0,0-.06.16h-.18l0-1.56a3.71,3.71,0,0,1,.06-.53,1.42,1.42,0,0,1,.14-.38.9.9,0,0,1,.2-.23.77.77,0,0,1,.27-.14.93.93,0,0,1,.34,0,1.25,1.25,0,0,1,.46.1.94.94,0,0,1,.3.26,1.81,1.81,0,0,1,.22.42h0a1.09,1.09,0,0,1,.23-.32,1.45,1.45,0,0,1,.37-.22l.37-.16a2.25,2.25,0,0,0,.37-.22.46.46,0,0,0,.15-.26h.18l0,1a3.59,3.59,0,0,1-.64.34l-.46.2a1.81,1.81,0,0,0-.29.15.46.46,0,0,0-.12.13.62.62,0,0,0,0,.22v.16l.86,0a1,1,0,0,0,.28,0,.24.24,0,0,0,.13-.07.43.43,0,0,0,.08-.19Zm-3.34.2,1.48,0v-.26a1.23,1.23,0,0,0,0-.36.73.73,0,0,0-.16-.22.55.55,0,0,0-.24-.12l-.3,0a.83.83,0,0,0-.56.16.69.69,0,0,0-.19.5v.3"/><path class="cls-12" d="M72.05,99.61v1.14l.25.08.21.07a.71.71,0,0,0,.21,0,.25.25,0,0,0,.28-.27h.18v1.13H73a.28.28,0,0,0-.07-.17.42.42,0,0,0-.16-.13,1.31,1.31,0,0,0-.29-.14l-3-1.11v-.71l3-.88.29-.1a.35.35,0,0,0,.13-.11.38.38,0,0,0,.08-.18h.18v1.48H73a.31.31,0,0,0-.08-.21.24.24,0,0,0-.17-.06.55.55,0,0,0-.18,0l-.26.06Zm-.32,1v-1l-1.49.42Z"/><path class="cls-12" d="M73.18,94.62H73a.56.56,0,0,0,0-.18.22.22,0,0,0-.09-.1.39.39,0,0,0-.14,0H69.85v.22a.7.7,0,0,0,0,.24.44.44,0,0,0,.12.15.64.64,0,0,0,.22.11l.25.08v.36h-.94V92.31h.94v.37l-.27.07-.14.07L70,92.9l-.06.08a.42.42,0,0,0,0,.12.81.81,0,0,0,0,.17v.19h2.87l.12,0s.06,0,.07-.05a.19.19,0,0,0,0-.09.33.33,0,0,0,0-.15h.18Z"/></g></g></g></g></g></svg>