<svg xmlns="http://www.w3.org/2000/svg" xmlns:xlink="http://www.w3.org/1999/xlink" viewBox="0 0 300 300"><defs><style>.cls-1,.cls-19,.cls-23,.cls-27,.cls-29{fill:none;}.cls-2{isolation:isolate;}.cls-21,.cls-3,.cls-35{fill:#fff;}.cls-4{fill:#231f20;}.cls-5{clip-path:url(#clip-path);}.cls-6{clip-path:url(#clip-path-3);}.cls-7{fill:url(#linear-gradient);}.cls-8{clip-path:url(#clip-path-4);}.cls-9{mix-blend-mode:soft-light;}.cls-10{clip-path:url(#clip-path-5);}.cls-11{clip-path:url(#clip-path-6);}.cls-12{fill:url(#radial-gradient);}.cls-13{clip-path:url(#clip-path-7);}.cls-14{clip-path:url(#clip-path-8);}.cls-15{fill:#e1251b;}.cls-16{clip-path:url(#clip-path-9);}.cls-17,.cls-36{fill:#010101;}.cls-17,.cls-18,.cls-20,.cls-21,.cls-22,.cls-24,.cls-25,.cls-26,.cls-28,.cls-30,.cls-31,.cls-32,.cls-33{fill-rule:evenodd;}.cls-18{fill:#ea0029;}.cls-19,.cls-23{stroke:#010101;}.cls-19,.cls-23,.cls-27,.cls-29{stroke-miterlimit:2.61;}.cls-19,.cls-27,.cls-29{stroke-width:0.03px;}.cls-20{fill:#e9e24c;}.cls-22{fill:#c18d68;}.cls-23{stroke-width:0.04px;}.cls-24{fill:#75c0e4;}.cls-25{fill:#ecc23e;}.cls-26{fill:#bc7443;}.cls-27{stroke:#7d7365;}.cls-28{fill:#398a53;}.cls-29{stroke:#2d944a;}.cls-30{fill:#7d7474;}.cls-31{fill:#99634f;}.cls-32{fill:#7d7365;}.cls-33{fill:#2d944a;}.cls-34{fill:#595a5c;}.cls-35{font-size:16.41px;font-family:Calibri;}</style><clipPath id="clip-path"><rect class="cls-1" x="302.81" y="-2.46" width="290.38" height="94.92"/></clipPath><clipPath id="clip-path-3"><path class="cls-1" d="M324.7,10.93q0,16.63,0,33.26c0,8,0,17.36,7.63,27.46,6.21,8.16,17.3,15.76,20,15.75S369.24,79.54,375.77,69c5.92-9.85,5.64-19.64,5.65-24.82V10.94a130.25,130.25,0,0,0-56.72,0"/></clipPath><linearGradient id="linear-gradient" x1="-350.51" y1="-33.21" x2="-350.1" y2="-33.21" gradientTransform="matrix(0, -226.8, 226.8, 0, 7884.64, -79406.57)" gradientUnits="userSpaceOnUse"><stop offset="0" stop-color="#d18d29"/><stop offset="0.13" stop-color="#d18d29"/><stop offset="0.22" stop-color="#dfa326"/><stop offset="0.37" stop-color="#f0be21"/><stop offset="0.5" stop-color="#facf1f"/><stop offset="0.6" stop-color="#fed51e"/><stop offset="0.95" stop-color="#fdf6b0"/><stop offset="1" stop-color="#fdf6b0"/></linearGradient><clipPath id="clip-path-4"><rect class="cls-1" x="315.33" y="-0.27" width="276.09" height="92.73"/></clipPath><clipPath id="clip-path-5"><rect class="cls-1" x="290.06" y="-17.7" width="126.22" height="129.58"/></clipPath><clipPath id="clip-path-6"><path class="cls-1" d="M352.77,7.81a130.32,130.32,0,0,0-28.07,3.12q0,16.63,0,33.26c0,8,0,17.36,7.63,27.46,6.2,8.15,17.27,15.74,20,15.75h0c2.7,0,16.93-7.89,23.44-18.39,5.44-9.05,5.65-18.06,5.65-23.47V10.94a130.32,130.32,0,0,0-28.13-3.13Z"/></clipPath><radialGradient id="radial-gradient" cx="-351.17" cy="-32.6" r="0.4" gradientTransform="matrix(0, -167.35, 167.35, 0, 5810.15, -58686.72)" gradientUnits="userSpaceOnUse"><stop offset="0" stop-color="#d18d29"/><stop offset="0.13" stop-color="#d18d29"/><stop offset="0.22" stop-color="#dfa326"/><stop offset="0.37" stop-color="#f0be21"/><stop offset="0.5" stop-color="#facf1f"/><stop offset="0.6" stop-color="#fed51e"/><stop offset="0.65" stop-color="#fed82b"/><stop offset="0.74" stop-color="#fedf4f"/><stop offset="0.86" stop-color="#feea89"/><stop offset="1" stop-color="#fefad7"/></radialGradient><clipPath id="clip-path-7"><rect class="cls-1" x="6.29" y="117.47" width="289.66" height="64.4"/></clipPath><clipPath id="clip-path-8"><rect class="cls-1" x="-5.41" y="120.01" width="298.82" height="59.97"/></clipPath><clipPath id="clip-path-9"><rect class="cls-1" x="-0.16" y="122.46" width="291.53" height="55.04"/></clipPath></defs><title>Artboard 6</title><g class="cls-2"><g id="Layer_1" data-name="Layer 1"><rect class="cls-3" x="0.13" y="0.13" width="299.75" height="299.75"/><path class="cls-4" d="M299.75.25v299.5H.25V.25h299.5M300,0H0V300H300V0Z"/><g class="cls-5"><g class="cls-5"><g class="cls-6"><rect class="cls-7" x="308.78" y="-1.06" width="88.77" height="97.36" transform="translate(22.08 179.42) rotate(-29.39)"/></g><g class="cls-8"><g class="cls-9"><g class="cls-10"><g class="cls-11"><rect class="cls-12" x="308.72" y="-1.01" width="88.62" height="97.23" transform="translate(22.39 180.17) rotate(-29.53)"/></g></g></g></g></g></g><g class="cls-13"><g class="cls-14"><rect class="cls-15" x="54.87" y="122.46" width="55.05" height="55.02"/><g class="cls-16"><path class="cls-3" d="M70.26,147.29a4.44,4.44,0,0,1-.32,1.75,3.67,3.67,0,0,1-.91,1.33,4.13,4.13,0,0,1-1.46.85,6.37,6.37,0,0,1-2.07.3H64v4.67a.24.24,0,0,1-.05.14.24.24,0,0,1-.14.09,1.12,1.12,0,0,1-.26.06,2.29,2.29,0,0,1-.41,0,2.42,2.42,0,0,1-.42,0,1.12,1.12,0,0,1-.26-.06.24.24,0,0,1-.14-.09.23.23,0,0,1,0-.14V144.24a.68.68,0,0,1,.21-.57.7.7,0,0,1,.47-.17h2.77q.42,0,.81,0a8.94,8.94,0,0,1,.91.15,3.93,3.93,0,0,1,1.07.43,3.32,3.32,0,0,1,.92.78,3.41,3.41,0,0,1,.59,1.06,4.38,4.38,0,0,1,.2,1.34m-1.81.14a2.74,2.74,0,0,0-.29-1.32,2,2,0,0,0-.73-.79,2.23,2.23,0,0,0-.91-.33,5.54,5.54,0,0,0-.9-.07H64v5.19h1.55a3.52,3.52,0,0,0,1.3-.2,2.33,2.33,0,0,0,.86-.56,2.27,2.27,0,0,0,.53-.84,3.14,3.14,0,0,0,.18-1.08"/><path class="cls-3" d="M79.68,155.74a1.47,1.47,0,0,1,0,.31.52.52,0,0,1-.07.23.47.47,0,0,1-.11.13.37.37,0,0,1-.15,0H73.12a.66.66,0,0,1-.43-.16.62.62,0,0,1-.21-.54V144.2a.64.64,0,0,1,.21-.55.7.7,0,0,1,.43-.15h6.14a.24.24,0,0,1,.15,0,.23.23,0,0,1,.1.13,1,1,0,0,1,.07.22,3,3,0,0,1,0,.34,2.69,2.69,0,0,1,0,.31.81.81,0,0,1-.07.22.27.27,0,0,1-.1.13.33.33,0,0,1-.15,0H74.2V149h4.34a.27.27,0,0,1,.15,0,.43.43,0,0,1,.11.12.58.58,0,0,1,.06.22,1.67,1.67,0,0,1,0,.33,1.47,1.47,0,0,1,0,.31.53.53,0,0,1-.06.21.32.32,0,0,1-.11.12.37.37,0,0,1-.15,0H74.2V155h5.13a.28.28,0,0,1,.26.16.44.44,0,0,1,.07.22,1.67,1.67,0,0,1,0,.34"/><path class="cls-3" d="M90.71,156.19a.32.32,0,0,1,0,.14.27.27,0,0,1-.14.1l-.27.06-.49,0-.42,0a1.05,1.05,0,0,1-.26-.07.4.4,0,0,1-.16-.12.93.93,0,0,1-.1-.2L87.66,153c-.15-.34-.29-.66-.44-.95a3,3,0,0,0-.54-.75,2,2,0,0,0-.73-.49,2.5,2.5,0,0,0-1-.18H83.79v5.52a.23.23,0,0,1,0,.14.28.28,0,0,1-.14.09,1.12,1.12,0,0,1-.26.06,2.42,2.42,0,0,1-.42,0,2.37,2.37,0,0,1-.41,0,1.37,1.37,0,0,1-.27-.06.28.28,0,0,1-.14-.09.33.33,0,0,1,0-.14v-12a.64.64,0,0,1,.21-.55.7.7,0,0,1,.43-.15h2.75l.82,0,.58.06a4.61,4.61,0,0,1,1.33.41,3.16,3.16,0,0,1,1,.71,2.77,2.77,0,0,1,.58,1,3.69,3.69,0,0,1,.19,1.23,3.49,3.49,0,0,1-.17,1.16,2.76,2.76,0,0,1-.51.92,3.08,3.08,0,0,1-.79.68,4.46,4.46,0,0,1-1,.49,2,2,0,0,1,.58.36,2.65,2.65,0,0,1,.49.51,4.51,4.51,0,0,1,.42.69,8.38,8.38,0,0,1,.4.89l1.16,2.84c.1.25.16.42.19.51a1.39,1.39,0,0,1,0,.23m-2.6-9.1a2.3,2.3,0,0,0-.34-1.29,1.87,1.87,0,0,0-1.13-.75,3.06,3.06,0,0,0-.57-.1c-.21,0-.48,0-.83,0H83.79v4.36h1.68a4.06,4.06,0,0,0,1.18-.16,2.4,2.4,0,0,0,.82-.46A1.78,1.78,0,0,0,88,148a2.49,2.49,0,0,0,.15-.87"/><path class="cls-3" d="M102.52,151.67a6,6,0,0,1-.35,2.1,4.41,4.41,0,0,1-1,1.57,4.29,4.29,0,0,1-1.56,1,6.19,6.19,0,0,1-2.09.33,5.7,5.7,0,0,1-2-.31,4.2,4.2,0,0,1-1.51-.92,3.93,3.93,0,0,1-1-1.51,5.94,5.94,0,0,1-.35-2.11v-8a.22.22,0,0,1,0-.14.22.22,0,0,1,.14-.1l.26-.06a2.26,2.26,0,0,1,.42,0,2.54,2.54,0,0,1,.41,0l.26.06a.3.3,0,0,1,.14.1.29.29,0,0,1,0,.14v7.82a4.92,4.92,0,0,0,.22,1.57,2.85,2.85,0,0,0,.63,1.12,2.63,2.63,0,0,0,1,.67,4.1,4.1,0,0,0,2.65,0,2.4,2.4,0,0,0,1-.66,2.83,2.83,0,0,0,.62-1.09,4.64,4.64,0,0,0,.22-1.52v-7.91a.21.21,0,0,1,0-.14.22.22,0,0,1,.14-.1l.26-.06a2.42,2.42,0,0,1,.42,0,2.25,2.25,0,0,1,.4,0l.26.06a.26.26,0,0,1,.14.1.22.22,0,0,1,0,.14Zm-3.84-11.75a1.29,1.29,0,0,1,.21-.2,1.33,1.33,0,0,1,.24-.11l.31-.05.43,0a1.92,1.92,0,0,1,.47.05.67.67,0,0,1,.24.11.16.16,0,0,1,0,.16.38.38,0,0,1-.11.19l-2.27,2.12a1.24,1.24,0,0,1-.19.16.56.56,0,0,1-.19.09l-.26.05-.35,0a1.6,1.6,0,0,1-.36,0,.3.3,0,0,1-.18-.08.12.12,0,0,1,0-.14.43.43,0,0,1,.11-.19Z"/><rect class="cls-3" x="-0.17" y="122.45" width="55.03" height="55.04"/><path class="cls-17" d="M27.31,168.62l-9.93-22.74L9.2,139.24l.29,22.7c.07,5,5.5,12.51,17.82,6.68"/><path class="cls-18" d="M28,168.24,17.84,145.86l-8.35-6.53.3,22.33C9.87,166.58,15.4,174,28,168.24"/><path class="cls-17" d="M13.21,142.39l-4-3,.05-.17s2.3,1.78,4.16,3.05c.08.05-.12,0-.17.17"/><path class="cls-19" d="M13.21,142.39l-4-3,.05-.17s2.3,1.78,4.16,3.05C13.46,142.27,13.26,142.22,13.21,142.39Z"/><path class="cls-17" d="M9.17,138.65l-.81-.39v.85h0v0l.87.26Z"/><path class="cls-19" d="M9.17,138.65l-.81-.39v.85h0v0l.87.26Z"/><path class="cls-20" d="M9.21,139.4l-.09-.75-.72-.38,0,.81c0,.09.78.22.79.32"/><path class="cls-19" d="M9.21,139.4l-.09-.75-.72-.38,0,.81C8.42,139.17,9.2,139.3,9.21,139.4Z"/><path class="cls-20" d="M9.21,139.4l-.81-1.08,0,.79c0,.09.74.21.79.29"/><path class="cls-19" d="M9.21,139.4l-.81-1.08,0,.79C8.42,139.2,9.16,139.32,9.21,139.4Z"/><path class="cls-17" d="M9.22,139.1a.23.23,0,0,1,.24.23.24.24,0,0,1-.24.24.25.25,0,0,1-.25-.24.24.24,0,0,1,.25-.23"/><path class="cls-19" d="M9.22,139.1a.23.23,0,0,1,.24.23.24.24,0,0,1-.24.24.25.25,0,0,1-.25-.24A.24.24,0,0,1,9.22,139.1Z"/><path class="cls-20" d="M9.22,139.17a.16.16,0,0,1,.17.16.17.17,0,1,1-.34,0,.16.16,0,0,1,.17-.16"/><path class="cls-19" d="M9.22,139.17a.16.16,0,0,1,.17.16.17.17,0,1,1-.34,0A.16.16,0,0,1,9.22,139.17Z"/><path class="cls-21" d="M9.65,153c.55.47,1.58.19,1.7,1.06.06.48.74.46.94.85.51,1,1.39.58,1.65.92a2.09,2.09,0,0,0,1.77.89c.69-.14,1.39.56,2.05,1,1.16.74,2.27.43,2.27,3a6.57,6.57,0,0,1-.28,2.78c-.68.93-1.94.81-3.24,1.1-.25.05-1.37-1-2.43-.74-.46.13-1-.2-1.51-.09s-1.36.06-1.68-.56-1.1-.8-1.1-1.1c0-2.06-.13-7.22-.14-9.14"/><path class="cls-19" d="M9.65,153c.55.47,1.58.19,1.7,1.06.06.48.74.46.94.85.51,1,1.39.58,1.65.92a2.09,2.09,0,0,0,1.77.89c.69-.14,1.39.56,2.05,1,1.16.74,2.27.43,2.27,3a6.57,6.57,0,0,1-.28,2.78c-.68.93-1.94.81-3.24,1.1-.25.05-1.37-1-2.43-.74-.46.13-1-.2-1.51-.09s-1.36.06-1.68-.56-1.1-.8-1.1-1.1C9.79,160.09,9.66,154.93,9.65,153Z"/><path class="cls-17" d="M17.17,154.62c-1.13-.86-5.71-2.67-6.36-4s.48-3.07.17-2.11c-.38,1.19,3.78,2.9,4.93,3.39.44.19,1.88.69,1.88,1.28,0,.09-.14.54-.14.68,0,.41-.48.63-.48.72"/><path class="cls-19" d="M17.17,154.62c-1.13-.86-5.71-2.67-6.36-4s.48-3.07.17-2.11c-.38,1.19,3.78,2.9,4.93,3.39.44.19,1.88.69,1.88,1.28,0,.09-.14.54-.14.68C17.65,154.31,17.17,154.53,17.17,154.62Z"/><path class="cls-20" d="M17.46,154.45c-1.16-.94-5.83-2.88-6.49-4.27s.48-3.31.17-2.28c-.38,1.28,3.87,3.14,5,3.67.45.19,1.92.74,1.92,1.36,0,.1-.15.59-.15.74,0,.44-.49.68-.49.78"/><path class="cls-19" d="M17.46,154.45c-1.16-.94-5.83-2.88-6.49-4.27s.48-3.31.17-2.28c-.38,1.28,3.87,3.14,5,3.67.45.19,1.92.74,1.92,1.36,0,.1-.15.59-.15.74C18,154.11,17.46,154.35,17.46,154.45Z"/><path class="cls-18" d="M19.33,154.53c.07-4.74,1-9.88.39-11.87a45.52,45.52,0,0,1-5.81-4.35c-.2-.18-2.28,8-2.94,9.83.78,2.32,4.57,3.1,8.36,6.39"/><path class="cls-19" d="M19.33,154.53c.07-4.74,1-9.88.39-11.87a45.52,45.52,0,0,1-5.81-4.35c-.2-.18-2.28,8-2.94,9.83C11.75,150.46,15.54,151.24,19.33,154.53Z"/><path class="cls-21" d="M17.38,145c-.33-.14-1.12-.89-1.49-1.06-.83-.38-2.54-1.9-2.92-1.54a4.38,4.38,0,0,0-1,2.59c-.06.42.32.42.65.56.58.28.84.6,1.47.66,1.57.2,2.43,1.41,3.25,1,.33-.15.18-1.28.56-1.46.58-.28-.24-.47-.48-.8"/><path class="cls-19" d="M17.38,145c-.33-.14-1.12-.89-1.49-1.06-.83-.38-2.54-1.9-2.92-1.54a4.38,4.38,0,0,0-1,2.59c-.06.42.32.42.65.56.58.28.84.6,1.47.66,1.57.2,2.43,1.41,3.25,1,.33-.15.18-1.28.56-1.46C18.44,145.52,17.62,145.33,17.38,145Z"/><path class="cls-22" d="M19.57,148.66c0,.07-.06.25-.18.45a.38.38,0,0,0,.24-.14,1,1,0,0,1-.21.36s.11,0,.19-.13v.1l-.08.25c-.08,0-.09.19-.14.29a.87.87,0,0,1-.07-.78c-.1-.08,0-.24.1-.37s-.1.07-.12.07a.88.88,0,0,1,.21-.53.19.19,0,0,1,.31.08c0,.09,0,.12-.16.21s-.17.14-.09.14"/><path class="cls-17" d="M13.84,138.36c.92,2.63,1,7.2,1.69,10,0,.16.15.81.2.88a3.79,3.79,0,0,0-.55-.58c-.61-.37-2.19-1.48-3.62-.76a2,2,0,0,0-.31.22l-.19.2c-.08-.2-.1-.29.08-.47.19-.82.39-1.7.59-2.59.1-.43.21-.86.3-1.28.64-2.61,1.29-5,1.81-5.67"/><path class="cls-19" d="M13.84,138.36c.92,2.63,1,7.2,1.69,10,0,.16.15.81.2.88a3.79,3.79,0,0,0-.55-.58c-.61-.37-2.19-1.48-3.62-.76a2,2,0,0,0-.31.22l-.19.2c-.08-.2-.1-.29.08-.47.19-.82.39-1.7.59-2.59.1-.43.21-.86.3-1.28C12.67,141.42,13.32,139,13.84,138.36Z"/><path class="cls-17" d="M19.44,142.67l-5.78-4.32.07-.27c0-.05,3.29,2.54,5.93,4.35.11.08-.15,0-.22.24"/><path class="cls-19" d="M19.44,142.67l-5.78-4.32.07-.27c0-.05,3.28,2.54,5.93,4.35C19.77,142.51,19.51,142.44,19.44,142.67ZM16,152.54v.31a1,1,0,0,1,0,.15s0,.05,0,.1,0,.13,0,.2v.09c0,.06,0,.17.05,0m.53-.56v.31c0,.06,0,.12,0,.16s-.05,0-.05.09a1.21,1.21,0,0,0,0,.2v.1c0,.07,0,.17,0,0m.61-.52c0,.08,0,.23,0,.32s0,.13,0,.15-.06.06-.05.1,0,.12,0,.2v.1c0,.06,0,.16.05,0m-1.64-1.88s-.09.08-.09.12v.07l0,0V153h0v.15m-.34-1.33a1,1,0,0,0-.08.56c0,.07,0,.2,0,.22a1.34,1.34,0,0,0-.11.21l0,0c-.07.08.07,0-.29,0m-.36-1.51s0,.1,0,.15v.08l0,.05v.7h0c0,.09,0,.14,0,0m-.41-1.25c0,.07,0,.12,0,.16v.07l0,.05v.33s0,.08,0,.1v.3c0,.07,0,.13,0-.05m-2.4-2.82a.3.3,0,0,0-.09.1h0v0l0,0v0l0,0v0l0,.06v0h0v.06c0,.05,0,.1,0,.15s0,.05,0,.07v.26c0,.07,0,.07,0,0m.78-.29s-.09,0-.09.07l0,0V150l0,0v.06h0v.12l0,.07v0s0,.08,0,.11,0,0,0,0v.23s0,.05,0,.07m2.9.9a.8.8,0,0,0-.07.55c0,.07,0,.2,0,.22a1.28,1.28,0,0,0-.11.2l0,0c-.07.08.07,0-.29.05m-1.64-2.63a3.1,3.1,0,0,0-.08.63v.45c0,.07-.05.14,0,0m.59-.66a2.17,2.17,0,0,0-.11.69v.24c0,.08,0,.23,0,.23m4.15,1.26s.05.11.05.13v.19h0v.15l0,.06v0l0,0v0s-.07,0-.07.09-.05.07-.05.09,0,.06,0,.08l0,0v.08h0V154m-.82-1.67s0,.1,0,.12v.05l0,0v0l0,0v.1l0,0v.15a.16.16,0,0,0,0,.1v.28s0,.07,0,.05m-4.33-3.84-.09.1,0,0v0l0,0v0l0,0v0l0,.05v.05l0,0v.05c0,.06,0,.1,0,.16s0,.05,0,.06v.26c0,.08,0,.08,0,0m.79-.2v.26h0v0l0,.05v0l0,.06v0a.41.41,0,0,0,0,.1v.1a.2.2,0,0,0,0,.07v.15c0,.08,0,.08,0,0m.57-.69c0,.05,0,.1,0,.15v.07l0,.06v.05h0v.05h0v.61c0,.07,0,.12,0-.06m.89-.19,0,.09v0l0,0v.08h0v.08l0,0v.08c0,.05,0,.1,0,.15v.3s0,.07,0,.07M13,150.81s0,.09,0,.12v.18l0,0v.18a2.11,2.11,0,0,0,0,.23v.23h0v.15m4.46,1.25s0,.11,0,.12,0,0,0,.09l0,0,0,0v0h0v0l0,0v0h0v.1l0,0v.52M15,152c0,.06,0,.14,0,.18v.38s0,.07,0,.1v.07c0,.06,0,0,0,.06v0l0,0v0h0s-.08.12,0,0m-.79-1.29v.15l0,0v0l0,0v.11s0,.07,0,.12v.38m-.28-1.13c-.11,0-.08,0-.08.15v1.05m.91-.59-.07.13v.11l0,0v.68m.91-.47s-.09.08-.09.13v.08l0,0v.59h0v0a.37.37,0,0,1,0,.11m.9-.7V153a1.3,1.3,0,0,1,0,.15s-.06.06-.06.1,0,.13,0,.19v.11c0,.06,0,.16.05,0m-4.67-3.9-.1.11,0,0v0l0,0v0l0,0h0l0,.07v0l0,0v.05s0,.1,0,.14,0,.06,0,.09v.25c0,.07,0,.07.06,0"/><path class="cls-17" d="M10.65,149.4c0,.12.2-.83.29-1.17s.86-1.13,1.24-1.13c.19,0,.53,0,.77,0a2.6,2.6,0,0,1,2.05,1c.09.09.37.28.38.43a4.66,4.66,0,0,1,.39.87c-1.61-1.18-4.73-1.38-5.12,0"/><path class="cls-19" d="M10.65,149.4c0,.12.2-.83.29-1.17s.86-1.13,1.24-1.13c.19,0,.53,0,.77,0a2.6,2.6,0,0,1,2.05,1c.09.09.37.28.38.43a4.66,4.66,0,0,1,.39.87C14.16,148.22,11,148,10.65,149.4Z"/><path class="cls-20" d="M10.65,149.22c0,.1.2-.77.29-1.07s.86-1.06,1.24-1.06c.19,0,.53,0,.77,0A2.68,2.68,0,0,1,15,148c.09.08.34.26.38.39s.15.37.24.77c-1.61-1.11-4.58-1.23-5,0"/><path class="cls-19" d="M10.65,149.22c0,.1.2-.77.29-1.07s.86-1.06,1.24-1.06c.19,0,.53,0,.77,0A2.68,2.68,0,0,1,15,148c.09.08.34.26.38.39s.15.37.24.77C14,148.07,11,148,10.65,149.22Z"/><path class="cls-18" d="M13.71,138.23c.93,2.7.92,7.43,1.73,10.18a4,4,0,0,0-3.95-.74,2.05,2.05,0,0,0-.55.46c1.53-5.35,2-8,2.77-9.9"/><path class="cls-19" d="M13.71,138.23c.93,2.7.92,7.43,1.73,10.18a4,4,0,0,0-3.95-.74,2.05,2.05,0,0,0-.55.46C12.47,142.78,12.89,140.11,13.71,138.23Z"/><path class="cls-21" d="M14.6,142.61c.05.53.12,1.35.16,1.93,0,.11-2.2-.47-3.06.84.32-1.11.38-1.72.59-2.34,0,0,.05-.11.08-.17.48-.44,2.2-.49,2.23-.26"/><path class="cls-19" d="M14.6,142.61c.05.53.12,1.35.16,1.93,0,.11-2.2-.47-3.06.84.32-1.11.38-1.72.59-2.34,0,0,.05-.11.08-.17C12.85,142.43,14.57,142.38,14.6,142.61Z"/><polygon class="cls-17" points="13.67 137.34 12.51 136.79 12.51 138 12.51 138.02 12.51 138.06 13.76 138.44 13.67 137.34"/><polygon class="cls-19" points="13.67 137.34 12.51 136.79 12.51 138 12.51 138.02 12.51 138.06 13.76 138.44 13.67 137.34"/><path class="cls-20" d="M13.72,138.41l-.12-1.07-1-.54,0,1.15c0,.13,1.12.32,1.14.46"/><path class="cls-19" d="M13.72,138.41l-.12-1.07-1-.54,0,1.15C12.59,138.08,13.7,138.27,13.72,138.41Z"/><path class="cls-20" d="M13.72,138.41l-1.14-1.54,0,1.13c0,.13,1,.31,1.12.41"/><path class="cls-19" d="M13.72,138.41l-1.14-1.54,0,1.13C12.6,138.13,13.64,138.31,13.72,138.41Z"/><path class="cls-17" d="M13.73,138a.34.34,0,1,1-.34.34.34.34,0,0,1,.34-.34"/><path class="cls-19" d="M13.73,138a.34.34,0,1,1-.34.34A.34.34,0,0,1,13.73,138Z"/><path class="cls-20" d="M13.73,138.09a.23.23,0,1,1,0,.46.23.23,0,0,1,0-.46"/><path class="cls-19" d="M13.73,138.09a.23.23,0,1,1,0,.46.23.23,0,0,1,0-.46Z"/><path class="cls-23" d="M15.36,155.1a4.38,4.38,0,0,0,.17,1.43,2.46,2.46,0,0,1,0,.54l.05.12c0,.05-.06.53-.06.53l0,.09c0,.2.09.51-.13.59m-1.06-4c.06.5.13,1.07.18,1.58s0,.92,0,1.39c0,.18.16.92-.19.82m-1.73-4.83a15.29,15.29,0,0,0,0,2.14c0,.28-.19.69-.19,1v.61m.9-3.67a4.84,4.84,0,0,1,.16,2.88,3.05,3.05,0,0,0-.11.75v.78m-1.59-4.62c-.72.83-.48,3.49-.48,4.68m-.72-5.66a7.43,7.43,0,0,0-.19,2.74c0,.92,0,1.85,0,2.75m5-9.33s0,0,0,.08v.19s0,0,0,.07v.12s0,0,0,.09m-.24-.69c0,.12,0,.27,0,.41v.17h0m-.27-.73v.61m-.32-.74v.69m-.27-.78a6.22,6.22,0,0,1,0,.63m-.29-.71a3.38,3.38,0,0,0,0,.45v.19s0,.11,0,0m-.2-.68v.37c0,.1,0,.17,0,.28m-.23-.68v.18c0,.08,0,.15,0,.22v.22m-.18-.65v.64h0m-.18-.69c0,.11,0,.25,0,.37v.29s0,.06,0,0m-.22-.71v.63s0,.05,0,.06m-.19-.6c0-.11,0,0,0,0v.35s0,.11,0,.14v.08h0m-.65-.45v.1a1,1,0,0,0-.07.24s0,.11,0,.15,0,.19,0,.07m.57-.67c0-.13,0,0,0,0,0,.18,0,.39,0,.58m-.23-.56a.52.52,0,0,0-.05.33v.16s0,.08-.07.11m-.22-.48c0,.1-.08.2-.08.3s0,.08,0,.14,0,.07,0,.14m-.13-.42c0-.12,0,0,0,0s0,0,0,.05l0,.14c0,.08,0,.12,0,.17a.16.16,0,0,1,0,.1.2.2,0,0,0,0,0s0,.05,0,0m-.11-.44a.41.41,0,0,0-.07.29c0,.09,0,.2,0,.27"/><path class="cls-19" d="M10.65,161a12.44,12.44,0,0,0,.19,2.64,3.85,3.85,0,0,1,.39,1.22,2.73,2.73,0,0,0,.19.45c0,.05.09.11.14.11s.2.12.2-.06m-.09-4c.26,1,.41,2.14.58,3.16a3.2,3.2,0,0,0,.48,1.1c.07.1.45.62.55.61m.26-4.82a11.21,11.21,0,0,0,.48,2.29c.09.26.16.69.24.92a4.63,4.63,0,0,1,.3.8,2.74,2.74,0,0,0,.17.74c0,.07.27.35.28.48s.15.22.12,0m-.55-4.19c.1.29.22.72.31,1s.48.71.59,1.07.48.71.6,1.06.33.83.44,1.19m-4-4.79a22.81,22.81,0,0,1,.58,2.41,2.14,2.14,0,0,0,.48.82c.07.08.46.48.54.47"/><path class="cls-17" d="M27.6,168.7,37.53,146l8.18-6.63L45.42,162c-.07,5-5.49,12.51-17.82,6.69"/><path class="cls-18" d="M26.94,168.32l10.13-22.38,8.35-6.53-.3,22.33c-.07,4.92-5.62,12.3-18.18,6.58"/><path class="cls-17" d="M41.7,142.47l4.06-3.05-.06-.18s-2.3,1.79-4.16,3c-.08.05.11,0,.16.18"/><path class="cls-19" d="M41.7,142.47l4.06-3.05-.06-.18s-2.3,1.79-4.16,3C41.46,142.34,41.65,142.31,41.7,142.47Z"/><path class="cls-17" d="M45.74,138.73l.82-.38v.87h0l-.87.27Z"/><path class="cls-19" d="M45.74,138.73l.82-.38v.87h0l-.87.27Z"/><path class="cls-20" d="M45.71,139.48l.08-.75.72-.38v.8c0,.08-.79.22-.8.33"/><path class="cls-19" d="M45.71,139.48l.08-.75.72-.38v.8C46.5,139.23,45.72,139.37,45.71,139.48Z"/><path class="cls-20" d="M45.71,139.48l.8-1.08v.8c0,.08-.74.21-.79.28"/><path class="cls-19" d="M45.71,139.48l.8-1.08v.8C46.5,139.28,45.76,139.41,45.71,139.48Z"/><path class="cls-17" d="M45.7,139.17a.25.25,0,0,0-.25.24.24.24,0,0,0,.25.23.23.23,0,0,0,.24-.23.24.24,0,0,0-.24-.24"/><path class="cls-19" d="M45.7,139.17a.25.25,0,0,0-.25.24.24.24,0,0,0,.25.23.23.23,0,0,0,.24-.23A.24.24,0,0,0,45.7,139.17Z"/><path class="cls-20" d="M45.7,139.24a.16.16,0,0,0-.17.17.16.16,0,0,0,.17.16.16.16,0,0,0,.16-.16.17.17,0,0,0-.16-.17"/><path class="cls-19" d="M45.7,139.24a.16.16,0,0,0-.17.17.16.16,0,0,0,.17.16.16.16,0,0,0,.16-.16A.17.17,0,0,0,45.7,139.24Z"/><path class="cls-21" d="M45.26,153.09c-.55.47-1.58.2-1.69,1.06-.07.48-.75.45-.94.84-.51,1-1.39.6-1.65.93a2.13,2.13,0,0,1-1.78.89c-.68-.15-1.39.56-2,1-1.16.74-2.27.43-2.27,3,0,1-.07,2.33.28,2.8.68.93,1.94.81,3.24,1.09.24,0,1.37-1,2.42-.73.46.12,1-.2,1.52-.1a1.41,1.41,0,0,0,1.67-.56c.36-.74,1.1-.8,1.1-1.11,0-2,.12-7.21.14-9.12"/><path class="cls-19" d="M45.26,153.09c-.55.47-1.58.2-1.69,1.06-.07.48-.75.45-.94.84-.51,1-1.39.6-1.65.93a2.13,2.13,0,0,1-1.78.89c-.68-.15-1.39.56-2,1-1.16.74-2.27.43-2.27,3,0,1-.07,2.33.28,2.8.68.93,1.94.81,3.24,1.09.24,0,1.37-1,2.42-.73.46.12,1-.2,1.52-.1a1.41,1.41,0,0,0,1.67-.56c.36-.74,1.1-.8,1.1-1.11C45.12,160.17,45.24,155,45.26,153.09Z"/><path class="cls-17" d="M37.74,154.69c1.14-.86,5.72-2.66,6.37-3.95s-.47-3.06-.18-2.11c.39,1.18-3.78,2.91-4.92,3.39-.45.2-1.89.68-1.89,1.28,0,.09.14.55.14.68,0,.41.48.63.48.71"/><path class="cls-19" d="M37.74,154.69c1.14-.86,5.72-2.66,6.37-3.95s-.47-3.06-.18-2.11c.39,1.18-3.78,2.91-4.92,3.39-.45.2-1.89.68-1.89,1.28,0,.09.14.55.14.68C37.26,154.39,37.74,154.61,37.74,154.69Z"/><path class="cls-20" d="M37.45,154.52c1.16-.93,5.83-2.87,6.49-4.27s-.48-3.32-.17-2.27c.39,1.29-3.86,3.13-5,3.66-.45.21-1.92.72-1.92,1.36,0,.11.16.59.16.76,0,.43.48.66.48.76"/><path class="cls-19" d="M37.45,154.52c1.16-.93,5.83-2.87,6.49-4.27s-.48-3.32-.17-2.27c.39,1.29-3.86,3.13-5,3.66-.45.21-1.92.72-1.92,1.36,0,.11.16.59.16.76C37,154.19,37.45,154.42,37.45,154.52Z"/><path class="cls-18" d="M35.58,154.6c-.06-4.73-1-9.88-.38-11.86A46.44,46.44,0,0,0,41,138.38c.19-.17,2.27,8,2.94,9.84-.79,2.32-4.57,3.09-8.37,6.38"/><path class="cls-19" d="M35.58,154.6c-.06-4.73-1-9.88-.38-11.86A46.44,46.44,0,0,0,41,138.38c.19-.17,2.27,8,2.94,9.84C43.16,150.54,39.38,151.31,35.58,154.6Z"/><path class="cls-21" d="M37.53,145.08c.34-.14,1.12-.9,1.49-1.07.83-.37,2.55-1.89,2.93-1.53a4.45,4.45,0,0,1,1,2.58c.07.42-.31.43-.64.58a4.55,4.55,0,0,1-1.46.66c-1.58.2-2.45,1.4-3.27,1-.32-.15-.17-1.28-.56-1.47-.57-.28.24-.47.48-.79"/><path class="cls-19" d="M37.53,145.08c.34-.14,1.12-.9,1.49-1.07.83-.37,2.55-1.89,2.93-1.53a4.45,4.45,0,0,1,1,2.58c.07.42-.31.43-.64.58a4.55,4.55,0,0,1-1.46.66c-1.58.2-2.45,1.4-3.27,1-.32-.15-.17-1.28-.56-1.47C36.48,145.59,37.29,145.4,37.53,145.08Z"/><path class="cls-22" d="M35.35,148.73c0,.08,0,.25.18.45a.37.37,0,0,1-.25-.12.81.81,0,0,0,.23.34c-.06,0-.13,0-.21-.12v.09c0,.07.06.19.09.27s.09.17.14.28a1,1,0,0,0,.07-.78c.09-.08,0-.24-.09-.37l.11.08a1,1,0,0,0-.22-.55.19.19,0,0,0-.3.08c0,.1,0,.13.15.22s.17.13.1.13"/><path class="cls-17" d="M41.08,138.44c-.92,2.62-1,7.21-1.7,10.05a5.77,5.77,0,0,1-.2.88,6.24,6.24,0,0,1,.55-.58c.62-.38,2.19-1.48,3.63-.77a2.1,2.1,0,0,1,.3.24l.2.18c.09-.2.1-.29-.09-.46-.18-.82-.39-1.7-.59-2.6l-.3-1.27c-.63-2.61-1.29-5-1.8-5.67"/><path class="cls-19" d="M41.08,138.44c-.92,2.62-1,7.21-1.7,10.05a5.77,5.77,0,0,1-.2.88,6.24,6.24,0,0,1,.55-.58c.62-.38,2.19-1.48,3.63-.77a2.1,2.1,0,0,1,.3.24l.2.18c.09-.2.1-.29-.09-.46-.18-.82-.39-1.7-.59-2.6l-.3-1.27C42.25,141.5,41.59,139.1,41.08,138.44Z"/><path class="cls-17" d="M35.48,142.75l5.78-4.34-.08-.25s-3.28,2.53-5.93,4.35c-.1.07.17,0,.23.24"/><path class="cls-19" d="M35.48,142.75l5.78-4.34-.08-.25s-3.28,2.53-5.93,4.35C35.15,142.58,35.42,142.51,35.48,142.75ZM39,152.61v.32a.49.49,0,0,0,0,.14s0,.07,0,.12,0,.12,0,.17v.11c0,.07,0,.17-.05,0m-.53-.56v.32a.39.39,0,0,0,0,.13s.06.08.06.11,0,.14,0,.19,0,.1,0,.11,0,.17,0,0m-.61-.52c0,.09,0,.23,0,.31s0,.13,0,.15,0,.06,0,.11a.56.56,0,0,1,0,.19v.1c0,.06,0,.17,0,0m1.63-1.88s.1.08.09.13v.07l0,0v.76m.35-1.31a.82.82,0,0,1,.08.55.72.72,0,0,0,0,.23,1,1,0,0,1,.12.2l0,0c.07.07-.07,0,.29.05m.36-1.51c0,.05,0,.1,0,.15v.07l0,.05v.33a.38.38,0,0,0,0,.1v.3c0,.08,0,.14-.05,0m.41-1.23c0,.05,0,.09,0,.14v.08l0,.05v.73c0,.07,0,.12,0,0m2.4-2.83a.47.47,0,0,0,.1.1l0,0v0l0,0v.08l0,0h0v0l0,0v.05c0,.05,0,.11,0,.14s0,.06,0,.09v.25c0,.08,0,.08-.05,0m-.79-.26s.1,0,.1.05v.08h0v.09h0v.12l0,0v.05s0,.07,0,.11,0,0,0,0v.23s0,.05,0,.07m-2.92.9a.88.88,0,0,1,.08.56.75.75,0,0,0,0,.22.76.76,0,0,1,.12.2l0,0c.06.08-.08,0,.28.06m1.65-2.64a3.85,3.85,0,0,1,.09.62,2.91,2.91,0,0,1,0,.3v.15c0,.08,0,.15,0,0m-.6-.66a2,2,0,0,1,.12.68v.26c0,.07,0,.22,0,.22M38.18,153s-.06.11-.06.13v.35l0,.06v0h0v.06s.07,0,.07.07,0,.08,0,.1,0,.05,0,.08l0,0v.16m.82-1.68s.05.11.05.13v.06h0v0l0,0v0l0,0v0l0,0v.15s0,0,0,.1v.28s0,.08,0,0m4.33-3.83.08.1,0,0v0l0,0v0l0,0v0l0,.05v0l0,0v0c0,.05,0,.1,0,.14s0,.06,0,.09v.25c0,.08,0,.08,0,0m-.79-.2v.18h0v.11l0,0v.05l0,0v0s0,.05,0,.1v.1a.29.29,0,0,1,0,.08v.08h0v.06c0,.07,0,.07-.06,0m-.56-.68s0,.11,0,.14v.09l0,.05v.5s0,.07,0,.1v.13c0,.07,0,.12-.05-.06m-.88-.2,0,.1v.13h0v.07l0,0v.07c0,.05,0,.11,0,.15v.3s0,.08,0,.08m.28-1.29s0,.1,0,.13v0h0v.13l0,0v.18a1.77,1.77,0,0,1,0,.22V152m-4.47,1.23s0,.1,0,.14,0,.05,0,.07l0,0,0,0v0h0v0l0,0v0h0v0l0,0v.05l0,0v.41a.53.53,0,0,1,0,.12M39.9,152s0,.12,0,.17v.54c0,.06,0,0,0,.06v.05l0,0v0h0s.07.13,0,0m.79-1.28v.15l0,0V152c0,.05,0,.08,0,.12v.14s0,.05,0,.08h0v.15m.28-1.12c.12,0,.1.05.09.15,0,.33,0,.73,0,1.06m-.9-.59.07.12v.1l0,0v.13h0v.08s0,.08,0,.11v.35m-.91-.47s.1.08.1.13v.08l0,0v.08h0v.49h0v.16m-.91-.68V153a1.3,1.3,0,0,0,0,.15s.06.06.06.11,0,.11,0,.19v.1c0,.06,0,.17,0,0m4.67-3.89.09.1,0,0v0l0,0V150l0,.05v.05l0,0v0c0,.05,0,.1,0,.15s0,.05,0,.07v.25c0,.07,0,.08,0,0"/><path class="cls-17" d="M44.26,149.49c0,.11-.19-.85-.28-1.18s-.86-1.13-1.25-1.13c-.2,0-.52-.06-.76-.06a2.6,2.6,0,0,0-2,1.06c-.1.09-.37.28-.39.43a5.4,5.4,0,0,0-.39.88c1.61-1.19,4.74-1.39,5.12,0"/><path class="cls-19" d="M44.26,149.49c0,.11-.19-.85-.28-1.18s-.86-1.13-1.25-1.13c-.2,0-.52-.06-.76-.06a2.6,2.6,0,0,0-2,1.06c-.1.09-.37.28-.39.43a5.4,5.4,0,0,0-.39.88C40.75,148.3,43.88,148.1,44.26,149.49Z"/><path class="cls-20" d="M44.26,149.3c0,.1-.19-.77-.28-1.07s-.86-1.06-1.25-1.06c-.2,0-.52,0-.76,0a2.68,2.68,0,0,0-2,1c-.1.09-.35.26-.39.39a7.19,7.19,0,0,0-.23.76c1.61-1.11,4.58-1.22,5,.05"/><path class="cls-19" d="M44.26,149.3c0,.1-.19-.77-.28-1.07s-.86-1.06-1.25-1.06c-.2,0-.52,0-.76,0a2.68,2.68,0,0,0-2,1c-.1.09-.35.26-.39.39a7.19,7.19,0,0,0-.23.76C40.91,148.14,43.88,148,44.26,149.3Z"/><path class="cls-18" d="M41.2,138.31c-.93,2.7-.92,7.43-1.72,10.17a4,4,0,0,1,4-.72,1.89,1.89,0,0,1,.55.45c-1.54-5.36-1.95-8-2.78-9.9"/><path class="cls-19" d="M41.2,138.31c-.93,2.7-.92,7.43-1.72,10.17a4,4,0,0,1,4-.72,1.89,1.89,0,0,1,.55.45C42.44,142.85,42,140.18,41.2,138.31Z"/><path class="cls-21" d="M40.32,142.68c-.07.53-.13,1.35-.17,1.94,0,.11,2.2-.47,3.07.85-.33-1.11-.39-1.74-.61-2.34a.4.4,0,0,0-.07-.18c-.48-.44-2.19-.5-2.22-.27"/><path class="cls-19" d="M40.32,142.68c-.07.53-.13,1.35-.17,1.94,0,.11,2.2-.47,3.07.85-.33-1.11-.39-1.74-.61-2.34a.4.4,0,0,0-.07-.18C42.06,142.51,40.35,142.45,40.32,142.68Z"/><polygon class="cls-17" points="41.25 137.42 42.4 136.87 42.41 138.09 42.4 138.1 42.4 138.15 41.15 138.53 41.25 137.42"/><polygon class="cls-19" points="41.25 137.42 42.4 136.87 42.41 138.09 42.4 138.1 42.4 138.15 41.15 138.53 41.25 137.42"/><path class="cls-20" d="M41.2,138.49l.12-1.07,1-.54,0,1.15c0,.12-1.13.32-1.13.46"/><path class="cls-19" d="M41.2,138.49l.12-1.07,1-.54,0,1.15C42.33,138.15,41.2,138.35,41.2,138.49Z"/><path class="cls-20" d="M41.2,138.49l1.13-1.55,0,1.14c0,.13-1,.31-1.11.41"/><path class="cls-19" d="M41.2,138.49l1.13-1.55,0,1.14C42.31,138.21,41.28,138.39,41.2,138.49Z"/><path class="cls-17" d="M41.18,138.06a.34.34,0,1,0,0,.67.34.34,0,1,0,0-.67"/><path class="cls-19" d="M41.18,138.06a.34.34,0,1,0,0,.67.34.34,0,1,0,0-.67Z"/><path class="cls-20" d="M41.18,138.16a.24.24,0,1,0,0,.47.24.24,0,1,0,0-.47"/><path class="cls-19" d="M41.18,138.16a.24.24,0,1,0,0,.47.24.24,0,1,0,0-.47ZM39.6,148.48c0,.05,0,.05,0,.09v.19s0,.05,0,.08V149s0,.05,0,.09m.23-.7a3.07,3.07,0,0,1,0,.42v.16h0m.27-.72v.61m.32-.75v.7m.26-.78c0,.19,0,.48,0,.63m.28-.71a3.23,3.23,0,0,1,0,.44v.2s0,.1,0,0m.22-.69v.38c0,.09,0,.16,0,.26m.23-.67V148c0,.07,0,.15,0,.23v.22m.2-.66v.64h0m.19-.69c0,.12,0,.26,0,.38v.29s0,.05,0,0m.23-.7v.63s0,0,0,.06m.2-.6c0-.11,0,0,0,0v.34s0,.12,0,.14,0,0,0,.06,0,0,0,0h0m.64-.46V148a1,1,0,0,1,.07.24s0,.11,0,.16,0,.18,0,.06m-.58-.68c0-.12,0,0,0,0,0,.18,0,.39,0,.57m.23-.54a.54.54,0,0,1,.06.32v.15s0,.1,0,.12m.22-.48c0,.1.09.2.09.3s0,.08,0,.13,0,.08,0,.14m.12-.42c0-.11,0,0,0,0l0,.06s0,.13,0,.14,0,.11,0,.17a.22.22,0,0,0,0,.09v0s0,.06,0,0m.12-.43c.07.06.07.18.07.28s0,.2,0,.28m.46,3.54a7.4,7.4,0,0,1,.18,2.74c0,.92.05,1.85.05,2.74m-5-2.62a4.86,4.86,0,0,1-.17,1.41,2.44,2.44,0,0,0,0,.54l0,.15a3.61,3.61,0,0,0,.06.5l0,.1c0,.2-.09.51.14.58m1.06-4c-.06.5-.13,1.06-.2,1.57s0,.94,0,1.4c0,.18-.18.92.18.81m1.71-4.82a13.88,13.88,0,0,1,.06,2.14c0,.28.18.7.18,1v.6m-.9-3.67a4.91,4.91,0,0,0-.15,2.88,3,3,0,0,1,.1.74v.79m1.59-4.63c.72.84.49,3.49.49,4.69m.62,3a10.77,10.77,0,0,1-.2,2.65,4.22,4.22,0,0,0-.37,1.21,3.35,3.35,0,0,1-.19.45c0,.07-.1.12-.15.12s-.19.12-.19-.05m.09-4c-.27,1-.42,2.15-.59,3.17a3.13,3.13,0,0,1-.48,1.09c-.06.1-.44.61-.54.61m-.27-4.83a10.76,10.76,0,0,1-.48,2.31c-.09.24-.15.68-.25.92a4.36,4.36,0,0,0-.28.79,3.2,3.2,0,0,1-.18.74c0,.06-.26.35-.28.47s-.15.24-.11,0m.54-4.17c-.08.29-.22.71-.31,1s-.48.7-.59,1.06-.48.69-.59,1.06-.32.83-.44,1.18m4-4.78a22.87,22.87,0,0,0-.59,2.41,2.25,2.25,0,0,1-.47.82c-.07.08-.45.48-.55.47"/><path class="cls-17" d="M27.5,170c.27-.33.66-.81-.13-1-.54.2-.1.67.13,1m1-3.34a27.58,27.58,0,0,0,1.3,2.83c.06.14.14.3.06.42-.53.71.45,1.09.37,1.23s.16.17.2.3c.1.35-.31.29-.64.28s.55,1.29.43,1.26c-1.08-.28-2.6-.07-2.63-1,0-.43.58-.66.51-1,0-.06-.29,0-.51,0-.07,0-.12,0-.15-.07a.06.06,0,0,1-.05,0c-.23.06-.51,0-.53,0-.06.34.51.57.51,1,0,1-1.54.77-2.63,1-.11,0,.8-1.26.44-1.25s-.73.08-.63-.27c0-.13.27-.16.19-.3s.89-.53.37-1.24c-.09-.12,0-.28.06-.42a27.58,27.58,0,0,0,1.3-2.83c.22,0,.45-.34.49-.38.28-.34.2-.32.19,0a2.8,2.8,0,0,0,.35,1.12,2.79,2.79,0,0,0,.33-1.05c0-.3-.1-.31.18,0,0,0,.27.41.49.38"/><path class="cls-19" d="M27.5,170c.27-.33.66-.81-.13-1C26.83,169.24,27.27,169.71,27.5,170Zm1-3.34a27.58,27.58,0,0,0,1.3,2.83c.06.14.14.3.06.42-.53.71.45,1.09.37,1.23s.16.17.2.3c.1.35-.31.29-.64.28s.55,1.29.43,1.26c-1.08-.28-2.6-.07-2.63-1,0-.43.58-.66.51-1,0-.06-.29,0-.51,0-.07,0-.12,0-.15-.07a.06.06,0,0,1-.05,0c-.23.06-.51,0-.53,0-.06.34.51.57.51,1,0,1-1.54.77-2.63,1-.11,0,.8-1.26.44-1.25s-.73.08-.63-.27c0-.13.27-.16.19-.3s.89-.53.37-1.24c-.09-.12,0-.28.06-.42a27.58,27.58,0,0,0,1.3-2.83c.22,0,.45-.34.49-.38.28-.34.2-.32.19,0a2.8,2.8,0,0,0,.35,1.12,2.79,2.79,0,0,0,.33-1.05c0-.3-.1-.31.18,0C28,166.32,28.27,166.69,28.49,166.66Z"/><path class="cls-18" d="M26.53,166.81a28.06,28.06,0,0,1-1.23,2.75c-.05.13-.14.28-.05.4.5.68-.42,1-.36,1.18s-.14.17-.17.3c-.09.34.29.27.6.27s-.52,1.24-.41,1.2c1-.25,2.44,0,2.47-1,0-.41-.55-.63-.48-1,0-.07.27,0,.49,0a.32.32,0,0,0,.24-.34,1.23,1.23,0,0,0,0-.28c-.05-.26-1.1-1.06.11-1.22.1,0,.44.16.44.07-.05-.76-1-2-1-2.74,0-.28.08-.29-.17,0,0,0-.25.41-.46.37"/><path class="cls-19" d="M26.53,166.81a28.06,28.06,0,0,1-1.23,2.75c-.05.13-.14.28-.05.4.5.68-.42,1-.36,1.18s-.14.17-.17.3c-.09.34.29.27.6.27s-.52,1.24-.41,1.2c1-.25,2.44,0,2.47-1,0-.41-.55-.63-.48-1,0-.07.27,0,.49,0a.32.32,0,0,0,.24-.34,1.23,1.23,0,0,0,0-.28c-.05-.26-1.1-1.06.11-1.22.1,0,.44.16.44.07-.05-.76-1-2-1-2.74,0-.28.08-.29-.17,0C27,166.47,26.74,166.85,26.53,166.81Zm-1.62,6.1c1.24-.13,2.24-.29,2.41-.65.46-1-2.61-.38-2.63-.6,0-1.37,2.86-.33,2.94-.91.16-1.1-2.4-.43-2.38-.8.08-1.4,3.07-.82,2.75-.76"/><path class="cls-18" d="M28.43,166.87a28.26,28.26,0,0,0,1.23,2.74c.05.13.13.29.05.39-.5.7.42,1.06.36,1.19s.14.17.17.31c.09.34-.28.27-.59.26s.51,1.25.4,1.22c-1-.27-2.44-.07-2.47-1,0-.42.54-.64.48-1,0-.06-.27,0-.48,0a.34.34,0,0,1-.25-.36,1.23,1.23,0,0,1,0-.27c0-.26,1.11-1-.11-1.21-.09,0-.44.15-.44.07.05-.77,1-2,1-2.75,0-.28-.08-.29.17,0,0,0,.26.4.46.37"/><path class="cls-19" d="M28.43,166.87a28.26,28.26,0,0,0,1.23,2.74c.05.13.13.29.05.39-.5.7.42,1.06.36,1.19s.14.17.17.31c.09.34-.28.27-.59.26s.51,1.25.4,1.22c-1-.27-2.44-.07-2.47-1,0-.42.54-.64.48-1,0-.06-.27,0-.48,0a.35.35,0,0,1-.25-.36,1.23,1.23,0,0,1,0-.27c0-.26,1.11-1-.11-1.21-.09,0-.44.15-.44.07.05-.77,1-2,1-2.75,0-.28-.08-.29.17,0C28,166.54,28.23,166.9,28.43,166.87ZM30,173c-1.24-.15-2.24-.3-2.4-.66-.46-1,2.61-.39,2.62-.61,0-1.36-2.85-.33-2.93-.91-.16-1.1,2.4-.44,2.38-.8-.08-1.4-3.07-.81-2.76-.76"/><path class="cls-17" d="M27.49,168.64a2.9,2.9,0,0,0-1.95-1.11c-2.06-.3-4.07,0-6-.8-1.25-.53-4.27-2.41-3.94-5.84.38-4,2.07-5.26,2.25-9.69a7.19,7.19,0,0,0-2-4.43c1.19-1.27,2.6-3,3.78-4.3,2.4,1.9,5.55,1.31,7.83,0,2.29,1.31,5.43,1.89,7.82,0,1.2,1.27,2.6,3,3.79,4.31a7.1,7.1,0,0,0-2,4.41c.18,4.43,1.86,5.64,2.25,9.69.33,3.44-2.7,5.32-3.94,5.85-1.93.83-4,.5-6,.79a3,3,0,0,0-2,1.11"/><path class="cls-19" d="M27.49,168.64a2.9,2.9,0,0,0-1.95-1.11c-2.06-.3-4.07,0-6-.8-1.25-.53-4.27-2.41-3.94-5.84.38-4,2.07-5.26,2.25-9.69a7.19,7.19,0,0,0-2-4.43c1.19-1.27,2.6-3,3.78-4.3,2.4,1.9,5.55,1.31,7.83,0,2.29,1.31,5.43,1.89,7.82,0,1.2,1.27,2.6,3,3.79,4.31a7.1,7.1,0,0,0-2,4.41c.18,4.43,1.86,5.64,2.25,9.69.33,3.44-2.7,5.32-3.94,5.85-1.93.83-4,.5-6,.79A3,3,0,0,0,27.49,168.64Z"/><path class="cls-21" d="M28,155.1V143.84c2.23.94,4.51,1.33,7,0,1.12,1.19,1.81,1.86,2.92,3.06a7.12,7.12,0,0,0-1.58,4.66A12.84,12.84,0,0,0,37,155.1Z"/><path class="cls-24" d="M18.2,155.1a10.22,10.22,0,0,0,.62-3.6c0-1.39-.5-3.79-1.67-4.8,1.1-1.2,1.64-1.86,2.75-3,2.06,1.63,5,1.09,7.14,0v11.4Z"/><path class="cls-20" d="M37.38,155.7H17.77a16,16,0,0,0-1.47,4.86c-.31,3.25,2.54,5,3.71,5.5,1.82.78,3.72.47,5.64.75a2.79,2.79,0,0,1,1.84,1,2.84,2.84,0,0,1,1.83-1c1.95-.27,3.84,0,5.64-.74,1.19-.5,4-2.26,3.72-5.5a18.26,18.26,0,0,0-1.3-4.87m-9.6-.43h9.46a10.11,10.11,0,0,1-.68-3.81c0-1.41.44-3.56,1.62-4.59-1.11-1.21-2.06-2.19-3.17-3.4-2.25,1.53-5.1,1.07-7.23,0Zm-9.85,0h9.31V143.4c-2.14,1.14-5.23,1.71-7.38,0l-3.08,3.34a7.11,7.11,0,0,1,1.81,4.72,10.8,10.8,0,0,1-.66,3.82m9.56,13.15a2.91,2.91,0,0,0-1.93-1c-2-.29-4,.05-5.93-.77-1.23-.54-4.23-2.4-3.89-5.79.37-4,2-5.19,2.22-9.58-.19-1.45-.6-3.4-1.84-4.49,1.18-1.27,2.41-2.78,3.6-4.05,2.35,1.88,5.51,1.22,7.77-.06,2.27,1.28,5.45,2,7.81.09,1.18,1.27,2.44,2.76,3.61,4-1.24,1.08-1.71,3-1.89,4.49.18,4.38,1.85,5.59,2.23,9.58.32,3.39-2.66,5.24-3.9,5.78-1.9.82-3.89.49-5.92.78a2.93,2.93,0,0,0-1.94,1"/><path class="cls-18" d="M27.49,167.66a2.73,2.73,0,0,0-1.81-1c-1.91-.26-3.79,0-5.58-.73-1.15-.5-3.9-2.25-3.59-5.43a14.8,14.8,0,0,1,1.4-4.68l19.33,0a18,18,0,0,1,1.23,4.66c.3,3.19-2.43,4.94-3.6,5.44-1.78.76-3.65.46-5.55.73a2.72,2.72,0,0,0-1.83,1"/><path class="cls-17" d="M29,157.25c.49.17,1,.37,1,.79a1.09,1.09,0,0,1,.94.87c.38.18.58.25.62.53a.67.67,0,0,1,.55.43.88.88,0,0,1,.8.44.57.57,0,0,1,.61.12c.22-.06.44-.17.7,0l.3,0a.71.71,0,0,1,.57-.3.3.3,0,0,1,.16-.35c-.1-.19-.18-.37,0-.56a.34.34,0,0,1,0-.46.34.34,0,0,1-.12-.37.45.45,0,0,1-.31-.32c-.28-.05-.42-.14-.48-.25a.35.35,0,0,1-.28,0c-.1.13-.22.12-.35.13a.67.67,0,0,1-.37.35,1.09,1.09,0,0,0,0,.26c.23-.1.48.27.33.51s-.57.34-.65,0a.59.59,0,0,1-.43-.34c-.09-.21-.15-.29,0-.45a.49.49,0,0,1,.21-.67c.13-.27.3-.4.53-.37.14-.18.19-.36.58-.32a.76.76,0,0,1,.82,0,.59.59,0,0,1,.62.26c.2.09.43.16.48.45.23.14.51.23.42.61a1,1,0,0,1,.36.78,1.09,1.09,0,0,1,0,.71.91.91,0,0,1,0,.74.89.89,0,0,1-.36.88,1,1,0,0,1-.73.82c-.31.55-.67.68-1.06.58a1,1,0,0,1-1,.3c-.43.21-.85.4-1.1.18a1.32,1.32,0,0,1-1.39-.05,1.06,1.06,0,0,1-1.26-.42.91.91,0,0,1-1-.34c-.6.25-1.1.29-1.43-.05a.46.46,0,0,1-.33.09,1,1,0,0,1,.1,1.12,1,1,0,0,1,.89.25.86.86,0,0,1,1.34.26c.92-.35,1.26-.07,1.45.61a.6.6,0,0,1,.62-.11c.37-.62.94-.43,1.21.08s-.32,1.16-1,1a.83.83,0,0,1-.87.15,1.34,1.34,0,0,1-1.14-.13,1,1,0,0,1-1.1.24c-.55.95-1.08.62-1.63.3-.41.21-.74,0-1.08-.22a.74.74,0,0,1-.7.37.7.7,0,0,1-.56-.22,1.06,1.06,0,0,1-1.33-.11.77.77,0,0,1-1-.5.68.68,0,0,1-.45,0,.84.84,0,0,1-1.49-.61c-.34,0-.68,0-.9-.64-.06-.16,0-.28.08-.45-.39-.25-.53-.45-.33-1-.41-.19-.59-.59-.25-1.19a1.24,1.24,0,0,1,.26-1.72,2.5,2.5,0,0,1,1.16-.72c0-.46.22-.83,1-1a1.15,1.15,0,0,1,1.22-1,1.31,1.31,0,0,1,1.46-.51c.2-.35.64-.49,1.65-.16a1.32,1.32,0,0,1,1.64.18c.25-.29,1.24,0,1.56.46"/><path class="cls-25" d="M19.2,161.61a1.81,1.81,0,0,1,.23,0c-.2-.45.1-.85.7-.87a3.25,3.25,0,0,1,2,.94,6.19,6.19,0,0,0,2,1.06,20.09,20.09,0,0,1,2.31.5c.34.17.29.38.21.8a.71.71,0,0,0,.47-.6c-.05-.62-.47-1.12-1.51-1.47a3.67,3.67,0,0,1-2.62-.87,3.25,3.25,0,0,0-1.7-1.4,1.78,1.78,0,0,0-1.49.14c-.7.36-.77.75-.76,1.13.05.22.1.44.16.67m4.74-.24c-.68-.65-.37-1-1-2s-2.11-1.33-2.3-.06c1.92.14,1.83,1,2.8,1.71.21,0,.56.26.53.33m1.11.28c-.75-.65-.75-2.27-1.32-3.24s-1.6-1.27-2.11,0c2.17.48,1.49,2.12,2.72,3.06a3,3,0,0,0,.71.22m.5,0c-.48-.79-.24-2.49-.57-3.57-.21-.74-1.44-1.66-2.24-.59,2.08.49,1.15,2.56,2.53,4.16.21.06.32-.06.28,0m.57.16c-.44-.92.09-2.6.15-3.71,0-.74-1-2-2-1.19,1.91,1,.68,2.85,1.59,4.82.2.13.33,0,.28.08m.42.19c-.29-.93.79-2.51,1-3.72A1.18,1.18,0,0,0,26,156.83c1.22,1.25-.31,3.72.24,5,.14.12.36.11.29.15m.36.12c.13-.87,1.51-2.52,1.87-3.72.23-.77.05-1.49-1.16-1.35.9,1.5-1.17,3.58-.94,4.95-.06.12.31,0,.23.12m.2,0c.74,1,4.15-4,2-4.63a3.94,3.94,0,0,1-.74,2.44c-.54.92-1.26,1.5-1.26,2.19m.64.17c1.44.83,4.21-3.44,2.25-4,.29,1.2-1.65,4-2.25,4m1.26,0c1.07.82,2.15-.32,2.33-1.69A1.52,1.52,0,0,0,31,159.2a4.73,4.73,0,0,1-2,3.1m1.23.44c1,.83,1.82-.41,1.9-1.54,0-.75-.11-1.4-.57-1.46.16,1.16-.53,2.78-1.33,3m1.12.33c1.08.67,1.64-.66,1.63-1.6,0-.74-.6-1.28-.76-1.2.38,1-.24,2.72-.87,2.8M32.7,163c1,.39,1.55-1.14,1-2-.29-.43-.52-.45-.68-.38A2.32,2.32,0,0,1,32.7,163m1.13-.09c.82.13,1-1.09.64-1.71-.29-.44-.53-.47-.69-.39a2,2,0,0,1,0,2.1m.91-.37c.81.13.83-.88.43-1.52-.29-.44-.52-.46-.69-.38a2.46,2.46,0,0,1,.26,1.9m.9-.52a.89.89,0,0,0,.08-1.52c-.45-.34-.71-.31-.93,0a1.5,1.5,0,0,1,.85,1.56m.63-.81a.71.71,0,0,0,0-1.12.65.65,0,0,0-1,0c.44,0,1.15.74,1,1.12m.34-1a.49.49,0,0,0-.43-.67c-.45-.06-.56.07-.59.25a1,1,0,0,1,1,.42m-2.71-3.09c-.14,0-.48.11-.36.49a.31.31,0,0,0,.52.14.59.59,0,0,1-.16-.63m.7-.09c-.13,0-.47-.11-.55.28a.3.3,0,0,0,.38.39.61.61,0,0,1,.17-.67m.69.22a.47.47,0,0,0-.71.1.33.33,0,0,0,.27.54.77.77,0,0,1,.44-.64m.49.4a.4.4,0,0,0-.65,0,.31.31,0,0,0,.11.5c0-.2.24-.49.54-.52m.41.65a.37.37,0,0,0-.6-.32c-.39.22-.26.56-.14.56,0-.2.41-.34.74-.24m.28.6c0-.22-.19-.49-.64-.32s-.47.51-.35.52c0-.21.66-.3,1-.2m.12.58a.57.57,0,0,0-.76-.45c-.42.16-.44.34-.37.52a1,1,0,0,1,1.13-.07m-3.38-.93a.51.51,0,0,1-.47-.06c0,.18.15.47.38.4s.19-.23.09-.34m.06-.35c-.18,0-.32-.12-.38-.31-.07.16-.19.36,0,.47s.32.11.38-.16m0-.77a.31.31,0,0,0-.23.42c.09.25.31.25.49.1a.59.59,0,0,1-.26-.52m.11,1.31c0,.09-.13.24-.24.25a.25.25,0,0,0,.43.11c.14-.23,0-.39-.19-.36"/><path class="cls-25" d="M27.58,165a.64.64,0,0,1-.6.42c-.35,0-.65-.17-.67-.42h0a.58.58,0,0,0,.35-.44h0a.84.84,0,0,0,.88.45Zm-.47,1.13,0,0a.7.7,0,0,1-.87,0,.45.45,0,0,1,.06-.68.83.83,0,0,0,.82.08.6.6,0,0,0-.05.42.77.77,0,0,0,.07.16m-2.44-.54a.59.59,0,0,1-.48.66.5.5,0,0,1-.65-.38.53.53,0,0,1,0-.22.69.69,0,0,0,.43-.26.84.84,0,0,0,.54.1l.11,0a.53.53,0,0,1,0,.12m1.23.38a.74.74,0,0,1-.84.26.39.39,0,0,1-.17-.54.92.92,0,0,0,.68.17.64.64,0,0,0,.45-.27.5.5,0,0,1-.12.38m-1-1.24a.56.56,0,0,1,0,.46c-.16.24-.5.24-.78,0a.8.8,0,0,1-.27-.61.41.41,0,0,0,.14-.31l0,0a.7.7,0,0,0,.76.53.42.42,0,0,0,.17,0m1.08.63a.73.73,0,0,1-.84.28.43.43,0,0,1-.09-.69,1,1,0,0,1,.22-.19.89.89,0,0,0,.78.29h.06a.56.56,0,0,1-.13.31m6.59-.41a.46.46,0,0,1-.4.58.36.36,0,0,1-.23,0,.54.54,0,0,0,0-.31.71.71,0,0,0-.37-.43.44.44,0,0,1,.34-.23.59.59,0,0,1,.66.4m-.82.26a.48.48,0,0,1-.38.6.77.77,0,0,1-.37-.07.59.59,0,0,0,.15-.58.6.6,0,0,0-.19-.31l.14-.05a.59.59,0,0,1,.65.41m-.81,0a.47.47,0,0,1-.39.6.6.6,0,0,1-.68-.44.42.42,0,0,1,0-.06,1.05,1.05,0,0,0,.36,0,.65.65,0,0,0,.54-.43.56.56,0,0,1,.19.3m-1.24.12a.44.44,0,0,1-.38.53.5.5,0,0,1-.47-.17.57.57,0,0,0,.15-.56.75.75,0,0,0-.06-.13.24.24,0,0,1,.14,0,.61.61,0,0,1,.27,0,.7.7,0,0,0,.3.24l.05.12m-1.3.57a.49.49,0,0,1-.47.52.7.7,0,0,1-.76-.41.47.47,0,0,1,.39-.57.89.89,0,0,0,.84.46m.41-.72a.47.47,0,0,1-.39.59.61.61,0,0,1-.68-.43.47.47,0,0,1,.29-.56.75.75,0,0,0,.78.4m-.89-.45a.54.54,0,0,1-.34.2.65.65,0,0,1-.73-.45.51.51,0,0,1,.43-.64.66.66,0,0,1,.63.26.49.49,0,0,0-.09.43.54.54,0,0,0,.1.2M23.74,164a.45.45,0,0,1-.43.55.68.68,0,0,1-.73-.39.27.27,0,0,1,0-.23.34.34,0,0,0,.12.09.77.77,0,0,0,.92,0,.33.33,0,0,0,.06-.1l0,.08m.11,1.23a.48.48,0,0,1-.31.26.58.58,0,0,1-.68-.32.4.4,0,0,1,0-.37.72.72,0,0,0,.36,0,.6.6,0,0,0,.28-.21.38.38,0,0,0,0,.33.58.58,0,0,0,.33.3m-.43.34a.31.31,0,0,1-.06.23.45.45,0,0,1-.63,0,.44.44,0,0,1-.18-.59.3.3,0,0,1,.22-.12.35.35,0,0,0,0,.23.46.46,0,0,0,.5.32.38.38,0,0,0,.17-.07m7.15-1a.46.46,0,0,1-.39.57.57.57,0,0,1-.64-.4.45.45,0,0,1,.39-.57.57.57,0,0,1,.64.4m-1.41-.2a.45.45,0,0,1-.39.57.59.59,0,0,1-.65-.41.46.46,0,0,1,.39-.57.58.58,0,0,1,.65.41m-7.87-.85a.42.42,0,0,1,0,.41.56.56,0,0,1-.75,0,.51.51,0,0,1-.19-.7.43.43,0,0,1,.37-.14.72.72,0,0,0,.6.44Zm-.84-1.78a.55.55,0,0,1,.5.45.41.41,0,0,0-.24.36.3.3,0,0,0,0,.13.54.54,0,0,1-.28.08.61.61,0,0,1-.55-.57.5.5,0,0,1,.55-.45m-.81,0a.69.69,0,0,1,.29.07.46.46,0,0,0-.22.37.63.63,0,0,0,.3.5.57.57,0,0,1-.37.13.64.64,0,0,1-.57-.6.52.52,0,0,1,.57-.47M21.31,164a.57.57,0,0,1,.21.32.52.52,0,0,1-.36.66.71.71,0,0,1-.77-.45.45.45,0,0,1,0-.34h0a.68.68,0,0,0,.86-.2m.76-.94a.48.48,0,0,1,.28.1.53.53,0,0,0,.19.71.58.58,0,0,1-.47.27.65.65,0,0,1-.59-.59h0a.54.54,0,0,0,.53-.49Zm-.31,2.45a.64.64,0,0,1-.5.26.75.75,0,0,1-.66-.68.13.13,0,0,1,0-.08.6.6,0,0,0,.76.14.78.78,0,0,0,.38.36m-.1-.77s0,0,0,0a.49.49,0,0,1-.22.32.56.56,0,0,0,.2-.34m-1.35-1.79a.48.48,0,0,0-.25.42.74.74,0,0,0,.22.49.38.38,0,0,1-.16,0,.77.77,0,0,1-.67-.71.46.46,0,0,1,.06-.23.39.39,0,0,0,.15,0,.61.61,0,0,0,.4-.14,1,1,0,0,0,.25.12m.15,1.18a.44.44,0,0,0-.23.4.56.56,0,0,0,.11.31h-.05a.7.7,0,0,1-.6-.59.4.4,0,0,1,.14-.32.49.49,0,0,0,.32.09h.14a.62.62,0,0,0,.17.11m1.54.21a.57.57,0,0,1,.55.54.52.52,0,0,1-.55.48.63.63,0,0,1-.52-.34.46.46,0,0,0,.28-.43.36.36,0,0,0,0-.2.92.92,0,0,1,.28,0m-.55-2.18a.65.65,0,0,1,.6.65.6.6,0,0,1-.6.59.76.76,0,0,1-.68-.7.63.63,0,0,1,.68-.54M26.16,164a.55.55,0,0,1,.22.74.62.62,0,0,1-.81,0,.55.55,0,0,1-.21-.74.58.58,0,0,1,.8,0m-1.36-.34a.57.57,0,0,1,.18.74c-.13.2-.45.2-.71,0a.6.6,0,0,1-.19-.75.5.5,0,0,1,.72,0m-1.44-.73a.63.63,0,0,1,.24.85.69.69,0,0,1-.92,0,.63.63,0,0,1-.25-.85.69.69,0,0,1,.93,0"/><path class="cls-19" d="M27.58,165a.64.64,0,0,1-.6.42c-.35,0-.65-.17-.67-.42h0a.58.58,0,0,0,.35-.44h0a.84.84,0,0,0,.88.45Zm-.47,1.13,0,0a.7.7,0,0,1-.87,0,.45.45,0,0,1,.06-.68.83.83,0,0,0,.82.08.6.6,0,0,0-.05.42A.77.77,0,0,0,27.11,166.08Zm-2.44-.54a.59.59,0,0,1-.48.66.5.5,0,0,1-.65-.38.53.53,0,0,1,0-.22.69.69,0,0,0,.43-.26.84.84,0,0,0,.54.1l.11,0A.53.53,0,0,1,24.67,165.54Zm1.23.38a.74.74,0,0,1-.84.26.39.39,0,0,1-.17-.54.92.92,0,0,0,.68.17.64.64,0,0,0,.45-.27A.5.5,0,0,1,25.9,165.92Zm-1-1.24a.56.56,0,0,1,0,.46c-.16.24-.5.24-.78,0a.8.8,0,0,1-.27-.61.41.41,0,0,0,.14-.31l0,0a.7.7,0,0,0,.76.53A.42.42,0,0,0,24.9,164.68Zm1.08.63a.73.73,0,0,1-.84.28.43.43,0,0,1-.09-.69,1,1,0,0,1,.22-.19.89.89,0,0,0,.78.29h.06A.56.56,0,0,1,26,165.31Zm6.59-.41a.46.46,0,0,1-.4.58.36.36,0,0,1-.23,0,.54.54,0,0,0,0-.31.71.71,0,0,0-.37-.43.44.44,0,0,1,.34-.23A.59.59,0,0,1,32.57,164.9Zm-.82.26a.48.48,0,0,1-.38.6.77.77,0,0,1-.37-.07.59.59,0,0,0,.15-.58.6.6,0,0,0-.19-.31l.14-.05A.59.59,0,0,1,31.75,165.16Zm-.81,0a.47.47,0,0,1-.39.6.6.6,0,0,1-.68-.44.42.42,0,0,1,0-.06,1.05,1.05,0,0,0,.36,0,.65.65,0,0,0,.54-.43A.56.56,0,0,1,30.94,165.16Zm-1.24.12a.44.44,0,0,1-.38.53.5.5,0,0,1-.47-.17.57.57,0,0,0,.15-.56.75.75,0,0,0-.06-.13.24.24,0,0,1,.14,0,.61.61,0,0,1,.27,0,.7.7,0,0,0,.3.24Zm-1.3.57a.49.49,0,0,1-.47.52.7.7,0,0,1-.76-.41.47.47,0,0,1,.39-.57A.89.89,0,0,0,28.4,165.85Zm.41-.72a.47.47,0,0,1-.39.59.61.61,0,0,1-.68-.43.47.47,0,0,1,.29-.56A.75.75,0,0,0,28.81,165.13Zm-.89-.45a.54.54,0,0,1-.34.2.65.65,0,0,1-.73-.45.51.51,0,0,1,.43-.64.66.66,0,0,1,.63.26.49.49,0,0,0-.09.43A.54.54,0,0,0,27.92,164.68ZM23.74,164a.45.45,0,0,1-.43.55.68.68,0,0,1-.73-.39.27.27,0,0,1,0-.23.34.34,0,0,0,.12.09.77.77,0,0,0,.92,0,.33.33,0,0,0,.06-.1Zm.11,1.23a.48.48,0,0,1-.31.26.58.58,0,0,1-.68-.32.4.4,0,0,1,0-.37.72.72,0,0,0,.36,0,.6.6,0,0,0,.28-.21.38.38,0,0,0,0,.33A.58.58,0,0,0,23.85,165.2Zm-.43.34a.31.31,0,0,1-.06.23.45.45,0,0,1-.63,0,.44.44,0,0,1-.18-.59.3.3,0,0,1,.22-.12.35.35,0,0,0,0,.23.46.46,0,0,0,.5.32A.38.38,0,0,0,23.42,165.54Zm7.15-1a.46.46,0,0,1-.39.57.57.57,0,0,1-.64-.4.45.45,0,0,1,.39-.57A.57.57,0,0,1,30.57,164.51Zm-1.41-.2a.45.45,0,0,1-.39.57.59.59,0,0,1-.65-.41.46.46,0,0,1,.39-.57A.58.58,0,0,1,29.16,164.31Zm-7.87-.85a.42.42,0,0,1,0,.41.56.56,0,0,1-.75,0,.51.51,0,0,1-.19-.7.43.43,0,0,1,.37-.14.72.72,0,0,0,.6.44Zm-.84-1.78a.55.55,0,0,1,.5.45.41.41,0,0,0-.24.36.3.3,0,0,0,0,.13.54.54,0,0,1-.28.08.61.61,0,0,1-.55-.57A.5.5,0,0,1,20.45,161.68Zm-.81,0a.69.69,0,0,1,.29.07.46.46,0,0,0-.22.37.63.63,0,0,0,.3.5.57.57,0,0,1-.37.13.64.64,0,0,1-.57-.6A.52.52,0,0,1,19.64,161.73ZM21.31,164a.57.57,0,0,1,.21.32.52.52,0,0,1-.36.66.71.71,0,0,1-.77-.45.45.45,0,0,1,0-.34h0A.68.68,0,0,0,21.31,164Zm.76-.94a.48.48,0,0,1,.28.1.53.53,0,0,0,.19.71.58.58,0,0,1-.47.27.65.65,0,0,1-.59-.59h0a.54.54,0,0,0,.53-.49Zm-.31,2.45a.64.64,0,0,1-.5.26.75.75,0,0,1-.66-.68.13.13,0,0,1,0-.08.6.6,0,0,0,.76.14A.78.78,0,0,0,21.76,165.5Zm-.1-.77s0,0,0,0a.49.49,0,0,1-.22.32A.56.56,0,0,0,21.66,164.73Zm-1.35-1.79a.48.48,0,0,0-.25.42.74.74,0,0,0,.22.49.38.38,0,0,1-.16,0,.77.77,0,0,1-.67-.71.46.46,0,0,1,.06-.23.39.39,0,0,0,.15,0,.61.61,0,0,0,.4-.14A1,1,0,0,0,20.31,162.94Zm.15,1.18a.44.44,0,0,0-.23.4.56.56,0,0,0,.11.31h-.05a.7.7,0,0,1-.6-.59.4.4,0,0,1,.14-.32.49.49,0,0,0,.32.09h.14A.62.62,0,0,0,20.46,164.12Zm1.54.21a.57.57,0,0,1,.55.54.52.52,0,0,1-.55.48.63.63,0,0,1-.52-.34.46.46,0,0,0,.28-.43.36.36,0,0,0,0-.2A.92.92,0,0,1,22,164.33Zm-.55-2.18a.65.65,0,0,1,.6.65.6.6,0,0,1-.6.59.76.76,0,0,1-.68-.7A.63.63,0,0,1,21.45,162.15ZM26.16,164a.55.55,0,0,1,.22.74.62.62,0,0,1-.81,0,.55.55,0,0,1-.21-.74A.58.58,0,0,1,26.16,164Zm-1.36-.34a.57.57,0,0,1,.18.74c-.13.2-.45.2-.71,0a.6.6,0,0,1-.19-.75A.5.5,0,0,1,24.8,163.62Zm-1.44-.73a.63.63,0,0,1,.24.85.69.69,0,0,1-.92,0,.63.63,0,0,1-.25-.85A.69.69,0,0,1,23.36,162.89Z"/><path class="cls-26" d="M32.19,149.57a7.72,7.72,0,0,0-1-2.5c-.29-.29-.6-.56-.89-.87l1.1.8a7.23,7.23,0,0,1,.89,2.1c.13-.11.19,0,.33-.15a10,10,0,0,0,2-1.88c-.09.21-.46.8-.55,1-1.19,1.16-1.66,1.25-1.64,1.68,0,.14-.07.28-.1.42.22-.21.9-.89,1.13-1.1-.22.31-.91,1.09-.94,1.4-.23.26-.11.52-.06.79a11.05,11.05,0,0,0,2.83-1.69c-1,1.17-1.86,1.2-2.79,2.28,0,.45-.1.86-.14,1.29s.09.72.12,1.1a.88.88,0,0,1,.51.38,16,16,0,0,1,3,.49l-7.61,0a9.11,9.11,0,0,1,2.69-.38,1.32,1.32,0,0,1,.73-.59l.12-1.82a1,1,0,0,0-.39-.82,7.57,7.57,0,0,1-1.87-2,15.09,15.09,0,0,0,2.35,2c0-.12.07-.23.09-.33v-.85a7.11,7.11,0,0,1-1.61-1.59s-.61-.73-.59-.75a16.33,16.33,0,0,0,2.26,2,1.11,1.11,0,0,0,0-.19c-.06-.08-.12-.17-.19-.25l.24,0"/><path class="cls-27" d="M32.19,149.57a7.72,7.72,0,0,0-1-2.5c-.29-.29-.6-.56-.89-.87l1.1.8a7.23,7.23,0,0,1,.89,2.1c.13-.11.19,0,.33-.15a10,10,0,0,0,2-1.88c-.09.21-.46.8-.55,1-1.19,1.16-1.66,1.25-1.64,1.68,0,.14-.07.28-.1.42.22-.21.9-.89,1.13-1.1-.22.31-.91,1.09-.94,1.4-.23.26-.11.52-.06.79a11.05,11.05,0,0,0,2.83-1.69c-1,1.17-1.86,1.2-2.79,2.28,0,.45-.1.86-.14,1.29s.09.72.12,1.1a.88.88,0,0,1,.51.38,16,16,0,0,1,3,.49l-7.61,0a9.11,9.11,0,0,1,2.69-.38,1.32,1.32,0,0,1,.73-.59l.12-1.82a1,1,0,0,0-.39-.82,7.57,7.57,0,0,1-1.87-2,15.09,15.09,0,0,0,2.35,2c0-.12.07-.23.09-.33v-.85a7.11,7.11,0,0,1-1.61-1.59s-.61-.73-.59-.75a16.33,16.33,0,0,0,2.26,2,1.11,1.11,0,0,0,0-.19c-.06-.08-.12-.17-.19-.25Z"/><path class="cls-28" d="M35.2,149.5c.33-.93.6-.91,1.16-1.19-.38.85-.71,1.18-1.16,1.19"/><path class="cls-29" d="M35.2,149.5c.33-.93.6-.91,1.16-1.19C36,149.16,35.65,149.49,35.2,149.5Z"/><path class="cls-28" d="M32.66,151.78c1-.55,1.25.21,1.75.2-.61.46-1.38-.2-1.75-.2"/><path class="cls-29" d="M32.66,151.78c1-.55,1.25.21,1.75.2C33.8,152.44,33,151.78,32.66,151.78Z"/><path class="cls-28" d="M33.41,146.65c-.55-1.27.45-1.31.5-1.85.48.79-.46,1.42-.5,1.85"/><path class="cls-29" d="M33.41,146.65c-.55-1.27.45-1.31.5-1.85C34.39,145.59,33.45,146.22,33.41,146.65Z"/><path class="cls-28" d="M31.61,151.24c-.47-.64-.25-.77-.07-1.22.37.63.37,1,.07,1.22"/><path class="cls-29" d="M31.61,151.24c-.47-.64-.25-.77-.07-1.22C31.91,150.65,31.91,151,31.61,151.24Z"/><path class="cls-28" d="M30.38,150.19c-.93-.69-.08-1.13-.25-1.53.71.37.13,1.22.25,1.53"/><path class="cls-29" d="M30.38,150.19c-.93-.69-.08-1.13-.25-1.53C30.84,149,30.26,149.88,30.38,150.19Z"/><path class="cls-28" d="M31.15,150.83c-.91-.7-.26-1.22-.46-1.65.67.37.31,1.31.46,1.65"/><path class="cls-29" d="M31.15,150.83c-.91-.7-.26-1.22-.46-1.65C31.36,149.55,31,150.49,31.15,150.83Z"/><path class="cls-28" d="M34.67,147.05c-.09-1.31.61-1.49,1.12-2,0,1.21-.61,1.86-1.12,2"/><path class="cls-29" d="M34.67,147.05c-.09-1.31.61-1.49,1.12-2C35.78,146.27,35.18,146.92,34.67,147.05Z"/><path class="cls-28" d="M33.21,151.29c1-.59,1.27.18,1.75.15-.58.48-1.37-.17-1.75-.15"/><path class="cls-29" d="M33.21,151.29c1-.59,1.27.18,1.75.15C34.38,151.92,33.59,151.27,33.21,151.29Z"/><path class="cls-28" d="M34,150.82c1.08-.46,1.24.33,1.74.36-.66.41-1.35-.33-1.74-.36"/><path class="cls-29" d="M34,150.82c1.08-.46,1.24.33,1.74.36C35.05,151.59,34.36,150.85,34,150.82Z"/><path class="cls-28" d="M34.57,150.49c.67-.79,1.11-.12,1.49-.26-.35.6-1.18.17-1.49.26"/><path class="cls-29" d="M34.57,150.49c.67-.79,1.11-.12,1.49-.26C35.71,150.83,34.88,150.4,34.57,150.49Z"/><path class="cls-28" d="M35.08,150c.37-.82.84-.2,1.1-.36-.15.59-.88.23-1.1.36"/><path class="cls-29" d="M35.08,150c.37-.82.84-.2,1.1-.36C36,150.23,35.3,149.87,35.08,150Z"/><path class="cls-28" d="M32,151.78c-1-.55-1.27.21-1.76.2.61.46,1.38-.2,1.76-.2"/><path class="cls-29" d="M32,151.78c-1-.55-1.27.21-1.76.2C30.85,152.44,31.62,151.78,32,151.78Z"/><path class="cls-28" d="M31.44,151.29c-1-.59-1.28.18-1.76.15.59.48,1.38-.17,1.76-.15"/><path class="cls-29" d="M31.44,151.29c-1-.59-1.28.18-1.76.15C30.27,151.92,31.06,151.27,31.44,151.29Z"/><path class="cls-28" d="M30.68,150.82c-1.07-.46-1.25.33-1.73.36.65.41,1.33-.33,1.73-.36"/><path class="cls-29" d="M30.68,150.82c-1.07-.46-1.25.33-1.73.36C29.6,151.59,30.28,150.85,30.68,150.82Z"/><path class="cls-28" d="M30.09,150.49c-.69-.79-1.12-.12-1.51-.26.37.6,1.19.17,1.51.26"/><path class="cls-29" d="M30.09,150.49c-.69-.79-1.12-.12-1.51-.26C29,150.83,29.77,150.4,30.09,150.49Z"/><path class="cls-28" d="M29.57,150c-.36-.82-.83-.2-1.11-.36.17.59.88.23,1.11.36"/><path class="cls-29" d="M29.57,150c-.36-.82-.83-.2-1.11-.36C28.63,150.23,29.34,149.87,29.57,150Z"/><path class="cls-28" d="M29.61,149.43c-.32-.94-.59-.9-1.15-1.19.37.86.72,1.18,1.15,1.19"/><path class="cls-29" d="M29.61,149.43c-.32-.94-.59-.9-1.15-1.19C28.83,149.1,29.18,149.42,29.61,149.43Z"/><path class="cls-28" d="M33,151a1.47,1.47,0,0,0,.34-1.3A1.1,1.1,0,0,0,33,151"/><path class="cls-29" d="M33,151a1.47,1.47,0,0,0,.34-1.3A1.1,1.1,0,0,0,33,151Z"/><path class="cls-28" d="M34.47,149.93c1.07-.45.39-1.12.59-1.82a4.54,4.54,0,0,0-.59,1.82"/><path class="cls-29" d="M34.47,149.93c1.07-.45.39-1.12.59-1.82A4.54,4.54,0,0,0,34.47,149.93Z"/><path class="cls-28" d="M33.57,150.58c1.07-.45.53-1.3.83-1.67-.63.35-.59,1.38-.83,1.67"/><path class="cls-29" d="M33.57,150.58c1.07-.45.53-1.3.83-1.67C33.77,149.26,33.81,150.29,33.57,150.58Z"/><path class="cls-28" d="M30.31,148.57a1.59,1.59,0,0,0-1.48-.8c.62.71,1.05.91,1.48.8"/><path class="cls-29" d="M30.31,148.57a1.59,1.59,0,0,0-1.48-.8C29.45,148.48,29.88,148.68,30.31,148.57Z"/><path class="cls-28" d="M30.11,148.2c.07-1.15-.24-1.22-.73-1.76,0,1.08.26,1.57.73,1.76"/><path class="cls-29" d="M30.11,148.2c.07-1.15-.24-1.22-.73-1.76C29.42,147.52,29.64,148,30.11,148.2Z"/><path class="cls-28" d="M30.63,146.38c.61-.86.31-1,0-1.47-.48.82-.45,1.23,0,1.47"/><path class="cls-29" d="M30.63,146.38c.61-.86.31-1,0-1.47C30.18,145.73,30.21,146.14,30.63,146.38Z"/><path class="cls-28" d="M30.78,149.05c-.92-.69-.09-1.14-.24-1.53.7.37.12,1.21.24,1.53"/><path class="cls-29" d="M30.78,149.05c-.92-.69-.09-1.14-.24-1.53C31.24,147.89,30.66,148.73,30.78,149.05Z"/><path class="cls-28" d="M31.61,149.62c-.47-.64-.25-.77-.07-1.21.37.61.37,1,.07,1.21"/><path class="cls-29" d="M31.61,149.62c-.47-.64-.25-.77-.07-1.21C31.91,149,31.91,149.37,31.61,149.62Z"/><path class="cls-28" d="M31.15,149.29a1.49,1.49,0,0,0,0-1.32,1.07,1.07,0,0,0,0,1.32"/><path class="cls-29" d="M31.15,149.29a1.49,1.49,0,0,0,0-1.32A1.07,1.07,0,0,0,31.15,149.29Z"/><path class="cls-28" d="M31.39,146.88c-.93-.69-.09-1.14-.25-1.54.71.38.14,1.23.25,1.54"/><path class="cls-29" d="M31.39,146.88c-.93-.69-.09-1.14-.25-1.54C31.85,145.72,31.28,146.57,31.39,146.88Z"/><path class="cls-28" d="M33.33,146.44c-1.11-.33-.5-1-.8-1.36.8.12.57,1.1.8,1.36"/><path class="cls-29" d="M33.33,146.44c-1.11-.33-.5-1-.8-1.36C33.33,145.2,33.1,146.18,33.33,146.44Z"/><path class="cls-28" d="M32.63,149a1.81,1.81,0,0,0,0-1.65,1.39,1.39,0,0,0,0,1.65"/><path class="cls-29" d="M32.63,149a1.81,1.81,0,0,0,0-1.65A1.39,1.39,0,0,0,32.63,149Z"/><path class="cls-28" d="M34.19,147.42c.9-.72.07-1.18.07-1.9a4.32,4.32,0,0,0-.07,1.9"/><path class="cls-29" d="M34.19,147.42c.9-.72.07-1.18.07-1.9A4.32,4.32,0,0,0,34.19,147.42Z"/><path class="cls-28" d="M33.23,148.62c.86-1-.2-1.39-.09-1.86-.47.62.17,1.48.09,1.86"/><path class="cls-29" d="M33.23,148.62c.86-1-.2-1.39-.09-1.86C32.67,147.38,33.31,148.24,33.23,148.62Z"/><path class="cls-28" d="M36.44,147c-.86.78-1.17.56-2,.49.88-.67,1.45-.77,2-.49"/><path class="cls-29" d="M36.44,147c-.86.78-1.17.56-2,.49C35.33,146.78,35.9,146.68,36.44,147Z"/><path class="cls-28" d="M33.86,148.19c1-.67,1.23-.42,2-.25-1,.55-1.53.59-2,.25"/><path class="cls-29" d="M33.86,148.19c1-.67,1.23-.42,2-.25C34.94,148.49,34.37,148.53,33.86,148.19Z"/><path class="cls-28" d="M33.94,147.93a1.82,1.82,0,0,0-.35-1.57,1.31,1.31,0,0,0,.35,1.57"/><path class="cls-29" d="M33.94,147.93a1.82,1.82,0,0,0-.35-1.57A1.31,1.31,0,0,0,33.94,147.93Z"/><path class="cls-28" d="M32.05,148.12c-.32-.74-.07-.82.21-1.21.22.69.13,1-.21,1.21"/><path class="cls-29" d="M32.05,148.12c-.32-.74-.07-.82.21-1.21C32.48,147.6,32.39,147.93,32.05,148.12Z"/><path class="cls-28" d="M31.6,147.34a1.59,1.59,0,0,0,.45-1.27,1.11,1.11,0,0,0-.45,1.27"/><path class="cls-29" d="M31.6,147.34a1.59,1.59,0,0,0,.45-1.27A1.11,1.11,0,0,0,31.6,147.34Z"/><path class="cls-28" d="M31.12,147a1.64,1.64,0,0,0-1.35-.3,1.2,1.2,0,0,0,1.35.3"/><path class="cls-29" d="M31.12,147a1.64,1.64,0,0,0-1.35-.3A1.2,1.2,0,0,0,31.12,147Z"/><path class="cls-28" d="M31.69,148.12a1.58,1.58,0,0,0-1.33-.31,1.19,1.19,0,0,0,1.33.31"/><path class="cls-29" d="M31.69,148.12a1.58,1.58,0,0,0-1.33-.31A1.19,1.19,0,0,0,31.69,148.12Z"/><path class="cls-28" d="M31.61,147.65a1.6,1.6,0,0,0-1.34-.31,1.21,1.21,0,0,0,1.34.31"/><path class="cls-29" d="M31.61,147.65a1.6,1.6,0,0,0-1.34-.31A1.21,1.21,0,0,0,31.61,147.65Z"/><path class="cls-28" d="M32.66,149.26c1,.59,1.27-.17,1.77-.13-.6-.49-1.38.15-1.77.13"/><path class="cls-29" d="M32.66,149.26c1,.59,1.27-.17,1.77-.13C33.83,148.64,33.05,149.28,32.66,149.26Z"/><path class="cls-28" d="M33.43,148.66a1.6,1.6,0,0,1,1.68-.13c-.87.39-1.36.41-1.68.13"/><path class="cls-29" d="M33.43,148.66a1.6,1.6,0,0,1,1.68-.13C34.24,148.92,33.75,148.94,33.43,148.66Z"/><path class="cls-28" d="M30.47,146.46c-.84.07-1-.35-1.31-.67.79,0,1.22.37,1.31.67"/><path class="cls-29" d="M30.47,146.46c-.84.07-1-.35-1.31-.67C30,145.79,30.38,146.16,30.47,146.46Z"/><path class="cls-30" d="M27,154.56l-.34-.05c-.27,0-1.07-.23-1.24-.2-.48.16-1.25-.34-1.52-.17a7.05,7.05,0,0,1-1.57.07,4.08,4.08,0,0,0-1.93.12c-.32.15-.77-.32-.92-.17a1.68,1.68,0,0,1-1.17.42l-.18.52H27Z"/><path class="cls-19" d="M27,154.56l-.34-.05c-.27,0-1.07-.23-1.24-.2-.48.16-1.25-.34-1.52-.17a7.05,7.05,0,0,1-1.57.07,4.08,4.08,0,0,0-1.93.12c-.32.15-.77-.32-.92-.17a1.68,1.68,0,0,1-1.17.42l-.18.52H27Z"/><path class="cls-17" d="M25.38,151c-.44.17-.74,1.38-.92,1.73-.1.19-.33.65-.12.94.1.12.25.17.27.28.3,0,.47.18.45.42s-.58.16-.8,0a.17.17,0,0,0-.09-.16,1,1,0,0,1-.05-.16c-.65-.32-.21-.74-.28-1.62,0,.16-.08.32-.13.48a6,6,0,0,0-.06,1.11.86.86,0,0,0,.35.33c.14.06.14.11.29.32,0,.05.09.18,0,.22s-.09.18-.62.05a1.36,1.36,0,0,0,0-.21c-.06,0-.11,0-.13-.08a.57.57,0,0,0-.2-.29c0-.14-.19-.14-.24-.34a2.69,2.69,0,0,1,.08-.85,5.71,5.71,0,0,0,.16-1.3,1.21,1.21,0,0,1-.23-.91c-.4.16-1-.17-1.22-.3s-.11.87-.81,1.27a.89.89,0,0,0-.29.46c-.24.25.16,1.07.41,1.34l.43.53c.19.11.46.25.45.46a1.27,1.27,0,0,1-.86,0c0-.09-.16-.25,0-.34a.57.57,0,0,1-.39-.16,14.46,14.46,0,0,0-.77-1.52c-.09,0-.13-.25-.13-.35s.05,0,.24-.55c-.14.28-.53.52-.51.85s.3.88.34,1.14.11.26.47.4c.16.13.43.37.43.54a1.28,1.28,0,0,1-.89,0c-.05-.12-.06-.29-.12-.42s0-.11-.12-.13-.31,0-.39-.09c-.13-.57-.28-1.53-.43-2.11a.61.61,0,0,1,.17-.51,3.34,3.34,0,0,0,.64-.72c.3-.22.14-.81-.15-1.12-.11.17,0,.22-.09.25s-.34-.32-.28-.53,0-.45,0-.78c.11-.55.42-.65.73-.37a1.8,1.8,0,0,1,1.45-.52,2.92,2.92,0,0,1,1.94.16,2.32,2.32,0,0,1,1.12.6c.14.11.32,0,.44-.12a6.21,6.21,0,0,0-.44-2.59c-.38.23-.67,0-1.07-.26-.09-.06-.09-.1,0-.16s.25-.09.37-.09c-.2-.14-.15-.21,0-.24.32.07.61-.15.89,0,.18-.28.5-.27.81-.29a1,1,0,0,1,.7.33c.09.15.47.18.54.27s0,.29,0,.42a.38.38,0,0,1-.31.2c-.07,0-.18,0-.26,0s-.14.14-.24.2a6.58,6.58,0,0,1,.33,2.58,1.89,1.89,0,0,1-.57,1.57c-.21.17-.08.41-.2.61"/><path class="cls-26" d="M24.65,145.47c-.07.08-.32.3-.5.27s-.22-.18-.46-.22-.1-.08,0-.12c.28-.1.65-.28.92,0-.22,0-.26.05-.51.06a.82.82,0,0,0,.53,0"/><path class="cls-31" d="M23.85,145.18c-.11-.05-.16-.06,0-.11.34.07.59-.15.81.06-.07,0-.05.07-.14.07s-.48,0-.63,0"/><path class="cls-26" d="M24.76,145.09a.84.84,0,0,1,1.08-.07,1.37,1.37,0,0,0,.65.32.16.16,0,0,0,.14.14,1.42,1.42,0,0,1-.05.16c-.07.07-.28.05-.49.05a.92.92,0,0,0,.45.05c0,.09-.16.23-.5.17-.09.17-.26.31-.62.18-.11,0-.25-.07-.36-.09a1,1,0,0,0,.56.32,7.41,7.41,0,0,1,.42,2.31,3.4,3.4,0,0,1-.29,1.32c-.08.2-.23.23-.31.34-.2.27-.14.52-.22.66-.58.07-.63,1.7-.95,1.63s-.34-.89,0-1.06c1-.57.63-2,.68-1.84-.22.75-.06,1.47-.56,1.43s-.59,1-.59,1.17-.07.3-.11.51a9.31,9.31,0,0,0-.11,1,1.12,1.12,0,0,0,0,.32.91.91,0,0,0,.43.39c.21.08.3.34.25.4s-.24.16-.48,0a.41.41,0,0,1-.05-.2c-.16,0-.16-.22-.32-.36,0-.13-.26-.17-.26-.43a12.23,12.23,0,0,1,.24-1.3,1.9,1.9,0,0,0,.14-.65c-.08-.19.16-.19,0-.33-.32-.3-.28-.79.16-1.28-.09,0-.14-.19-.2-.28v.34l-.34.43a1.74,1.74,0,0,1-1.33-.46.67.67,0,0,1-.31-.61c0-.06-.21,0-.17,0s-.06.18,0,.31.29.2.28.29l-.07.58a2,2,0,0,1-.7,1.09l-.27.59a2.92,2.92,0,0,0,.74,1.33c.09.09.17.26.27.34a1,1,0,0,1,.43.34,1.15,1.15,0,0,1-.7,0,.29.29,0,0,1,0-.32.81.81,0,0,1-.43-.18,13.86,13.86,0,0,0-.82-1.57.38.38,0,0,1,.09-.48,1.9,1.9,0,0,0,.21-1.53c-.26-.09-.5-.56-.56-1a1.57,1.57,0,0,1,.32-1.33,1.68,1.68,0,0,1,1.29-.37,3.84,3.84,0,0,1,2.39.3c.43.06.53.52.86.49a.44.44,0,0,0,.4-.43,7.57,7.57,0,0,0-.43-2.49.37.37,0,0,1,.23-.23c-.09-.07-.16-.15-.14-.22a1.52,1.52,0,0,1,.06-.2"/><path class="cls-17" d="M26,145.4c-.24-.08-.24-.18-.49-.11a.4.4,0,0,0-.23.21c.1-.05.13-.07.19-.06s.29.05.33,0,.11,0,.2,0"/><path class="cls-26" d="M24.38,151.24a.54.54,0,0,1-.07.53.55.55,0,0,1-.09.73c.21.35-.06.53,0,1,.1.29.32.29.32.47.27,0,.45.1.47.29s-.06-.06-.14,0c.08.06.11.12.08.13a.85.85,0,0,1-.38.06c-.07,0-.15,0-.19-.15a1,1,0,0,0,0-.18c-.26,0-.36-.18-.37-.45a1.59,1.59,0,0,0-.08.22.46.46,0,0,1-.12-.35,2.65,2.65,0,0,0,.09-1.12c0-.83.23-.94.48-1.11"/><path class="cls-22" d="M19.57,148.7c0,.07-.05.25-.17.44a.29.29,0,0,0,.23-.13.78.78,0,0,1-.21.36c.06,0,.12,0,.21-.13v.09a2.6,2.6,0,0,0-.1.25c-.07,0-.08.19-.13.3a.87.87,0,0,1-.08-.78c-.09-.08,0-.24.1-.37a.75.75,0,0,0-.12.07.94.94,0,0,1,.21-.54.2.2,0,0,1,.32.08c0,.08,0,.13-.16.23s-.16.13-.1.13"/><path class="cls-32" d="M20.49,150.13c0,.44.11.72.1,1.09a3,3,0,0,1-.38,1.13c.07-.06.15-.19.21-.16a1.65,1.65,0,0,1,.26-.6.84.84,0,0,0,.07-.66,2.22,2.22,0,0,1-.26-.8"/><path class="cls-26" d="M19.47,152.42a2.17,2.17,0,0,0,0,.25,3.34,3.34,0,0,0,.38,1.18.66.66,0,0,1,.22.22l.18.17a1.05,1.05,0,0,1,.49.41.82.82,0,0,1-.67,0,4.16,4.16,0,0,0-.16-.4l-.11-.09c-.11,0-.4-.16-.42-.27a9.66,9.66,0,0,0-.32-1.74.5.5,0,0,1,.08-.56,2.44,2.44,0,0,0,.56-.55.92.92,0,0,0,.32-.64.86.86,0,0,1,.21.52,1.23,1.23,0,0,1-.08.82l-.64.7"/><path class="cls-32" d="M19.92,150.79c-.05.56-.71.9-.73,1.46a1.17,1.17,0,0,1,.1-.69,2.53,2.53,0,0,0,.63-.77"/><path class="cls-32" d="M19.3,151.26a1.11,1.11,0,0,0-.23.48c0-.11-.06-.22,0-.32a.29.29,0,0,1,.2-.16"/><path class="cls-17" d="M27.7,141.87a1.65,1.65,0,0,1,1.61-.67,1.59,1.59,0,0,1,1.69-.77,1.73,1.73,0,0,1,.43-1,2.68,2.68,0,0,1-1.06-1.52,2.45,2.45,0,0,1-1.47-.67c-.34.06-.65.22-1-.13-.24.35-.47.23-.9,0-.36,0-.84.23-1.21.25a1.2,1.2,0,0,1-1.28.46,1.89,1.89,0,0,1-.43,1.52c.28.4.15.33.28.72s.92.62,1.07,1.05a1.29,1.29,0,0,0,1,.2,2.35,2.35,0,0,1,1.29.59m1.17,1.18c1.13.16,1.78,0,1.92-.5.08.31,2.33-.37,2-.93a1.59,1.59,0,0,0,1.14-1.22c0-.09-.42.15-.51.06a1.58,1.58,0,0,0,.2-2c0-1.11-.35-1.82-1-1.95,0,.06.09,1.25,0,.69a3,3,0,0,0-1.52-1.56,2.18,2.18,0,0,0-2.21-.74A1.38,1.38,0,0,0,28,135c-.42-.14-1.22-.25-1.49,0-.45-.24-.56-.14-1.05,0-.82-.06-.88.15-1.51.69a1.77,1.77,0,0,0-1.27,1.11c-.43.4-1,.72-1,1.46-.61.58-.19,1.65-.08,1.94-.15,1.61.35,1.39.92,1.59,0,.9,1.25.54,1.87,1,.72.71,1.12.61,3.35.08a3.87,3.87,0,0,0,1.14.23"/><path class="cls-19" d="M27.7,141.87a1.65,1.65,0,0,1,1.61-.67,1.59,1.59,0,0,1,1.69-.77,1.73,1.73,0,0,1,.43-1,2.68,2.68,0,0,1-1.06-1.52,2.45,2.45,0,0,1-1.47-.67c-.34.06-.65.22-1-.13-.24.35-.47.23-.9,0-.36,0-.84.23-1.21.25a1.2,1.2,0,0,1-1.28.46,1.89,1.89,0,0,1-.43,1.52c.28.4.15.33.28.72s.92.62,1.07,1.05a1.29,1.29,0,0,0,1,.2A2.35,2.35,0,0,1,27.7,141.87Zm1.17,1.18c1.13.16,1.78,0,1.92-.5.08.31,2.33-.37,2-.93a1.59,1.59,0,0,0,1.14-1.22c0-.09-.42.15-.51.06a1.58,1.58,0,0,0,.2-2c0-1.11-.35-1.82-1-1.95,0,.06.09,1.25,0,.69a3,3,0,0,0-1.52-1.56,2.18,2.18,0,0,0-2.21-.74A1.38,1.38,0,0,0,28,135c-.42-.14-1.22-.25-1.49,0-.45-.24-.56-.14-1.05,0-.82-.06-.88.15-1.51.69a1.77,1.77,0,0,0-1.27,1.11c-.43.4-1,.72-1,1.46-.61.58-.19,1.65-.08,1.94-.15,1.61.35,1.39.92,1.59,0,.9,1.25.54,1.87,1,.72.71,1.12.61,3.35.08A3.87,3.87,0,0,0,28.87,143.05Z"/><path class="cls-33" d="M31.15,137.11c-.06,1,.76,1.12,1.68,1.69a2.6,2.6,0,0,0-1.68-1.69"/><path class="cls-19" d="M31.15,137.11c-.06,1,.76,1.12,1.68,1.69A2.6,2.6,0,0,0,31.15,137.11Z"/><path class="cls-33" d="M32.91,136.77c.87,1.64-.25,1.87-.19,2.6-.72-1,.22-2,.19-2.6"/><path class="cls-19" d="M32.91,136.77c.87,1.64-.25,1.87-.19,2.6C32,138.38,32.94,137.36,32.91,136.77Z"/><path class="cls-33" d="M30.83,138.1c.47,1.39.73.92,1.61,1.34-.55-.92-.72-1.11-1.61-1.34"/><path class="cls-19" d="M30.83,138.1c.47,1.39.73.92,1.61,1.34C31.89,138.52,31.72,138.33,30.83,138.1Z"/><path class="cls-33" d="M32.85,141.19c-.72-1.75.64-1.81.71-2.54.65,1.1-.64,2-.71,2.54"/><path class="cls-19" d="M32.85,141.19c-.72-1.75.64-1.81.71-2.54C34.21,139.75,32.92,140.62,32.85,141.19Z"/><path class="cls-33" d="M31.48,141.51c1.38-1.12.15-1.6.37-2.19-1,.64-.2,1.72-.37,2.19"/><path class="cls-19" d="M31.48,141.51c1.38-1.12.15-1.6.37-2.19C30.81,140,31.65,141,31.48,141.51Z"/><path class="cls-33" d="M32.64,139c-.95,1.14-.42,1.1-.31,2,.52-.93.59-1.18.31-2"/><path class="cls-19" d="M32.64,139c-.95,1.14-.42,1.1-.31,2C32.85,140.09,32.92,139.84,32.64,139Z"/><path class="cls-33" d="M31.53,141.84c.67-1.55,1.68-.86,2.22-1.33-.26,1.09-1.78,1-2.22,1.33"/><path class="cls-19" d="M31.53,141.84c.67-1.55,1.68-.86,2.22-1.33C33.49,141.6,32,141.48,31.53,141.84Z"/><path class="cls-33" d="M30.5,141.83c.62-1,.94-.78,1.68-.82-.67.86-1.15,1.06-1.68.82"/><path class="cls-19" d="M30.5,141.83c.62-1,.94-.78,1.68-.82C31.51,141.87,31,142.07,30.5,141.83Z"/><path class="cls-33" d="M30,142.09c1.27-1.14,1.91-.11,2.6-.3-.72.87-2,.17-2.6.3"/><path class="cls-19" d="M30,142.09c1.27-1.14,1.91-.11,2.6-.3C31.86,142.66,30.53,142,30,142.09Z"/><path class="cls-33" d="M29.45,141.74c.5-1.78,1.7-.85,2.23-1.33-.14,1.26-1.79,1-2.23,1.33"/><path class="cls-19" d="M29.45,141.74c.5-1.78,1.7-.85,2.23-1.33C31.54,141.67,29.89,141.37,29.45,141.74Z"/><path class="cls-33" d="M29,142.26c.86-.81,1.11-.53,1.83-.39-.85.68-1.38.75-1.83.39"/><path class="cls-19" d="M29,142.26c.86-.81,1.11-.53,1.83-.39C30,142.55,29.45,142.62,29,142.26Z"/><path class="cls-33" d="M27.7,142.48c.49-1.77,1.69-.84,2.22-1.32-.13,1.25-1.8,1-2.22,1.32"/><path class="cls-19" d="M27.7,142.48c.49-1.77,1.69-.84,2.22-1.32C29.79,142.41,28.12,142.12,27.7,142.48Z"/><path class="cls-33" d="M28,142.59c1.42-1,1.9.15,2.61.07-.82.75-2-.13-2.61-.07"/><path class="cls-19" d="M28,142.59c1.42-1,1.9.15,2.61.07C29.76,143.41,28.55,142.53,28,142.59Z"/><path class="cls-33" d="M24.12,137.26c.05,1-.77,1.12-1.69,1.67a2.57,2.57,0,0,1,1.69-1.67"/><path class="cls-19" d="M24.12,137.26c.05,1-.77,1.12-1.69,1.67A2.57,2.57,0,0,1,24.12,137.26Z"/><path class="cls-33" d="M22.58,137.09c-1.31,1.36-.29,1.87-.55,2.56,1-.78.34-2,.55-2.56"/><path class="cls-19" d="M22.58,137.09c-1.31,1.36-.29,1.87-.55,2.56C23,138.87,22.37,137.65,22.58,137.09Z"/><path class="cls-33" d="M24.32,138.1c-.25,1.45-.58,1-1.37,1.57.39-1,.53-1.21,1.37-1.57"/><path class="cls-19" d="M24.32,138.1c-.25,1.45-.58,1-1.37,1.57C23.34,138.67,23.48,138.46,24.32,138.1Z"/><path class="cls-33" d="M22.38,141c.72-1.76-.64-1.81-.72-2.55-.65,1.1.65,2,.72,2.55"/><path class="cls-19" d="M22.38,141c.72-1.76-.64-1.81-.72-2.55C21,139.58,22.31,140.45,22.38,141Z"/><path class="cls-33" d="M23.57,141.6c-1.08-1.4.24-1.59.16-2.21.86.85-.21,1.71-.16,2.21"/><path class="cls-19" d="M23.57,141.6c-1.08-1.4.24-1.59.16-2.21C24.59,140.24,23.52,141.1,23.57,141.6Z"/><path class="cls-33" d="M22.63,139.14c.94,1.13.4,1.08.31,2-.53-.95-.59-1.18-.31-2"/><path class="cls-19" d="M22.63,139.14c.94,1.13.4,1.08.31,2C22.41,140.22,22.35,140,22.63,139.14Z"/><path class="cls-33" d="M23.7,142.08c-.52-1.61-1.59-1-2.09-1.52.15,1.09,1.67,1.13,2.09,1.52"/><path class="cls-19" d="M23.7,142.08c-.52-1.61-1.59-1-2.09-1.52C21.76,141.65,23.28,141.69,23.7,142.08Z"/><path class="cls-33" d="M24.76,142c-.61-1-.94-.78-1.68-.8.67.85,1.15,1.05,1.68.8"/><path class="cls-19" d="M24.76,142c-.61-1-.94-.78-1.68-.8C23.75,142,24.23,142.22,24.76,142Z"/><path class="cls-33" d="M25.28,142.24c-1.27-1.14-1.9-.12-2.59-.3.71.86,2,.15,2.59.3"/><path class="cls-19" d="M25.28,142.24c-1.27-1.14-1.9-.12-2.59-.3C23.4,142.8,24.73,142.09,25.28,142.24Z"/><path class="cls-33" d="M25,142.29c.66-1.5-.7-1.49-.8-2.11-.61.95.72,1.63.8,2.11"/><path class="cls-19" d="M25,142.29c.66-1.5-.7-1.49-.8-2.11C23.61,141.13,24.94,141.81,25,142.29Z"/><path class="cls-33" d="M26.25,142.41c-.85-.81-1.1-.54-1.82-.38.86.66,1.37.74,1.82.38"/><path class="cls-19" d="M26.25,142.41c-.85-.81-1.1-.54-1.82-.38C25.29,142.69,25.8,142.77,26.25,142.41Z"/><path class="cls-33" d="M27.56,142.62c-.49-1.76-1.69-.84-2.23-1.31.14,1.25,1.81.95,2.23,1.31"/><path class="cls-19" d="M27.56,142.62c-.49-1.76-1.69-.84-2.23-1.31C25.47,142.56,27.14,142.26,27.56,142.62Z"/><path class="cls-33" d="M27.3,142.74c-1.43-1-1.92.14-2.62,0,.83.77,2-.12,2.62,0"/><path class="cls-19" d="M27.3,142.74c-1.43-1-1.92.14-2.62,0C25.51,143.56,26.72,142.67,27.3,142.74Z"/><rect class="cls-34" x="112.43" y="122.46" width="178.94" height="55.04"/></g><text class="cls-35" transform="translate(118.5 153.84)">Ministerio de Salud</text><g class="cls-16"><path class="cls-33" d="M28.08,135.23c1.27-.45,1.44.38,2,.41-.77.42-1.56-.37-2-.41"/><path class="cls-19" d="M28.08,135.23c1.27-.45,1.44.38,2,.41C29.32,136.06,28.53,135.27,28.08,135.23Z"/><path class="cls-33" d="M29.29,135c1.44-.15,1.39.76,2,.95-.91.23-1.53-.81-2-.95"/><path class="cls-19" d="M29.29,135c1.44-.15,1.39.76,2,.95C30.36,136.17,29.74,135.13,29.29,135Z"/><path class="cls-33" d="M27.59,136.66c1.31.74,1.67-.15,2.31-.08-.77-.6-1.8.12-2.31.08"/><path class="cls-19" d="M27.59,136.66c1.31.74,1.67-.15,2.31-.08C29.13,136,28.1,136.7,27.59,136.66Z"/><path class="cls-33" d="M29.29,136.94c1.11,1,1.66.19,2.27.37-.62-.73-1.8-.23-2.27-.37"/><path class="cls-19" d="M29.29,136.94c1.11,1,1.66.19,2.27.37C30.94,136.58,29.76,137.08,29.29,136.94Z"/><path class="cls-33" d="M27.48,135.85c1.24.84,1.6.34,2.56.17a3,3,0,0,0-2.56-.17"/><path class="cls-19" d="M27.48,135.85c1.24.84,1.6.34,2.56.17A3,3,0,0,0,27.48,135.85Z"/><path class="cls-33" d="M29.5,135.87c.85,1.21.95.7,1.92.87-.78-.75-1-.88-1.92-.87"/><path class="cls-19" d="M29.5,135.87c.85,1.21.95.7,1.92.87C30.64,136,30.42,135.86,29.5,135.87Z"/><path class="cls-33" d="M31,135.72c1.8.62,1.14,1.54,1.69,2-1.23-.26-1.26-1.62-1.69-2"/><path class="cls-19" d="M31,135.72c1.8.62,1.14,1.54,1.69,2C31.49,137.49,31.46,136.13,31,135.72Z"/><path class="cls-33" d="M26.93,135.37c-1.27-.45-1.45.38-2,.43.77.41,1.56-.39,2-.43"/><path class="cls-19" d="M26.93,135.37c-1.27-.45-1.45.38-2,.43C25.69,136.21,26.48,135.41,26.93,135.37Z"/><path class="cls-33" d="M26,135.13c-1.44-.15-1.4.77-2,1,.92.23,1.54-.79,2-1"/><path class="cls-19" d="M26,135.13c-1.44-.15-1.4.77-2,1C24.91,136.31,25.53,135.29,26,135.13Z"/><path class="cls-33" d="M27.67,136.8c-1.3.74-1.68-.14-2.31-.07.77-.61,1.8.11,2.31.07"/><path class="cls-19" d="M27.67,136.8c-1.3.74-1.68-.14-2.31-.07C26.13,136.12,27.16,136.84,27.67,136.8Z"/><path class="cls-33" d="M26,137.08c-1.12,1-1.67.19-2.28.39.63-.75,1.79-.26,2.28-.39"/><path class="cls-19" d="M26,137.08c-1.12,1-1.67.19-2.28.39C24.33,136.72,25.49,137.21,26,137.08Z"/><path class="cls-33" d="M27.78,136c-1.24.83-1.59.35-2.57.19a3.06,3.06,0,0,1,2.57-.19"/><path class="cls-19" d="M27.78,136c-1.24.83-1.59.35-2.57.19A3.06,3.06,0,0,1,27.78,136Z"/><path class="cls-33" d="M25.76,136c-.85,1.21-1,.71-1.92.88.79-.76,1-.89,1.92-.88"/><path class="cls-19" d="M25.76,136c-.85,1.21-1,.71-1.92.88C24.63,136.13,24.85,136,25.76,136Z"/><path class="cls-33" d="M24.23,135.86c-1.79.63-1.13,1.54-1.69,2,1.22-.25,1.26-1.62,1.69-2"/><path class="cls-19" d="M24.23,135.86c-1.79.63-1.13,1.54-1.69,2C23.76,137.64,23.8,136.27,24.23,135.86Z"/><path class="cls-33" d="M28,135.3c-1.23.85-1.15.35-2.12.2,1-.46,1.26-.52,2.12-.2"/><path class="cls-19" d="M28,135.3c-1.23.85-1.15.35-2.12.2C26.92,135,27.17,135,28,135.3Z"/><path class="cls-17" d="M46,134.15l.36.37-1.05.93a2.24,2.24,0,0,0-.31.3.36.36,0,0,0-.09.27.54.54,0,0,0,.16.33.6.6,0,0,0,.3.18.34.34,0,0,0,.26-.05,4.13,4.13,0,0,0,.34-.27l1.09-.94.35.37-1,.9a3.53,3.53,0,0,1-.54.4.61.61,0,0,1-.34.1.85.85,0,0,1-.37-.08,1.27,1.27,0,0,1-.4-.31,1.66,1.66,0,0,1-.31-.46,1,1,0,0,1,0-.37.63.63,0,0,1,.12-.3,2.44,2.44,0,0,1,.46-.46Zm-2.46-.75.3.26a1.36,1.36,0,0,0,.37.29.19.19,0,0,0,.18,0,.3.3,0,0,0,.17-.1.33.33,0,0,0,.1-.18.32.32,0,0,0-.08-.22s-.12-.13-.27-.26l-.3-.28Zm-1.42.72,1.8-1.84.81.73a1.79,1.79,0,0,1,.4.45.59.59,0,0,1,0,.37.72.72,0,0,1-.19.38.75.75,0,0,1-.47.23.78.78,0,0,1-.54-.18,1.22,1.22,0,0,1,.06.35,2.41,2.41,0,0,1-.07.5l-.11.57-.48-.41.12-.66a2.85,2.85,0,0,0,.05-.46.37.37,0,0,0,0-.18.65.65,0,0,0-.17-.19l-.07-.08-.75.79Zm-2-1.4,1.59-2,1.55,1.14-.27.33-1.13-.83-.35.45,1.07.77-.28.34-1-.77-.44.55,1.18.87-.27.35ZM39.5,130l-.35.64.24.14a1.6,1.6,0,0,0,.4.15.33.33,0,0,0,.2,0,.46.46,0,0,0,.16-.15.31.31,0,0,0,0-.23.39.39,0,0,0-.13-.21,1.83,1.83,0,0,0-.32-.19ZM38,131.55l1.27-2.21.74.39a3.27,3.27,0,0,1,.53.34.63.63,0,0,1,.21.39.68.68,0,0,1-.12.5.67.67,0,0,1-.27.3.87.87,0,0,1-.32.13.73.73,0,0,1-.3,0,5.22,5.22,0,0,1-.5-.22l-.3-.17-.48.83Zm-3-1.19.89-2.37.5.18-.74,2,1.24.44-.16.4Zm-2.38-.63.63-2.46,1.9.45-.11.41-1.38-.33-.14.55,1.28.31-.11.41-1.28-.31-.17.67,1.42.34-.1.42Zm-1.77-2.44L30.58,129l.39,0a2.28,2.28,0,0,0,.32,0,.78.78,0,0,0,.23-.08.58.58,0,0,0,.17-.22,1.53,1.53,0,0,0,.12-.45,1.45,1.45,0,0,0,0-.46.73.73,0,0,0-.11-.27.61.61,0,0,0-.23-.15l-.42-.08Zm-.47-.5,1,.13a2.19,2.19,0,0,1,.48.12.92.92,0,0,1,.36.28,1.07,1.07,0,0,1,.19.46,2,2,0,0,1,0,.6,1.46,1.46,0,0,1-.16.51,1.07,1.07,0,0,1-.34.41.86.86,0,0,1-.4.15,1.51,1.51,0,0,1-.47,0l-1-.14Zm-2.68,1.41-.38-.92-.34,1Zm1,1h-.58l-.25-.56-1,0-.21.58-.56,0L27,126.7h.56Zm-3.46-.79.54.09a1,1,0,0,1-1,1,1.11,1.11,0,0,1-.91-.23,1.31,1.31,0,0,1-.47-.9,1.27,1.27,0,0,1,.2-1,1.13,1.13,0,0,1,.82-.47,1.12,1.12,0,0,1,.82.16,1,1,0,0,1,.34.43l-.51.19a.54.54,0,0,0-.23-.28.61.61,0,0,0-.38-.07.59.59,0,0,0-.43.27.92.92,0,0,0-.09.67,1.1,1.1,0,0,0,.27.65.64.64,0,0,0,.5.14.48.48,0,0,0,.33-.17.68.68,0,0,0,.16-.44m-2.56,1.37-.63-2.45.51-.13.63,2.47Zm-2.11.59L19.81,128l.5-.15.64,2,1.26-.38.14.4Zm-2.44-.24.27.62.45-.19a1.54,1.54,0,0,0,.33-.15.29.29,0,0,0,.12-.39.32.32,0,0,0-.13-.15.35.35,0,0,0-.21-.05,1.54,1.54,0,0,0-.44.15Zm-.41-.93.23.54.33-.13c.19-.09.3-.13.34-.16a.33.33,0,0,0,.17-.16.29.29,0,0,0,0-.22.23.23,0,0,0-.14-.15.25.25,0,0,0-.21,0,3.59,3.59,0,0,0-.41.16Zm-.65-.2,1-.39a2.28,2.28,0,0,1,.44-.15.57.57,0,0,1,.29,0,.72.72,0,0,1,.27.12.66.66,0,0,1,.24.58.66.66,0,0,1-.16.31.69.69,0,0,1,.43.07.57.57,0,0,1,.27.3.78.78,0,0,1,.06.35.58.58,0,0,1-.1.32.82.82,0,0,1-.27.25l-.6.25-.81.34Zm-2.59,1.34.47-.25.68,1.21c.11.18.19.31.23.36a.39.39,0,0,0,.27.13.71.71,0,0,0,.36-.06.49.49,0,0,0,.24-.26.31.31,0,0,0,0-.25c0-.07-.1-.21-.19-.39l-.71-1.22.46-.25.67,1.16a3.08,3.08,0,0,1,.28.59.71.71,0,0,1,0,.35.8.8,0,0,1-.17.33,1.11,1.11,0,0,1-.41.29,1.44,1.44,0,0,1-.54.21.66.66,0,0,1-.37-.06.73.73,0,0,1-.27-.17,2.88,2.88,0,0,1-.37-.53Zm-1.57,1.61.45.58.23-.17a1.72,1.72,0,0,0,.32-.28.45.45,0,0,0,.05-.19.37.37,0,0,0-.07-.19.39.39,0,0,0-.21-.14.52.52,0,0,0-.25,0l-.32.21Zm.89,2-1.59-2,.7-.5a2.89,2.89,0,0,1,.52-.33.61.61,0,0,1,.46,0,.76.76,0,0,1,.42.3.79.79,0,0,1,.18.37.56.56,0,0,1,0,.32.55.55,0,0,1-.14.26,2.32,2.32,0,0,1-.41.35l-.28.21.59.75ZM12,135.52l-1.79-1.86,1.42-1.28.31.3-1,.94.4.42,1-.88.32.31-1,.88.49.5,1.07-.95.3.29ZM9.37,136l.27-.28a1.62,1.62,0,0,0,.29-.37.25.25,0,0,0,0-.17.28.28,0,0,0-.11-.16.28.28,0,0,0-.2-.09.31.31,0,0,0-.21.08l-.26.27-.29.29Zm.78,1.36-2-1.69.75-.81a1.63,1.63,0,0,1,.46-.38.6.6,0,0,1,.39-.07.89.89,0,0,1,.39.19.69.69,0,0,1,.24.45.75.75,0,0,1-.17.52,1.69,1.69,0,0,1,.36-.06,3.55,3.55,0,0,1,.52.06l.59.1-.43.46-.68-.09a3.52,3.52,0,0,0-.46-.06.59.59,0,0,0-.2,0,.66.66,0,0,0-.2.17l-.07.07.82.71Z"/><polygon class="cls-36" points="15.22 129.72 15.17 129.18 15.53 128.98 15.44 129.59 15.22 129.72"/></g></g></g></g></g></svg>