<svg id="Layer_1" data-name="Layer 1" xmlns="http://www.w3.org/2000/svg" viewBox="0 0 300 300"><defs><style>.cls-1{fill:#fff;}.cls-2{fill:#231f20;}.cls-3{fill:#a51d36;}</style></defs><title>Artboard 13</title><rect class="cls-1" x="0.13" y="0.13" width="299.75" height="299.75"/><path class="cls-2" d="M299.75.25v299.5H.25V.25h299.5M300,0H0V300H300V0Z"/><rect class="cls-3" x="30.54" y="117.78" width="60.34" height="59.83"/><rect class="cls-1" x="40.69" y="124.25" width="40.54" height="3.23"/><rect class="cls-1" x="78.19" y="124.5" width="3.04" height="16.06"/><rect class="cls-1" x="40.69" y="126.36" width="3.04" height="14.2"/><rect class="cls-1" x="48.27" y="134.7" width="3.03" height="5.87"/><rect class="cls-1" x="48.27" y="131.95" width="10.66" height="3.07"/><rect class="cls-1" x="55.88" y="131.95" width="3.05" height="32.47"/><rect class="cls-1" x="49.81" y="161.39" width="9.13" height="3.03"/><rect class="cls-1" x="63.51" y="131.95" width="10.12" height="3.07" transform="translate(137.13 266.98) rotate(-180)"/><rect class="cls-1" x="63.51" y="131.95" width="3.05" height="32.47" transform="translate(130.06 296.37) rotate(-180)"/><rect class="cls-1" x="63.51" y="161.39" width="9.13" height="3.03" transform="translate(136.14 325.81) rotate(-180)"/><rect class="cls-1" x="70.6" y="133.78" width="3.03" height="6.81"/><rect class="cls-1" x="50.24" y="169.42" width="22.31" height="3.07"/><path class="cls-2" d="M100.11,124.64c.16-2.62.4-5.24.48-7.31h.72c.57,1,1,1,2.1,1H120c1,0,1.29-.24,1.93-1h.65c.08,1.67.24,4.69.48,7.23l-1.21.08c-.4-2.06-.88-3.1-1.49-3.69-.68-.76-2-1-4.47-1H113.8v18.27c0,4.29.32,4.6,4,4.84v1.11H105.42v-1.11c3.55-.24,3.87-.55,3.87-4.84V120h-1.37c-3.46,0-4.51.47-5.16,1.19a8.89,8.89,0,0,0-1.45,3.49Z"/><path class="cls-2" d="M136.35,140.57c-2.29,3.3-5.31,4.09-6.44,4.09-5.28,0-8.38-3.69-8.46-8.34-.08-5,3.67-9.85,9-9.85a6,6,0,0,1,6,5.68c0,1.47-.08,1.55-.84,1.71-.57.08-5.76.47-10.15.63-.08,5,3.1,7.07,6.12,7.07a6.74,6.74,0,0,0,4.23-1.67Zm-4.71-7.79c.56,0,.73-.23.73-1.11,0-1.59-1.25-3.65-3-3.65s-3.38,1.86-3.7,4.84Z"/><path class="cls-2" d="M140.79,131.55c0-2.42-.09-2.5-2.58-2.74v-.91a55.34,55.34,0,0,0,6.72-1.51v2.9c.73-.52,1.45-1,2.34-1.55a6.68,6.68,0,0,1,3.5-1.27,4.92,4.92,0,0,1,4.75,3c1-.68,2-1.31,2.74-1.79a6.33,6.33,0,0,1,3.46-1.19c3.55,0,5.2,2.22,5.2,5.28v8.66c0,2.26.24,2.42,2.5,2.66v1.11h-9v-1.11c2.21-.24,2.37-.4,2.37-2.66V132.9c0-2.38-1-3.69-3.14-3.69a6.23,6.23,0,0,0-3.79,1.59c0,.32.09.63.09.87v8.74c0,2.26.16,2.42,2.29,2.66v1.11h-8.86v-1.11c2.26-.24,2.42-.4,2.42-2.66V132.9c0-2.46-1.05-3.69-3.1-3.69a6,6,0,0,0-3.75,1.59v9.61c0,2.26.16,2.42,2.18,2.66v1.11H138v-1.11c2.61-.24,2.78-.4,2.78-2.66Z"/><path class="cls-2" d="M177.68,128.85l4-2.14a4.59,4.59,0,0,1,1.61-.24c4.59,0,6.89,3.93,6.89,7.47,0,5.91-4.43,9.61-9.75,10.72a6,6,0,0,1-2.77-.64v5.37c0,2.1.24,2.34,3.46,2.58v1.11H170.79V152c2.5-.24,2.74-.48,2.74-2.58V131.28c0-2.15-.08-2.23-2.74-2.47v-.91c2.05-.4,4.35-1.11,6.89-1.83Zm0,12.43a5.87,5.87,0,0,0,3.7,1.39c1.85,0,4.51-1.62,4.51-6.75,0-5-2.38-6.71-4.95-6.71a5.77,5.77,0,0,0-3.26,1.19Z"/><path class="cls-2" d="M199,140.41c0,2.18.16,2.42,2.78,2.66v1.11H192.1v-1.11c2.49-.24,2.73-.48,2.73-2.66V121c0-2.35-.08-2.35-2.69-2.58v-1c1.73-.23,4.71-.87,6.84-1.35Z"/><path class="cls-2" d="M218.51,140.57c-2.29,3.3-5.31,4.09-6.44,4.09-5.27,0-8.38-3.69-8.46-8.34-.08-5,3.67-9.85,9-9.85a6,6,0,0,1,6,5.68c0,1.47-.08,1.55-.84,1.71-.57.08-5.76.47-10.15.63-.08,5,3.1,7.07,6.12,7.07a6.74,6.74,0,0,0,4.23-1.67Zm-4.71-7.79c.57,0,.73-.23.73-1.11,0-1.59-1.25-3.65-3-3.65s-3.39,1.86-3.71,4.84Z"/><path class="cls-2" d="M111.54,152.84V154c-3,.24-3.3.48-3.3,4.77v8.38c0,6.31,2.1,9.85,6.85,9.85s7.29-3.66,7.29-10.61V164A60.28,60.28,0,0,0,122,156c-.2-1.43-1.33-1.91-3.9-2.07v-1.11h9.82V154c-2,.08-3.06.64-3.26,2.07a61.08,61.08,0,0,0-.36,7.94v2.82c0,3.85-.73,7.15-2.94,9.49a10.32,10.32,0,0,1-7.45,3,11.25,11.25,0,0,1-7.17-2.1c-2.13-1.71-3-4.57-3-9.26v-9.17c0-4.29-.32-4.53-3.54-4.77v-1.11Z"/><path class="cls-2" d="M134.94,163.68c.81-.47,1.61-1,2.34-1.47a6.26,6.26,0,0,1,3.54-1.27,4.93,4.93,0,0,1,5.2,5.25V175c0,2.19.16,2.35,2.41,2.58v1.12h-9v-1.12c2.3-.23,2.46-.39,2.46-2.58V167.3c0-2.38-1.17-3.7-3.26-3.7a6.12,6.12,0,0,0-3.67,1.63V175c0,2.19.24,2.35,2.26,2.58v1.12h-9.26v-1.12c2.61-.23,2.86-.39,2.86-2.58V166c0-2.43-.08-2.51-2.58-2.74v-.92a55.34,55.34,0,0,0,6.72-1.51Z"/><path class="cls-2" d="M157.09,174.88c0,2.19.25,2.43,2.78,2.66v1.12h-9.66v-1.12c2.58-.23,2.74-.47,2.74-2.66V166c0-2.43-.08-2.51-2.58-2.74v-.92a55.34,55.34,0,0,0,6.72-1.51Zm.41-20.69a2.6,2.6,0,1,1-2.62-2.62A2.58,2.58,0,0,1,157.5,154.19Z"/><path class="cls-2" d="M168.89,161.42v1.11l-1.36.2c-.65.12-.65.48-.25,1.59,1.13,3,2.66,7,3.55,9,.92-2.26,2.21-5.79,3.22-8.73.44-1.23.44-1.67-.4-1.79l-1.41-.24v-1.11h7.12v1.11c-2,.24-2.37.48-3.22,2.35-1.65,3.61-3.66,8.26-5.88,14.09h-1.45L163.06,165c-.85-2-1-2.26-3.27-2.5v-1.11Z"/><path class="cls-2" d="M194.63,175c-2.3,3.3-5.32,4.09-6.44,4.09-5.28,0-8.38-3.69-8.46-8.34-.08-5,3.66-9.85,9-9.85a6,6,0,0,1,6,5.68c0,1.47-.08,1.55-.85,1.71-.56.08-5.75.48-10.14.64-.08,5,3.1,7.07,6.12,7.07a6.8,6.8,0,0,0,4.23-1.67Zm-4.71-7.78c.56,0,.72-.24.72-1.11,0-1.59-1.25-3.66-3-3.66s-3.38,1.87-3.7,4.85Z"/><path class="cls-2" d="M203.21,164.88h.12c1-1.51,2.58-4,4.55-4a2.47,2.47,0,0,1,2.5,2.31,2.89,2.89,0,0,1-1.65,2.5,1.16,1.16,0,0,1-1.17-.16,2.67,2.67,0,0,0-1.85-.87c-.69,0-1.61.47-2.5,2.22v8c0,2.19.24,2.43,3.18,2.66v1.12h-9.95v-1.12c2.38-.23,2.62-.47,2.62-2.66V166c0-2.43-.08-2.51-2.57-2.74v-.92a55.34,55.34,0,0,0,6.72-1.51Z"/><path class="cls-2" d="M213.08,172.82c.64,2.38,2.74,4.81,4.95,4.81a2.58,2.58,0,0,0,2.74-2.59c0-1.31-.89-2.46-3.06-3.33s-5-2.39-5-5.29,2.29-5.4,6.4-5.48a9.34,9.34,0,0,1,3.7.72,25.73,25.73,0,0,1,1,4l-1.13.32c-1.25-2.66-2.7-3.54-4.15-3.54a2.28,2.28,0,0,0-2.33,2.35c0,1.31,1.41,2.38,3.14,3,3,1.12,5.27,2.74,5.27,5.64,0,3.94-3.74,5.68-7,5.68a8.07,8.07,0,0,1-4.92-1.59,17.7,17.7,0,0,1-.56-4.64Z"/><path class="cls-2" d="M233.46,174.88c0,2.19.24,2.43,2.77,2.66v1.12h-9.66v-1.12c2.58-.23,2.74-.47,2.74-2.66V166c0-2.43-.08-2.51-2.58-2.74v-.92a55.91,55.91,0,0,0,6.73-1.51Zm.4-20.69a2.6,2.6,0,1,1-2.62-2.62A2.58,2.58,0,0,1,233.86,154.19Z"/><path class="cls-2" d="M244.25,156.3v5.12h4.15a1.27,1.27,0,0,1-.25,1.83h-3.9v9.81c0,3.1,1.49,3.61,2.29,3.61A5.56,5.56,0,0,0,249,176l.48,1-3.54,1.75a2.86,2.86,0,0,1-1.33.39c-3,0-4.51-1.43-4.51-4.72V163.25h-2.74l-.24-.56,1.29-1.27h1.69V159l3.58-3.06Z"/><path class="cls-2" d="M258.91,161.42v1.11l-1.21.2c-.93.12-.89.64-.48,1.67l3.38,8.86c.76-1.71,3-7.67,3.5-8.94s.41-1.47-.56-1.59l-1.45-.2v-1.11h7.37v1.11c-2.26.32-2.38.44-3.51,2.7s-2.61,5.52-4.95,11c-2.66,6.16-3.62,8.86-4.31,11a1.25,1.25,0,0,1-1.29,1,2.37,2.37,0,0,1-2.25-2c0-.63.32-1,1-1.43a8.69,8.69,0,0,0,3-3.37c.33-.72.85-1.91,1-2.39a1.66,1.66,0,0,0-.12-1.35c-1.85-5.12-4-10.32-4.91-12.55s-1.17-2.42-3.34-2.66v-1.11Z"/></svg>